STARTFONT 2.1
FONT -FontForge-Marathon Shapiro Wide 65-Thin-R-Normal--32-720-32-32-P-235-ISO10646-1
SIZE 72 32 32
FONTBOUNDINGBOX 52 48 -3 -14
COMMENT "Generated by fontforge, http://fontforge.sourceforge.net"
COMMENT "Copyright (c) 2020 by Oliver Jeschke. All rights reserved."
STARTPROPERTIES 39
FOUNDRY "FontForge"
FAMILY_NAME "Marathon Shapiro Wide 65"
WEIGHT_NAME "Thin"
SLANT "R"
SETWIDTH_NAME "Normal"
ADD_STYLE_NAME ""
PIXEL_SIZE 32
POINT_SIZE 720
RESOLUTION_X 32
RESOLUTION_Y 32
SPACING "P"
AVERAGE_WIDTH 235
CHARSET_REGISTRY "ISO10646"
CHARSET_ENCODING "1"
FONTNAME_REGISTRY ""
CHARSET_COLLECTIONS "ISO8859-2 ISO8859-5 ISO8859-9 ISO8859-4 ISO10646-1"
FONT_NAME "MarathonShapiro-Wide65"
FACE_NAME "Marathon Shapiro Wide 65"
COPYRIGHT "Copyright (c) 2020 by Oliver Jeschke. All rights reserved."
FONT_VERSION "2.000"
FONT_ASCENT 26
FONT_DESCENT 6
UNDERLINE_POSITION -4
UNDERLINE_THICKNESS 2
X_HEIGHT 16
CAP_HEIGHT 22
RAW_ASCENT 800
RAW_DESCENT 200
NORM_SPACE 11
RELATIVE_WEIGHT 3
RELATIVE_SETWIDTH 70
SUPERSCRIPT_X 0
SUPERSCRIPT_Y 11
SUPERSCRIPT_SIZE 19
SUBSCRIPT_X 0
SUBSCRIPT_Y 2
SUBSCRIPT_SIZE 19
AVG_LOWERCASE_WIDTH 227
AVG_UPPERCASE_WIDTH 288
ENDPROPERTIES
CHARS 560
STARTCHAR nonmarkingreturn
ENCODING 13
SWIDTH 141 0
DWIDTH 5 0
BBX 1 1 0 0
BITMAP
00
ENDCHAR
STARTCHAR space
ENCODING 32
SWIDTH 338 0
DWIDTH 11 0
BBX 1 1 0 0
BITMAP
00
ENDCHAR
STARTCHAR exclam
ENCODING 33
SWIDTH 324 0
DWIDTH 10 0
BBX 6 23 2 0
BITMAP
FC
FC
FC
FC
FC
FC
FC
FC
FC
FC
7C
7C
7C
7C
78
78
00
00
FC
FC
FC
FC
FC
ENDCHAR
STARTCHAR quotedbl
ENCODING 34
SWIDTH 462 0
DWIDTH 15 0
BBX 13 10 1 13
BITMAP
F8F8
F8F8
F8F8
F8F8
F8F8
F8F8
F8F8
F8F8
F8F8
F8F8
ENDCHAR
STARTCHAR numbersign
ENCODING 35
SWIDTH 713 0
DWIDTH 23 0
BBX 21 23 1 0
BITMAP
01E1E0
01C1E0
01C1C0
03C1C0
03C3C0
03C3C0
0383C0
3FFFF8
3FFFF8
7FFFF8
078780
070700
0F0700
0F0F00
FFFFF0
FFFFE0
FFFFE0
1E1E00
1E1E00
1C1E00
1C1C00
3C3C00
3C3C00
ENDCHAR
STARTCHAR dollar
ENCODING 36
SWIDTH 800 0
DWIDTH 26 0
BBX 24 29 1 -3
BITMAP
003000
003000
003000
03FF80
1FFFF0
3FFFF8
7FFFFC
7F33FC
FE30FE
FC307E
FE3000
FFB000
7FFFC0
3FFFF8
1FFFFC
07FFFE
0037FE
00307E
FC307F
FC307F
FE307E
FFB1FE
7FFFFE
3FFFFC
1FFFF0
03FF80
003000
003000
003000
ENDCHAR
STARTCHAR percent
ENCODING 37
SWIDTH 1096 0
DWIDTH 35 0
BBX 33 24 1 -1
BITMAP
0FC0078000
3FF0078000
7FF80F0000
78780E0000
F07C1E0000
F03C3C0000
F03C380000
F03C780000
F07CF00000
7878F00000
7FF9E1F800
3FF1C7FE00
0FC3CFFF00
00078F0F00
00078F0780
000F1E0780
000E1E0780
001E1E0780
003C1F0780
003C0F0F80
00780FFF00
007007FF00
00F003FC00
0000002000
ENDCHAR
STARTCHAR ampersand
ENCODING 38
SWIDTH 913 0
DWIDTH 29 0
BBX 28 24 1 -1
BITMAP
00FF8000
07FFE000
0FFFF000
0FFFF800
1FC1F800
1F81F800
1F81F800
0FC3F800
07EFF000
03FFC000
03FF0000
1FFE0F80
3FFF1F80
7F3F9F80
7E1FDF00
FC07FF00
FC03FF00
FE01FE00
FE01FE00
7FFFFF00
7FFFFF80
3FFFFFC0
0FFF87F0
00300000
ENDCHAR
STARTCHAR quotesingle
ENCODING 39
SWIDTH 220 0
DWIDTH 7 0
BBX 5 10 1 13
BITMAP
F8
F8
F8
F8
F8
F8
F8
F8
F8
F8
ENDCHAR
STARTCHAR parenleft
ENCODING 40
SWIDTH 413 0
DWIDTH 13 0
BBX 11 29 1 -6
BITMAP
03E0
07C0
0F80
1F80
3F00
3F00
7E00
7E00
7C00
FC00
FC00
FC00
FC00
FC00
FC00
FC00
FC00
FC00
FC00
FC00
7C00
7E00
7E00
3F00
3F00
1F80
0F80
07C0
03E0
ENDCHAR
STARTCHAR parenright
ENCODING 41
SWIDTH 411 0
DWIDTH 13 0
BBX 11 29 1 -6
BITMAP
F800
7C00
3E00
1F00
1F80
0F80
0FC0
0FC0
07E0
07E0
07E0
07E0
07E0
03E0
03E0
03E0
07E0
07E0
07E0
07E0
07E0
0FC0
0FC0
0F80
1F80
1F00
3E00
7C00
F800
ENDCHAR
STARTCHAR asterisk
ENCODING 42
SWIDTH 499 0
DWIDTH 16 0
BBX 14 14 1 9
BITMAP
0780
0780
6798
77B8
FFFC
3FF0
1FE0
0FC0
3FF0
FFFC
77B8
6798
0780
0780
ENDCHAR
STARTCHAR plus
ENCODING 43
SWIDTH 674 0
DWIDTH 22 0
BBX 17 17 2 2
BITMAP
01E000
01E000
01E000
01E000
01E000
01E000
FFFF80
FFFF80
FFFF80
FFFF80
01E000
01E000
01E000
01E000
01E000
01E000
01E000
ENDCHAR
STARTCHAR comma
ENCODING 44
SWIDTH 328 0
DWIDTH 11 0
BBX 6 10 2 -4
BITMAP
FC
FC
FC
FC
FC
FC
1C
3C
F8
F0
ENDCHAR
STARTCHAR hyphen
ENCODING 45
SWIDTH 411 0
DWIDTH 13 0
BBX 11 4 1 7
BITMAP
FFE0
FFE0
FFE0
FFE0
ENDCHAR
STARTCHAR period
ENCODING 46
SWIDTH 328 0
DWIDTH 11 0
BBX 6 6 2 0
BITMAP
FC
FC
FC
FC
FC
FC
ENDCHAR
STARTCHAR slash
ENCODING 47
SWIDTH 466 0
DWIDTH 15 0
BBX 14 23 0 0
BITMAP
007C
007C
0078
00F8
00F0
01F0
01F0
01E0
03E0
03C0
07C0
07C0
0780
0F80
0F00
1F00
1E00
1E00
3E00
3C00
7C00
7800
F800
ENDCHAR
STARTCHAR zero
ENCODING 48
SWIDTH 868 0
DWIDTH 28 0
BBX 26 24 1 -1
BITMAP
00FFC000
03FFF000
0FFFFC00
1FFFFE00
3FC1FF00
3F007F00
7E003F80
7E001F80
7C001F80
FC000F80
FC000FC0
FC000FC0
FC000FC0
FC000F80
FC001F80
7E001F80
7E001F80
7F003F00
3F807F00
1FFFFE00
1FFFFC00
07FFF800
01FFE000
000C0000
ENDCHAR
STARTCHAR one
ENCODING 49
SWIDTH 611 0
DWIDTH 20 0
BBX 18 23 1 0
BITMAP
01F000
01F000
03F000
07F000
FFF000
FFF000
FFF000
FFF000
01F000
01F000
01F000
01F000
01F000
01F000
01F000
01F000
01F000
01F000
01F000
FFFFC0
FFFFC0
FFFFC0
FFFFC0
ENDCHAR
STARTCHAR two
ENCODING 50
SWIDTH 796 0
DWIDTH 25 0
BBX 23 23 1 0
BITMAP
01FF80
0FFFF0
1FFFF8
3FFFFC
7FC1FE
7E00FE
FE007E
FC007E
0000FE
0001FC
0007FC
001FF8
00FFF0
03FFC0
0FFE00
1FF000
3FC000
7F0000
7E0000
FFFFFE
FFFFFE
FFFFFE
FFFFFE
ENDCHAR
STARTCHAR three
ENCODING 51
SWIDTH 796 0
DWIDTH 25 0
BBX 23 24 1 -1
BITMAP
01FF80
0FFFF0
3FFFF8
7FFFFC
7F81FE
7E007E
FC007E
00007E
0000FC
007FFC
007FF0
007FF8
007FFC
0001FE
00007E
FC007E
FC007E
FC007E
FE00FE
7FFFFE
7FFFFC
3FFFF8
0FFFE0
003800
ENDCHAR
STARTCHAR four
ENCODING 52
SWIDTH 796 0
DWIDTH 25 0
BBX 24 22 1 0
BITMAP
001FF0
003FF0
007FF0
00FFF0
01FBF0
03F3F0
07E3F0
07C3F0
0F83F0
1F03F0
3F03F0
7E03F0
FC03F0
FFFFFF
FFFFFF
FFFFFF
FFFFFF
0003F0
0003F0
0003F0
0003F0
0003F0
ENDCHAR
STARTCHAR five
ENCODING 53
SWIDTH 791 0
DWIDTH 25 0
BBX 23 24 1 -1
BITMAP
7FFFFC
7FFFFC
7FFFFC
7FFFFC
7C0000
7C0000
7C0000
7C7F80
7FFFF0
7FFFF8
7FFFFC
7F83FE
7E00FE
00007E
00007E
00007E
FC007E
FE007E
FF00FE
7FFFFC
3FFFF8
1FFFF0
07FFE0
001800
ENDCHAR
STARTCHAR six
ENCODING 54
SWIDTH 817 0
DWIDTH 26 0
BBX 24 24 1 -1
BITMAP
00FF80
07FFF0
0FFFFC
1FFFFC
3FC1FE
7F007E
7E003F
7C0000
FC7FC0
FDFFF8
FFFFFC
FFFFFE
FF81FF
FE007F
FE003F
7E003F
7E003F
7E003F
7F00FE
3FFFFE
1FFFFC
0FFFF8
03FFE0
000C00
ENDCHAR
STARTCHAR seven
ENCODING 55
SWIDTH 753 0
DWIDTH 24 0
BBX 23 22 0 0
BITMAP
FFFFFE
FFFFFE
FFFFFE
FFFFFE
00007E
0000FC
0001FC
0001F8
0003F8
0007F0
0007E0
000FE0
000FC0
001FC0
003F80
003F00
007F00
007E00
00FE00
01FC00
01F800
03F800
ENDCHAR
STARTCHAR eight
ENCODING 56
SWIDTH 826 0
DWIDTH 26 0
BBX 24 24 1 -1
BITMAP
03FFC0
1FFFF8
3FFFFC
7FFFFE
7F80FF
7E003F
7C003F
7E003F
7F00FE
3FFFFE
1FFFF8
1FFFFC
7FFFFE
7F80FF
FE007F
FC003F
FC003F
FE003F
FF007F
7FFFFF
7FFFFE
1FFFFC
0FFFF0
001C00
ENDCHAR
STARTCHAR nine
ENCODING 57
SWIDTH 806 0
DWIDTH 26 0
BBX 24 24 1 -1
BITMAP
03FF00
1FFFE0
3FFFF0
7FFFF8
FF03FC
FE00FE
FC007E
FC007E
FC007E
FC007E
FF01FF
7FFFFF
7FFFFF
1FFFBE
07FE3E
00007E
00007E
FC00FE
7E01FC
7FFFF8
3FFFF8
1FFFE0
07FF80
001800
ENDCHAR
STARTCHAR colon
ENCODING 58
SWIDTH 323 0
DWIDTH 10 0
BBX 6 17 2 0
BITMAP
FC
FC
FC
FC
FC
00
00
00
00
00
00
00
FC
FC
FC
FC
FC
ENDCHAR
STARTCHAR semicolon
ENCODING 59
SWIDTH 323 0
DWIDTH 10 0
BBX 6 21 2 -4
BITMAP
FC
FC
FC
FC
FC
00
00
00
00
00
00
00
FC
FC
FC
FC
FC
1C
3C
F8
F0
ENDCHAR
STARTCHAR less
ENCODING 60
SWIDTH 672 0
DWIDTH 22 0
BBX 17 17 2 2
BITMAP
000080
000380
001F80
007F80
03FF00
0FFC00
3FE000
FF8000
FE0000
FF0000
7FE000
1FF800
03FE00
00FF80
003F80
000780
000180
ENDCHAR
STARTCHAR equal
ENCODING 61
SWIDTH 674 0
DWIDTH 22 0
BBX 17 11 2 5
BITMAP
FFFF80
FFFF80
FFFF80
FFFF80
000000
000000
000000
FFFF80
FFFF80
FFFF80
FFFF80
ENDCHAR
STARTCHAR greater
ENCODING 62
SWIDTH 674 0
DWIDTH 22 0
BBX 17 17 2 2
BITMAP
800000
F00000
FC0000
FF8000
7FE000
0FFC00
03FF00
007F80
001F80
007F80
01FF80
07FC00
3FF000
FFC000
FE0000
F80000
C00000
ENDCHAR
STARTCHAR question
ENCODING 63
SWIDTH 711 0
DWIDTH 23 0
BBX 21 23 1 0
BITMAP
03FF00
1FFFC0
3FFFE0
7FFFF0
7F07F8
FC01F8
FC01F8
FC01F8
0003F8
000FF0
003FE0
007FC0
00FF00
00FC00
00F800
00F800
000000
000000
00FC00
00FC00
00FC00
00FC00
00FC00
ENDCHAR
STARTCHAR at
ENCODING 64
SWIDTH 1052 0
DWIDTH 34 0
BBX 31 30 1 -6
BITMAP
000FF800
007FFF00
01FFFFC0
03F00FE0
07C001F0
0F8000F8
1F00003C
3E078F3C
3C1FFE1E
783FFE1E
787C3E0E
78783E0E
70F01E0E
F0F01C0E
F0F01C0E
F0F03C1E
F0F03C1E
F0F07C3C
F0F0F878
70FFFFF8
787FBFE0
781F1F80
3C000000
3E000000
1F0000F0
0F8003E0
07F00FC0
03FFFF80
00FFFE00
001FF000
ENDCHAR
STARTCHAR A
ENCODING 65
SWIDTH 937 0
DWIDTH 30 0
BBX 30 23 0 0
BITMAP
001FE000
001FE000
003FF000
003FF000
007FF800
007CF800
00FCFC00
00F87C00
01F87E00
01F03E00
03F03F00
03E01F00
07E01F80
07C01F80
0FFFFFC0
0FFFFFC0
1FFFFFE0
1FFFFFE0
3F0003F0
3F0003F0
7E0001F8
7E0001F8
FC0001FC
ENDCHAR
STARTCHAR B
ENCODING 66
SWIDTH 870 0
DWIDTH 28 0
BBX 25 23 2 0
BITMAP
FFFFF000
FFFFFC00
FFFFFE00
FFFFFE00
FC007F00
FC003F00
FC003F00
FC003F00
FC007E00
FFFFFE00
FFFFF800
FFFFFE00
FFFFFF00
FC007F00
FC003F00
FC003F80
FC003F80
FC003F80
FC007F00
FFFFFF00
FFFFFF00
FFFFFE00
FFFFF800
ENDCHAR
STARTCHAR C
ENCODING 67
SWIDTH 914 0
DWIDTH 29 0
BBX 27 24 1 -1
BITMAP
007FE000
03FFFC00
07FFFE00
1FFFFF80
3FE07F80
3F801FC0
7F000FE0
7E000FE0
7E000FE0
FE000000
FC000000
FC000000
FC000000
FC000000
FE000FE0
7E000FE0
7F000FE0
7F001FC0
3FC03FC0
1FFFFF80
0FFFFF00
07FFFE00
01FFF800
00060000
ENDCHAR
STARTCHAR D
ENCODING 68
SWIDTH 889 0
DWIDTH 28 0
BBX 25 23 2 0
BITMAP
FFFFC000
FFFFF000
FFFFFC00
FFFFFE00
FC03FF00
FC007F00
FC003F80
FC003F80
FC001F80
FC001F80
FC001F80
FC001F80
FC001F80
FC001F80
FC001F80
FC003F80
FC003F00
FC007F00
FC01FF00
FFFFFE00
FFFFFC00
FFFFF000
FFFF8000
ENDCHAR
STARTCHAR E
ENCODING 69
SWIDTH 795 0
DWIDTH 25 0
BBX 22 23 2 0
BITMAP
FFFFFC
FFFFFC
FFFFFC
FFFFFC
FC0000
FC0000
FC0000
FC0000
FC0000
FFFFF8
FFFFF8
FFFFF8
FFFFF8
FC0000
FC0000
FC0000
FC0000
FC0000
FC0000
FFFFFC
FFFFFC
FFFFFC
FFFFFC
ENDCHAR
STARTCHAR F
ENCODING 70
SWIDTH 777 0
DWIDTH 25 0
BBX 22 23 2 0
BITMAP
FFFFFC
FFFFFC
FFFFFC
FFFFFC
FC0000
FC0000
FC0000
FC0000
FC0000
FC0000
FFFFF8
FFFFF8
FFFFF8
FFFFF8
FC0000
FC0000
FC0000
FC0000
FC0000
FC0000
FC0000
FC0000
FC0000
ENDCHAR
STARTCHAR G
ENCODING 71
SWIDTH 949 0
DWIDTH 30 0
BBX 27 24 1 -1
BITMAP
007FE000
03FFFC00
07FFFF00
1FFFFF80
3FF07FC0
3F801FE0
7F000FE0
7E0007E0
7E000000
FE000000
FC01FFE0
FC01FFE0
FC01FFE0
FC01FFE0
FE0007E0
7E0007E0
7F000FE0
7F800FE0
3FC03FE0
1FFFFFE0
0FFFFFE0
07FFFDE0
00FFF1E0
00020000
ENDCHAR
STARTCHAR H
ENCODING 72
SWIDTH 901 0
DWIDTH 29 0
BBX 25 23 2 0
BITMAP
FC001F80
FC001F80
FC001F80
FC001F80
FC001F80
FC001F80
FC001F80
FC001F80
FC001F80
FFFFFF80
FFFFFF80
FFFFFF80
FFFFFF80
FC001F80
FC001F80
FC001F80
FC001F80
FC001F80
FC001F80
FC001F80
FC001F80
FC001F80
FC001F80
ENDCHAR
STARTCHAR I
ENCODING 73
SWIDTH 594 0
DWIDTH 19 0
BBX 19 23 0 0
BITMAP
FFFFE0
FFFFE0
FFFFE0
FFFFE0
01F000
01F000
01F000
01F000
01F000
01F000
01F000
01F000
01F000
01F000
01F000
01F000
01F000
01F000
01F000
FFFFE0
FFFFE0
FFFFE0
FFFFE0
ENDCHAR
STARTCHAR J
ENCODING 74
SWIDTH 807 0
DWIDTH 26 0
BBX 23 24 1 -1
BITMAP
00007E
00007E
00007E
00007E
00007E
00007E
00007E
00007E
00007E
00007E
00007E
00007E
F8007E
F8007E
F8007E
FC007E
FC007C
FC00FC
7F01FC
7FFFF8
3FFFF0
1FFFE0
07FF80
001000
ENDCHAR
STARTCHAR K
ENCODING 75
SWIDTH 866 0
DWIDTH 28 0
BBX 25 23 2 0
BITMAP
FC007F00
FC01FE00
FC03FC00
FC07F000
FC0FE000
FC1FC000
FC3F8000
FC7F0000
FCFC0000
FFF80000
FFF00000
FFF00000
FFF80000
FDFE0000
FCFF0000
FC7F8000
FC3FC000
FC1FE000
FC07F000
FC03F800
FC01FE00
FC00FF00
FC007F80
ENDCHAR
STARTCHAR L
ENCODING 76
SWIDTH 775 0
DWIDTH 25 0
BBX 22 23 2 0
BITMAP
FC0000
FC0000
FC0000
FC0000
FC0000
FC0000
FC0000
FC0000
FC0000
FC0000
FC0000
FC0000
FC0000
FC0000
FC0000
FC0000
FC0000
FC0000
FC0000
FFFFFC
FFFFFC
FFFFFC
FFFFFC
ENDCHAR
STARTCHAR M
ENCODING 77
SWIDTH 1154 0
DWIDTH 37 0
BBX 33 23 2 0
BITMAP
FFC001FF80
FFE003FF80
FFE003FF80
FFE007FF80
FFF007FF80
F9F007DF80
F9F00FDF80
F8F80F9F80
F8F80F9F80
F8FC1F1F80
F87C1F1F80
F87C1F1F80
F83E3E1F80
F83E3E1F80
F83E7C1F80
F81F7C1F80
F81FFC1F80
F81FF81F80
F80FF81F80
F80FF81F80
F807F01F80
F807F01F80
F807E01F80
ENDCHAR
STARTCHAR N
ENCODING 78
SWIDTH 923 0
DWIDTH 30 0
BBX 25 23 2 0
BITMAP
FF000F80
FF800F80
FF800F80
FFC00F80
FFE00F80
FFF00F80
FFF00F80
F9F80F80
F8FC0F80
F8FC0F80
F87E0F80
F83F0F80
F81F0F80
F81F8F80
F80FCF80
F807EF80
F807FF80
F803FF80
F801FF80
F800FF80
F800FF80
F8007F80
F8003F80
ENDCHAR
STARTCHAR O
ENCODING 79
SWIDTH 951 0
DWIDTH 30 0
BBX 28 24 1 -1
BITMAP
007FE000
03FFFC00
07FFFF00
1FFFFF80
3FF07FC0
3F801FE0
7F000FE0
7E0007F0
7E0003F0
FE0003F0
FC0003F0
FC0003F0
FC0003F0
FC0003F0
FE0003F0
7E0007F0
7F0007E0
7F800FE0
3FC03FC0
1FFFFFC0
0FFFFF00
07FFFE00
00FFF800
00060000
ENDCHAR
STARTCHAR P
ENCODING 80
SWIDTH 844 0
DWIDTH 27 0
BBX 24 23 2 0
BITMAP
FFFFF0
FFFFFC
FFFFFE
FFFFFE
FC007F
FC003F
FC003F
FC003F
FC003F
FC003F
FC007F
FFFFFE
FFFFFE
FFFFFC
FFFFF0
FC0000
FC0000
FC0000
FC0000
FC0000
FC0000
FC0000
FC0000
ENDCHAR
STARTCHAR Q
ENCODING 81
SWIDTH 951 0
DWIDTH 30 0
BBX 30 24 1 -1
BITMAP
007FE000
03FFFC00
07FFFF00
1FFFFF80
3FF07FC0
3F801FE0
7F000FE0
7E0007F0
7E0003F0
FE0003F0
FC0003F0
FC0003F0
FC0003F0
FC0403F0
FE03F3F0
7E01FFF0
7F00FFE0
7F807FE0
3FC03FC0
1FFFFFC0
0FFFFFE0
07FFFFF0
00FFF9FC
00060000
ENDCHAR
STARTCHAR R
ENCODING 82
SWIDTH 875 0
DWIDTH 28 0
BBX 25 23 2 0
BITMAP
FFFFF800
FFFFFE00
FFFFFF00
FFFFFF00
FC007F80
FC003F80
FC001F80
FC001F80
FC003F80
FC003F00
FFFFFE00
FFFFFC00
FFFFF000
FFFFFE00
FC007F00
FC003F00
FC001F00
FC001F00
FC001F00
FC001F00
FC001F00
FC001F00
FC001F00
ENDCHAR
STARTCHAR S
ENCODING 83
SWIDTH 836 0
DWIDTH 27 0
BBX 25 24 1 -1
BITMAP
03FF8000
0FFFF000
3FFFFC00
7FFFFE00
7F81FE00
FE007F00
FE007F00
FE000000
FF000000
7FFE0000
7FFFF800
3FFFFE00
07FFFF00
001FFF00
00007F80
FC003F80
FC003F80
FC003F80
FF007F00
7FFFFF00
7FFFFE00
3FFFFC00
07FFF000
001C0000
ENDCHAR
STARTCHAR T
ENCODING 84
SWIDTH 790 0
DWIDTH 25 0
BBX 24 23 1 0
BITMAP
FFFFFF
FFFFFF
FFFFFF
FFFFFF
007C00
007C00
007C00
007C00
007C00
007C00
007C00
007C00
007C00
007C00
007C00
007C00
007C00
007C00
007C00
007C00
007C00
007C00
007C00
ENDCHAR
STARTCHAR U
ENCODING 85
SWIDTH 897 0
DWIDTH 29 0
BBX 25 24 2 -1
BITMAP
FC001F80
FC001F80
FC001F80
FC001F80
FC001F80
FC001F80
FC001F80
FC001F80
FC001F80
FC001F80
FC001F80
FC001F80
FC001F80
FC001F80
FC001F80
FC001F00
FC003F00
7E003F00
7F00FF00
3FFFFE00
3FFFFC00
0FFFF800
03FFE000
00080000
ENDCHAR
STARTCHAR V
ENCODING 86
SWIDTH 880 0
DWIDTH 28 0
BBX 28 23 0 0
BITMAP
FE0003F0
7E0007E0
7F0007E0
3F000FE0
3F000FC0
1F801FC0
1F801F80
0FC01F80
0FC03F00
0FE03F00
07E07E00
07E07E00
03F0FC00
03F0FC00
01F8F800
01F9F800
00FDF000
00FFF000
007FE000
007FE000
003FE000
003FC000
001FC000
ENDCHAR
STARTCHAR W
ENCODING 87
SWIDTH 1234 0
DWIDTH 39 0
BBX 39 23 0 0
BITMAP
FC00FE007E
7E00FE007E
7E00FF007E
7E00FF00FC
3F01FF00FC
3F01FF80FC
3F01FF81F8
1F03EF81F8
1F83E781F8
1F83C7C1F0
1F87C7C3F0
0F87C3C3F0
0FC7C3E3E0
0FC783E3E0
07CF83E7E0
07EF81F7C0
07FF01FFC0
03FF01FFC0
03FF00FF80
03FF00FF80
01FE00FF80
01FE00FF00
01FE007F00
ENDCHAR
STARTCHAR X
ENCODING 88
SWIDTH 894 0
DWIDTH 29 0
BBX 29 23 0 0
BITMAP
7F000FE0
3F801FC0
1FC03F80
0FE03F00
07F07F00
03F0FE00
01F9FC00
01FFF800
00FFF000
007FE000
003FE000
007FF000
00FFF000
01FFF800
01F9FC00
03F0FE00
07F07E00
0FE07F00
1FC03F80
1FC01FC0
3F800FE0
7F000FE0
FF0007F8
ENDCHAR
STARTCHAR Y
ENCODING 89
SWIDTH 865 0
DWIDTH 28 0
BBX 28 23 0 0
BITMAP
FE000FF0
7F000FE0
3F801FC0
1F803F80
1FC03F00
0FE07F00
07E0FE00
03F0FC00
03F9F800
01FFF800
00FFF000
007FE000
007FC000
003F8000
001F8000
001F8000
001F8000
001F8000
001F8000
001F8000
001F8000
001F8000
001F8000
ENDCHAR
STARTCHAR Z
ENCODING 90
SWIDTH 839 0
DWIDTH 27 0
BBX 24 23 1 0
BITMAP
7FFFFF
7FFFFF
7FFFFF
7FFFFF
0000FF
0003FE
0007FC
000FF8
001FE0
003FC0
007F80
00FF00
01FE00
03FC00
07F800
0FF000
1FE000
3FC000
7F8000
FFFFFF
FFFFFF
FFFFFF
FFFFFF
ENDCHAR
STARTCHAR bracketleft
ENCODING 91
SWIDTH 409 0
DWIDTH 13 0
BBX 10 29 2 -6
BITMAP
FFC0
FFC0
FFC0
FFC0
FC00
FC00
FC00
FC00
FC00
FC00
FC00
FC00
FC00
FC00
FC00
FC00
FC00
FC00
FC00
FC00
FC00
FC00
FC00
FC00
FC00
FFC0
FFC0
FFC0
FFC0
ENDCHAR
STARTCHAR backslash
ENCODING 92
SWIDTH 480 0
DWIDTH 15 0
BBX 14 23 1 0
BITMAP
F800
F800
7800
7C00
3C00
3E00
3E00
1E00
1F00
0F00
0F80
0F80
0780
07C0
03C0
03E0
03E0
01E0
01F0
00F0
00F8
00F8
007C
ENDCHAR
STARTCHAR bracketright
ENCODING 93
SWIDTH 411 0
DWIDTH 13 0
BBX 10 29 1 -6
BITMAP
FFC0
FFC0
FFC0
FFC0
07C0
07C0
07C0
07C0
07C0
07C0
07C0
07C0
07C0
07C0
07C0
07C0
07C0
07C0
07C0
07C0
07C0
07C0
07C0
07C0
07C0
FFC0
FFC0
FFC0
FFC0
ENDCHAR
STARTCHAR asciicircum
ENCODING 94
SWIDTH 560 0
DWIDTH 18 0
BBX 16 11 1 11
BITMAP
03C0
07E0
07E0
0FF0
0E70
1E78
3C38
3C3C
781E
781E
F00F
ENDCHAR
STARTCHAR underscore
ENCODING 95
SWIDTH 746 0
DWIDTH 24 0
BBX 24 2 0 -5
BITMAP
FFFFFF
FFFFFF
ENDCHAR
STARTCHAR grave
ENCODING 96
SWIDTH 457 0
DWIDTH 15 0
BBX 10 5 2 19
BITMAP
FF00
3F80
1F80
0FC0
07C0
ENDCHAR
STARTCHAR a
ENCODING 97
SWIDTH 719 0
DWIDTH 23 0
BBX 21 19 1 -1
BITMAP
002000
07FF80
1FFFE0
3FFFF0
7FFFF0
7E03F0
0003F0
0007F0
0FFFF0
7FFFF0
7FC1F0
FC01F0
FC03F0
FC07F0
FFFFF0
FFFFF0
7FFDF0
3FF1F8
030000
ENDCHAR
STARTCHAR b
ENCODING 98
SWIDTH 766 0
DWIDTH 25 0
BBX 21 24 2 -1
BITMAP
F80000
F80000
F80000
F80000
F80000
F81000
F8FF80
FBFFC0
FFFFE0
FFFFF0
FE03F8
FC01F8
FC01F8
F800F8
F800F8
F800F8
FC01F8
FC01F8
FE03F8
FFFFF0
FFFFE0
FBFFC0
F9FF80
001800
ENDCHAR
STARTCHAR c
ENCODING 99
SWIDTH 747 0
DWIDTH 24 0
BBX 22 19 1 -1
BITMAP
002000
07FF80
1FFFE0
3FFFF0
7FFFF8
7F03F8
FE01FC
FC0000
FC0000
FC0000
FC0000
FC00FC
FE01FC
7F03F8
7FFFF8
3FFFF0
1FFFE0
07FF80
003000
ENDCHAR
STARTCHAR d
ENCODING 100
SWIDTH 767 0
DWIDTH 25 0
BBX 22 24 1 -1
BITMAP
0000FC
0000FC
0000FC
0000FC
0000FC
0040FC
07FCFC
1FFEFC
3FFFFC
7FFFFC
7F03FC
FE01FC
FC00FC
FC00FC
FC00FC
FC00FC
FC00FC
FE01FC
7F03FC
7FFFFC
3FFFFC
1FFFFC
07FCFC
004000
ENDCHAR
STARTCHAR e
ENCODING 101
SWIDTH 748 0
DWIDTH 24 0
BBX 22 19 1 -1
BITMAP
002000
07FF80
1FFFE0
3FFFF0
7FFFF0
7E01F8
FC00F8
FFFFFC
FFFFFC
FFFFFC
FFFFFC
FC0000
FC0004
7E01F8
7FFFF8
3FFFF0
1FFFE0
07FFC0
003000
ENDCHAR
STARTCHAR f
ENCODING 102
SWIDTH 455 0
DWIDTH 15 0
BBX 14 24 0 0
BITMAP
01FC
07FC
0FFC
0FFC
0FC0
1F80
1F80
FFFC
FFFC
FFFC
FFFC
1F80
1F80
1F80
1F80
1F80
1F80
1F80
1F80
1F80
1F80
1F80
1F80
1F80
ENDCHAR
STARTCHAR g
ENCODING 103
SWIDTH 757 0
DWIDTH 24 0
BBX 21 24 1 -6
BITMAP
004000
0FFCF8
1FFEF8
3FFFF8
7FFFF8
7E03F8
FC01F8
FC00F8
FC00F8
FC00F8
FC01F8
7F03F8
7FFFF8
3FFFF8
1FFEF8
07F8F8
0000F8
0000F8
7E01F8
7F83F8
7FFFF8
3FFFF0
1FFFE0
03FF80
ENDCHAR
STARTCHAR h
ENCODING 104
SWIDTH 748 0
DWIDTH 24 0
BBX 20 23 2 0
BITMAP
F80000
F80000
F80000
F80000
F80000
F80800
F8FF80
FBFFC0
FFFFE0
FFFFF0
FE07F0
FC03F0
FC01F0
F801F0
F801F0
F801F0
F801F0
F801F0
F801F0
F801F0
F801F0
F801F0
F801F0
ENDCHAR
STARTCHAR i
ENCODING 105
SWIDTH 287 0
DWIDTH 9 0
BBX 5 24 2 0
BITMAP
F8
F8
F8
F8
00
00
00
F8
F8
F8
F8
F8
F8
F8
F8
F8
F8
F8
F8
F8
F8
F8
F8
F8
ENDCHAR
STARTCHAR j
ENCODING 106
SWIDTH 287 0
DWIDTH 9 0
BBX 9 30 -2 -6
BITMAP
0F80
0F80
0F80
0F80
0000
0000
0000
0F80
0F80
0F80
0F80
0F80
0F80
0F80
0F80
0F80
0F80
0F80
0F80
0F80
0F80
0F80
0F80
0F80
0F80
1F80
FF80
FF80
FF80
FE00
ENDCHAR
STARTCHAR k
ENCODING 107
SWIDTH 689 0
DWIDTH 22 0
BBX 20 23 2 0
BITMAP
F80000
F80000
F80000
F80000
F80000
F80000
F80FE0
F81FC0
F83F00
F87E00
F8FC00
FBF800
FFF000
FFE000
FFE000
FFF000
F9F800
F8FC00
F87E00
F83F00
F81F80
F80FC0
F80FF0
ENDCHAR
STARTCHAR l
ENCODING 108
SWIDTH 287 0
DWIDTH 9 0
BBX 5 23 2 0
BITMAP
F8
F8
F8
F8
F8
F8
F8
F8
F8
F8
F8
F8
F8
F8
F8
F8
F8
F8
F8
F8
F8
F8
F8
ENDCHAR
STARTCHAR m
ENCODING 109
SWIDTH 1148 0
DWIDTH 37 0
BBX 33 18 2 0
BITMAP
0008004000
F9FF87FC00
FBFFDFFE00
FFFFFFFF00
FFFFFFFF80
FE07F83F80
FC07F01F80
F803E01F80
F803E01F80
F803E01F80
F803E01F80
F803E01F80
F803E01F80
F803E01F80
F803E01F80
F803E01F80
F803E01F80
F803E01F80
ENDCHAR
STARTCHAR n
ENCODING 110
SWIDTH 748 0
DWIDTH 24 0
BBX 20 18 2 0
BITMAP
000800
F8FF80
FBFFC0
FFFFE0
FFFFF0
FE07F0
FC03F0
FC01F0
F801F0
F801F0
F801F0
F801F0
F801F0
F801F0
F801F0
F801F0
F801F0
F801F0
ENDCHAR
STARTCHAR o
ENCODING 111
SWIDTH 755 0
DWIDTH 24 0
BBX 22 19 1 -1
BITMAP
001000
07FF80
1FFFE0
3FFFF0
7FFFF8
7F03F8
FE00FC
FC00FC
FC00FC
FC00FC
FC00FC
FC00FC
FE00FC
7F03F8
7FFFF8
3FFFF0
1FFFE0
07FF80
003000
ENDCHAR
STARTCHAR p
ENCODING 112
SWIDTH 766 0
DWIDTH 25 0
BBX 21 24 2 -6
BITMAP
001000
F8FF80
FBFFC0
FFFFE0
FFFFF0
FE03F8
FC01F8
FC01F8
F800F8
F800F8
F800F8
FC01F8
FC01F8
FE03F8
FFFFF0
FFFFE0
FBFFC0
F8FF80
F81800
F80000
F80000
F80000
F80000
F80000
ENDCHAR
STARTCHAR q
ENCODING 113
SWIDTH 767 0
DWIDTH 25 0
BBX 22 24 1 -6
BITMAP
004000
07FCFC
1FFEFC
3FFFFC
7FFFFC
7F03FC
FE01FC
FC00FC
FC00FC
FC00FC
FC00FC
FC00FC
FE01FC
7F03FC
7FFFFC
3FFFFC
1FFFFC
07FCFC
0040FC
0000FC
0000FC
0000FC
0000FC
0000FC
ENDCHAR
STARTCHAR r
ENCODING 114
SWIDTH 534 0
DWIDTH 17 0
BBX 14 18 2 0
BITMAP
0008
F8FC
FBFC
FFFC
FFFC
FFFC
FE00
FC00
FC00
F800
F800
F800
F800
F800
F800
F800
F800
F800
ENDCHAR
STARTCHAR s
ENCODING 115
SWIDTH 706 0
DWIDTH 23 0
BBX 21 19 1 -1
BITMAP
004000
1FFF00
3FFFC0
7FFFE0
FFFFE0
FC03F0
FC03F0
7F8000
7FFF80
1FFFE0
01FFF0
0003F0
FC01F8
FC03F8
FFFFF0
7FFFF0
7FFFE0
1FFF80
006000
ENDCHAR
STARTCHAR t
ENCODING 116
SWIDTH 457 0
DWIDTH 15 0
BBX 13 23 0 0
BITMAP
1F80
1F80
1F80
1F80
1F80
1F80
FFF8
FFF8
FFF8
FFF8
1F80
1F80
1F80
1F80
1F80
1F80
1F80
1F80
1F80
1FF8
0FF8
0FF8
03F8
ENDCHAR
STARTCHAR u
ENCODING 117
SWIDTH 748 0
DWIDTH 24 0
BBX 20 18 2 -1
BITMAP
F801F0
F801F0
F801F0
F801F0
F801F0
F801F0
F801F0
F801F0
F801F0
F801F0
F803F0
FC03F0
FE07F0
FFFFF0
7FFFF0
7FFDF0
1FF1F0
010000
ENDCHAR
STARTCHAR v
ENCODING 118
SWIDTH 722 0
DWIDTH 23 0
BBX 23 17 0 0
BITMAP
FE00FE
7E00FC
7E00FC
3F01F8
3F01F8
1F83F0
1F83F0
0FC7E0
0FC7E0
07E7C0
07EFC0
03FF80
03FF80
01FF80
01FF00
00FF00
00FE00
ENDCHAR
STARTCHAR w
ENCODING 119
SWIDTH 1126 0
DWIDTH 36 0
BBX 36 17 0 0
BITMAP
FC01F803F0
7E03FC07E0
7E03FC07E0
3F03FE07C0
3F07FE0FC0
3F07FE0FC0
1F879F0F80
1F8F9F1F80
0F8F9F1F00
0FDF0F9F00
0FDF0FBF00
07FF0FFE00
07FE07FE00
03FE07FC00
03FE03FC00
03FC03FC00
01FC03F800
ENDCHAR
STARTCHAR x
ENCODING 120
SWIDTH 759 0
DWIDTH 24 0
BBX 24 17 0 0
BITMAP
7F00FE
3F81FC
1FC3F8
0FE3F0
07E7E0
03FFC0
01FF80
00FF80
00FF80
01FFC0
03FFC0
07E7E0
0FE3F0
1FC3F8
3F81FC
3F00FE
FF007F
ENDCHAR
STARTCHAR y
ENCODING 121
SWIDTH 722 0
DWIDTH 23 0
BBX 23 23 0 -6
BITMAP
FE00FE
7E00FC
7E00FC
3F01F8
3F01F8
1F83F0
1F83F0
0FC7E0
0FC7E0
07E7C0
07EFC0
03EF80
03FF80
01FF00
01FF00
00FE00
00FE00
00FC00
01FC00
3FF800
3FF000
3FE000
3FC000
ENDCHAR
STARTCHAR z
ENCODING 122
SWIDTH 679 0
DWIDTH 22 0
BBX 19 17 1 0
BITMAP
7FFFE0
7FFFE0
7FFFE0
7FFFE0
001FE0
003FC0
00FF80
01FE00
03FC00
0FF800
1FE000
3FC000
FF0000
FFFFE0
FFFFE0
FFFFE0
FFFFE0
ENDCHAR
STARTCHAR braceleft
ENCODING 123
SWIDTH 428 0
DWIDTH 14 0
BBX 12 29 1 -6
BITMAP
07F0
0FF0
1FF0
1FF0
1F80
1F00
1F00
1F00
1F00
1F00
1F00
3F00
FF00
FE00
FC00
FF00
3F00
1F00
1F00
1F00
1F00
1F00
1F00
1F00
1F80
1FF0
1FF0
0FF0
07F0
ENDCHAR
STARTCHAR bar
ENCODING 124
SWIDTH 296 0
DWIDTH 9 0
BBX 5 33 2 -7
BITMAP
F8
F8
F8
F8
F8
F8
F8
F8
F8
F8
F8
F8
F8
F8
F8
F8
F8
F8
F8
F8
F8
F8
F8
F8
F8
F8
F8
F8
F8
F8
F8
F8
F8
ENDCHAR
STARTCHAR braceright
ENCODING 125
SWIDTH 426 0
DWIDTH 14 0
BBX 12 29 1 -6
BITMAP
FE00
FF00
FF80
FF80
1F80
1F80
1F80
1F80
1F80
1F80
1F80
0FC0
0FF0
07F0
03F0
0FF0
0FC0
1F80
1F80
1F80
1F80
1F80
1F80
1F80
1F80
FF80
FF80
FF00
FE00
ENDCHAR
STARTCHAR asciitilde
ENCODING 126
SWIDTH 674 0
DWIDTH 22 0
BBX 17 7 2 7
BITMAP
3E0000
7F8080
FFE180
FFFF80
E3FF80
80FF80
801E00
ENDCHAR
STARTCHAR uni00A0
ENCODING 160
SWIDTH 338 0
DWIDTH 11 0
BBX 1 1 0 0
BITMAP
00
ENDCHAR
STARTCHAR exclamdown
ENCODING 161
SWIDTH 324 0
DWIDTH 10 0
BBX 6 23 2 -6
BITMAP
FC
FC
FC
FC
FC
00
00
00
78
78
7C
7C
7C
7C
FC
FC
FC
FC
FC
FC
FC
FC
FC
ENDCHAR
STARTCHAR cent
ENCODING 162
SWIDTH 747 0
DWIDTH 24 0
BBX 22 25 1 -4
BITMAP
003000
003000
003000
003000
07FFC0
1FFFE0
3FFFF0
7FFFF8
7F31F8
FE31FC
FC30FC
FC3000
FC3000
FC3000
FC30FC
FC31FC
7E31F8
7FFFF8
3FFFF0
1FFFE0
07FFC0
007800
003000
003000
003000
ENDCHAR
STARTCHAR sterling
ENCODING 163
SWIDTH 773 0
DWIDTH 25 0
BBX 22 24 1 -1
BITMAP
01FF00
07FFC0
1FFFF0
1FFFF8
3FC3F8
3F01FC
3F00FC
3F00FC
3F0000
1F0000
1F8000
0FC000
FFFF80
FFFF80
03F000
1DF000
7FF000
7FF004
F3FC04
E1FFFC
F3FFFC
7FDFFC
3F87FC
040060
ENDCHAR
STARTCHAR currency
ENCODING 164
SWIDTH 671 0
DWIDTH 21 0
BBX 18 16 2 4
BITMAP
63F380
FFFFC0
7FFF80
7E1F00
780F80
F80780
F00780
F00780
F00780
F00780
F80780
780F80
7E1F00
7FFF80
FFFFC0
67F380
ENDCHAR
STARTCHAR yen
ENCODING 165
SWIDTH 827 0
DWIDTH 26 0
BBX 26 23 0 0
BITMAP
FE000FC0
7F001F80
3F003F80
3F803F00
1F807E00
0FC0FE00
0FE0FC00
07E1F800
03F3F800
03FBF000
1FFFFE00
1FFFFE00
007FC000
007F8000
1FFFFE00
1FFFFE00
003F0000
003F0000
003F0000
003F0000
003F0000
003F0000
003F0000
ENDCHAR
STARTCHAR brokenbar
ENCODING 166
SWIDTH 296 0
DWIDTH 9 0
BBX 5 33 2 -7
BITMAP
F8
F8
F8
F8
F8
F8
F8
F8
F8
F8
F8
F8
F8
F8
00
00
00
00
00
F8
F8
F8
F8
F8
F8
F8
F8
F8
F8
F8
F8
F8
F8
ENDCHAR
STARTCHAR section
ENCODING 167
SWIDTH 869 0
DWIDTH 28 0
BBX 26 29 1 -6
BITMAP
00FF8000
07FFF000
0FFFF800
1FFFFC00
1FC1FC00
1F807C00
1F007E00
1F800000
1FF00000
3FFF8000
7FFFF800
F9FFFF00
F81FFF80
F800FFC0
FE000FC0
FFE007C0
7FFF07C0
1FFFFFC0
03FFFF80
003FFF00
0001FE00
00007F00
3F003F00
3F003F00
3FC0FE00
1FFFFE00
0FFFFC00
07FFF800
00FFC000
ENDCHAR
STARTCHAR dieresis
ENCODING 168
SWIDTH 567 0
DWIDTH 18 0
BBX 14 4 2 20
BITMAP
F87C
F87C
F87C
F87C
ENDCHAR
STARTCHAR copyright
ENCODING 169
SWIDTH 850 0
DWIDTH 27 0
BBX 25 24 1 0
BITMAP
007F0000
01FFE000
0780F000
0E003800
1C001C00
383F0E00
30FF8700
61FFC300
61C1E300
E3C0E180
C3800180
C3800180
C3800180
C3800180
E3C0E180
61C1E300
61FFC300
30FF8700
383F0E00
1C001C00
0E003800
0780F000
01FFE000
007F0000
ENDCHAR
STARTCHAR ordfeminine
ENCODING 170
SWIDTH 486 0
DWIDTH 16 0
BBX 14 23 1 0
BITMAP
1FE0
3FF8
7FF8
7878
00F8
3FF8
7F78
F078
F0F8
FFF8
7FF8
3E00
0000
0000
0000
0000
0000
0000
0000
0000
FFFC
FFFC
FFFC
ENDCHAR
STARTCHAR guillemotleft
ENCODING 171
SWIDTH 516 0
DWIDTH 17 0
BBX 14 15 1 1
BITMAP
0604
0E0C
1E3C
7E7C
FEFC
F8F8
F0F0
E0E0
F8F0
FCF8
7EFC
3E3C
1E1C
060C
0204
ENDCHAR
STARTCHAR logicalnot
ENCODING 172
SWIDTH 674 0
DWIDTH 22 0
BBX 17 9 2 5
BITMAP
FFFF80
FFFF80
FFFF80
FFFF80
000780
000780
000780
000780
000780
ENDCHAR
STARTCHAR registered
ENCODING 174
SWIDTH 850 0
DWIDTH 27 0
BBX 25 24 1 0
BITMAP
007F0000
01FFE000
0780F000
0E003800
1C001C00
39FF0E00
31FFC700
61C3C300
61C1E300
E1C1E180
C1C1E180
C1C3C180
C1FFC180
C1FF0180
E1C70180
61C78300
61C3C300
31C1C700
39C1EE00
1C001C00
0E003800
0780F000
01FFE000
007F0000
ENDCHAR
STARTCHAR macron
ENCODING 175
SWIDTH 562 0
DWIDTH 18 0
BBX 14 3 2 20
BITMAP
FFFC
FFFC
FFFC
ENDCHAR
STARTCHAR degree
ENCODING 176
SWIDTH 357 0
DWIDTH 11 0
BBX 10 10 1 13
BITMAP
3E00
7F00
E380
C180
C1C0
C1C0
C180
E380
7F00
3E00
ENDCHAR
STARTCHAR plusminus
ENCODING 177
SWIDTH 674 0
DWIDTH 22 0
BBX 17 19 2 0
BITMAP
01E000
01E000
01E000
01E000
01E000
FFFF80
FFFF80
FFFF80
FFFF80
01E000
01E000
01E000
01E000
01E000
000000
FFFF80
FFFF80
FFFF80
FFFF80
ENDCHAR
STARTCHAR uni00B2
ENCODING 178
SWIDTH 499 0
DWIDTH 16 0
BBX 14 13 1 10
BITMAP
1FE0
7FF8
FFFC
F87C
F03C
0078
03F8
0FE0
3F00
7800
FFFC
FFFC
FFFC
ENDCHAR
STARTCHAR uni00B3
ENCODING 179
SWIDTH 490 0
DWIDTH 16 0
BBX 15 13 0 10
BITMAP
1FF0
3FFC
7FFC
781E
03FC
03FC
03F8
003E
F01E
F81E
7FFE
3FFC
1FF0
ENDCHAR
STARTCHAR acute
ENCODING 180
SWIDTH 457 0
DWIDTH 15 0
BBX 10 5 2 19
BITMAP
1FC0
3F80
7F00
7E00
F800
ENDCHAR
STARTCHAR paragraph
ENCODING 182
SWIDTH 715 0
DWIDTH 23 0
BBX 20 29 1 -6
BITMAP
07FFF0
1FFFF0
7FFFF0
7FF8F0
FFF8F0
FFF8F0
FFF8F0
FFF8F0
FFF8F0
FFF8F0
7FF8F0
7FF8F0
3FF8F0
0FF8F0
0078F0
0078F0
0078F0
0078F0
0078F0
0078F0
0078F0
0078F0
0078F0
0078F0
0078F0
0078F0
0078F0
0078F0
0078F0
ENDCHAR
STARTCHAR periodcentered
ENCODING 183
SWIDTH 289 0
DWIDTH 9 0
BBX 7 7 1 7
BITMAP
3C
7E
FE
FE
FE
7E
38
ENDCHAR
STARTCHAR cedilla
ENCODING 184
SWIDTH 453 0
DWIDTH 15 0
BBX 10 9 2 -8
BITMAP
0E00
1C00
3F00
3FC0
43C0
03C0
C7C0
FFC0
FF00
ENDCHAR
STARTCHAR uni00B9
ENCODING 185
SWIDTH 332 0
DWIDTH 11 0
BBX 10 13 1 10
BITMAP
0E00
1E00
FE00
FE00
FE00
0E00
0E00
0E00
0E00
0E00
FFC0
FFC0
FFC0
ENDCHAR
STARTCHAR ordmasculine
ENCODING 186
SWIDTH 486 0
DWIDTH 16 0
BBX 14 23 1 0
BITMAP
1FC0
7FF0
7FF8
F878
F03C
F03C
F03C
F878
7FF8
7FF0
1FC0
0000
0000
0000
0000
0000
0000
0000
0000
0000
FFFC
FFFC
FFFC
ENDCHAR
STARTCHAR guillemotright
ENCODING 187
SWIDTH 513 0
DWIDTH 16 0
BBX 14 15 1 1
BITMAP
C080
E0C0
F0F0
F8F8
FEFC
3E7C
1E1C
0E1C
3E3C
7E7C
FCFC
F8F0
F0E0
C0C0
8080
ENDCHAR
STARTCHAR questiondown
ENCODING 191
SWIDTH 710 0
DWIDTH 23 0
BBX 21 23 1 -6
BITMAP
01F800
01F800
01F800
01F800
01F800
000000
000000
01F800
01F800
01F800
07F000
1FF000
3FC000
7F8000
FE0000
FC01F8
FC01F8
FC03F8
FF0FF0
FFFFF0
7FFFE0
1FFF80
07FE00
ENDCHAR
STARTCHAR Agrave
ENCODING 192
SWIDTH 937 0
DWIDTH 30 0
BBX 30 30 0 0
BITMAP
01FE0000
00FE0000
007F0000
001F0000
000F8000
00000000
00000000
001FE000
001FE000
003FF000
003FF000
007FF800
007CF800
00FCFC00
00F87C00
01F87E00
01F03E00
03F03F00
03E01F00
07E01F80
07C01F80
0FFFFFC0
0FFFFFC0
1FFFFFE0
1FFFFFE0
3F0003F0
3F0003F0
7E0001F8
7E0001F8
FC0001FC
ENDCHAR
STARTCHAR Aacute
ENCODING 193
SWIDTH 937 0
DWIDTH 30 0
BBX 30 30 0 0
BITMAP
0001FE00
0003F800
0003F000
0007E000
000F8000
00000000
00000000
001FE000
001FE000
003FF000
003FF000
007FF800
007CF800
00FCFC00
00F87C00
01F87E00
01F03E00
03F03F00
03E01F00
07E01F80
07C01F80
0FFFFFC0
0FFFFFC0
1FFFFFE0
1FFFFFE0
3F0003F0
3F0003F0
7E0001F8
7E0001F8
FC0001FC
ENDCHAR
STARTCHAR Acircumflex
ENCODING 194
SWIDTH 937 0
DWIDTH 30 0
BBX 30 30 0 0
BITMAP
001FE000
003FF000
007FF800
00FCF800
01F8FE00
00000000
00000000
001FE000
001FE000
003FF000
003FF000
007FF800
007CF800
00FCFC00
00F87C00
01F87E00
01F03E00
03F03F00
03E01F00
07E01F80
07C01F80
0FFFFFC0
0FFFFFC0
1FFFFFE0
1FFFFFE0
3F0003F0
3F0003F0
7E0001F8
7E0001F8
FC0001FC
ENDCHAR
STARTCHAR Atilde
ENCODING 195
SWIDTH 937 0
DWIDTH 30 0
BBX 30 30 0 0
BITMAP
007C3C00
00FF3C00
01FFFC00
01FFF800
01E7F800
01E0F000
00000000
001FE000
001FE000
003FF000
003FF000
007FF800
007CF800
00FCFC00
00F87C00
01F87E00
01F03E00
03F03F00
03E01F00
07E01F80
07C01F80
0FFFFFC0
0FFFFFC0
1FFFFFE0
1FFFFFE0
3F0003F0
3F0003F0
7E0001F8
7E0001F8
FC0001FC
ENDCHAR
STARTCHAR Adieresis
ENCODING 196
SWIDTH 937 0
DWIDTH 30 0
BBX 30 29 0 0
BITMAP
00F8F800
00F8F800
00F8F800
00F8F800
00000000
00000000
001FE000
001FE000
003FF000
003FF000
007FF800
007CF800
00FCFC00
00F87C00
01F87E00
01F03E00
03F03F00
03E01F00
07E01F80
07C01F80
0FFFFFC0
0FFFFFC0
1FFFFFE0
1FFFFFE0
3F0003F0
3F0003F0
7E0001F8
7E0001F8
FC0001FC
ENDCHAR
STARTCHAR Aring
ENCODING 197
SWIDTH 937 0
DWIDTH 30 0
BBX 30 32 0 0
BITMAP
000F8000
003FE000
003FE000
0078F000
0078F000
003FE000
003FE000
000F8000
00000000
001FE000
001FE000
003FF000
003FF000
007FF800
007CF800
00FCFC00
00F87C00
01F87E00
01F03E00
03F03F00
03E01F00
07E01F80
07C01F80
0FFFFFC0
0FFFFFC0
1FFFFFE0
1FFFFFE0
3F0003F0
3F0003F0
7E0001F8
7E0001F8
FC0001FC
ENDCHAR
STARTCHAR AE
ENCODING 198
SWIDTH 1365 0
DWIDTH 44 0
BBX 42 23 0 0
BITMAP
0000FFFFFFC0
0001FFFFFFC0
0003FFFFFFC0
0003FFFFFFC0
0007E3E00000
000FC3E00000
001FC3E00000
001F83E00000
003F03E00000
007F03FFFF80
007E03FFFF80
00FC03FFFF80
01FC03FFFF80
01F803E00000
03FFFFE00000
07FFFFE00000
0FFFFFE00000
0FFFFFE00000
1F8003E00000
3F8003FFFFC0
3F0003FFFFC0
7F0003FFFFC0
FE0003FFFFC0
ENDCHAR
STARTCHAR Ccedilla
ENCODING 199
SWIDTH 914 0
DWIDTH 29 0
BBX 27 31 1 -8
BITMAP
007FE000
03FFFC00
07FFFE00
1FFFFF80
1FE07F80
3F801FC0
7F000FE0
7E000FE0
7E000FE0
FE000000
FC000000
FC000000
FC000000
FC000000
FE000FE0
7E000FE0
7F000FE0
7F001FC0
3FC03FC0
1FFFFF80
0FFFFF00
07FFFE00
01FFF800
000F0000
000F0000
001FE000
001FF000
0000F000
0021F000
003FE000
003FC000
ENDCHAR
STARTCHAR Egrave
ENCODING 200
SWIDTH 795 0
DWIDTH 25 0
BBX 22 30 2 0
BITMAP
1FE000
07E000
03F000
01F000
00F800
000000
000000
FFFFFC
FFFFFC
FFFFFC
FFFFFC
FC0000
FC0000
FC0000
FC0000
FC0000
FFFFF8
FFFFF8
FFFFF8
FFFFF8
FC0000
FC0000
FC0000
FC0000
FC0000
FC0000
FFFFFC
FFFFFC
FFFFFC
FFFFFC
ENDCHAR
STARTCHAR Eacute
ENCODING 201
SWIDTH 795 0
DWIDTH 25 0
BBX 22 30 2 0
BITMAP
001FE0
003F80
003F00
007E00
007C00
000000
000000
FFFFFC
FFFFFC
FFFFFC
FFFFFC
FC0000
FC0000
FC0000
FC0000
FC0000
FFFFF8
FFFFF8
FFFFF8
FFFFF8
FC0000
FC0000
FC0000
FC0000
FC0000
FC0000
FFFFFC
FFFFFC
FFFFFC
FFFFFC
ENDCHAR
STARTCHAR Ecircumflex
ENCODING 202
SWIDTH 795 0
DWIDTH 25 0
BBX 22 30 2 0
BITMAP
01FE00
03FF00
07FF80
0FCFC0
1F87E0
000000
000000
FFFFFC
FFFFFC
FFFFFC
FFFFFC
FC0000
FC0000
FC0000
FC0000
FC0000
FFFFF8
FFFFF8
FFFFF8
FFFFF8
FC0000
FC0000
FC0000
FC0000
FC0000
FC0000
FFFFFC
FFFFFC
FFFFFC
FFFFFC
ENDCHAR
STARTCHAR Edieresis
ENCODING 203
SWIDTH 795 0
DWIDTH 25 0
BBX 22 29 2 0
BITMAP
0F8FC0
0F8FC0
0F8FC0
0F8FC0
000000
000000
FFFFFC
FFFFFC
FFFFFC
FFFFFC
FC0000
FC0000
FC0000
FC0000
FC0000
FFFFF8
FFFFF8
FFFFF8
FFFFF8
FC0000
FC0000
FC0000
FC0000
FC0000
FC0000
FFFFFC
FFFFFC
FFFFFC
FFFFFC
ENDCHAR
STARTCHAR Igrave
ENCODING 204
SWIDTH 594 0
DWIDTH 19 0
BBX 19 30 0 0
BITMAP
3FC000
1FC000
0FE000
03E000
01F000
000000
000000
FFFFE0
FFFFE0
FFFFE0
FFFFE0
01F000
01F000
01F000
01F000
01F000
01F000
01F000
01F000
01F000
01F000
01F000
01F000
01F000
01F000
01F000
FFFFE0
FFFFE0
FFFFE0
FFFFE0
ENDCHAR
STARTCHAR Iacute
ENCODING 205
SWIDTH 594 0
DWIDTH 19 0
BBX 19 30 0 0
BITMAP
003FC0
007F00
007E00
00FC00
01F800
000000
000000
FFFFE0
FFFFE0
FFFFE0
FFFFE0
01F000
01F000
01F000
01F000
01F000
01F000
01F000
01F000
01F000
01F000
01F000
01F000
01F000
01F000
01F000
FFFFE0
FFFFE0
FFFFE0
FFFFE0
ENDCHAR
STARTCHAR Icircumflex
ENCODING 206
SWIDTH 594 0
DWIDTH 19 0
BBX 19 30 0 0
BITMAP
03FC00
07FE00
0FFF00
1F9F00
3F1FC0
000000
000000
FFFFE0
FFFFE0
FFFFE0
FFFFE0
01F000
01F000
01F000
01F000
01F000
01F000
01F000
01F000
01F000
01F000
01F000
01F000
01F000
01F000
01F000
FFFFE0
FFFFE0
FFFFE0
FFFFE0
ENDCHAR
STARTCHAR Idieresis
ENCODING 207
SWIDTH 594 0
DWIDTH 19 0
BBX 19 29 0 0
BITMAP
1F1F00
1F1F00
1F1F00
1F1F00
000000
000000
FFFFE0
FFFFE0
FFFFE0
FFFFE0
01F000
01F000
01F000
01F000
01F000
01F000
01F000
01F000
01F000
01F000
01F000
01F000
01F000
01F000
01F000
FFFFE0
FFFFE0
FFFFE0
FFFFE0
ENDCHAR
STARTCHAR Eth
ENCODING 208
SWIDTH 903 0
DWIDTH 29 0
BBX 28 23 0 0
BITMAP
1FFFF000
1FFFFE00
1FFFFF00
1FFFFF80
1F007FC0
1F001FE0
1F000FE0
1F0007E0
1F0007E0
1F0007F0
FFFC03F0
FFFC03F0
FFFC03F0
FFFC07F0
1F0007E0
1F0007E0
1F000FE0
1F001FE0
1F007FC0
1FFFFF80
1FFFFF00
1FFFFE00
1FFFF000
ENDCHAR
STARTCHAR Ntilde
ENCODING 209
SWIDTH 923 0
DWIDTH 30 0
BBX 25 30 2 0
BITMAP
01F0F000
03FCF000
07FFF000
07FFE000
079FE000
0787C000
00000000
FF000F80
FF800F80
FF800F80
FFC00F80
FFE00F80
FFF00F80
FFF00F80
F9F80F80
F8FC0F80
F8FC0F80
F87E0F80
F83F0F80
F81F0F80
F81F8F80
F80FCF80
F807EF80
F807FF80
F803FF80
F801FF80
F800FF80
F800FF80
F8007F80
F8003F80
ENDCHAR
STARTCHAR Ograve
ENCODING 210
SWIDTH 951 0
DWIDTH 30 0
BBX 28 31 1 -1
BITMAP
03FC0000
00FE0000
007E0000
003F0000
001F8000
00000000
00000000
007FE000
03FFFC00
07FFFF00
1FFFFF80
3FF07FC0
3F801FE0
7F000FE0
7E0007F0
7E0003F0
FE0003F0
FC0003F0
FC0003F0
FC0003F0
FC0003F0
FE0003F0
7E0007F0
7F0007E0
7F800FE0
3FC03FC0
1FFFFFC0
0FFFFF00
07FFFE00
00FFF800
00060000
ENDCHAR
STARTCHAR Oacute
ENCODING 211
SWIDTH 951 0
DWIDTH 30 0
BBX 28 31 1 -1
BITMAP
0003FC00
0003F800
0007E000
0007C000
000F8000
00000000
00000000
007FE000
03FFFC00
07FFFF00
1FFFFF80
3FF07FC0
3F801FE0
7F000FE0
7E0007F0
7E0003F0
FE0003F0
FC0003F0
FC0003F0
FC0003F0
FC0003F0
FE0003F0
7E0007F0
7F0007E0
7F800FE0
3FC03FC0
1FFFFFC0
0FFFFF00
07FFFE00
00FFF800
00060000
ENDCHAR
STARTCHAR Ocircumflex
ENCODING 212
SWIDTH 951 0
DWIDTH 30 0
BBX 28 31 1 -1
BITMAP
003FC000
007FE000
00FFF000
00F9F800
03F8FC00
00000000
00000000
007FE000
03FFFC00
07FFFF00
1FFFFF80
3FF07FC0
3F801FE0
7F000FE0
7E0007F0
7E0003F0
FE0003F0
FC0003F0
FC0003F0
FC0003F0
FC0003F0
FE0003F0
7E0007F0
7F0007E0
7F800FE0
3FC03FC0
1FFFFFC0
0FFFFF00
07FFFE00
00FFF800
00060000
ENDCHAR
STARTCHAR Otilde
ENCODING 213
SWIDTH 951 0
DWIDTH 30 0
BBX 28 31 1 -1
BITMAP
007C3C00
00FF3C00
01FFFC00
01FFF800
01E7F800
01C1E000
00000000
007FE000
03FFFC00
07FFFF00
1FFFFF80
3FF07FC0
3F801FE0
7F000FE0
7E0007F0
7E0003F0
FE0003F0
FC0003F0
FC0003F0
FC0003F0
FC0003F0
FE0003F0
7E0007F0
7F0007E0
7F800FE0
3FC03FC0
1FFFFFC0
0FFFFF00
07FFFE00
00FFF800
00060000
ENDCHAR
STARTCHAR Odieresis
ENCODING 214
SWIDTH 951 0
DWIDTH 30 0
BBX 28 30 1 -1
BITMAP
01F8F800
01F8F800
01F8F800
01F8F800
00000000
00000000
007FE000
03FFFC00
07FFFF00
1FFFFF80
3FF07FC0
3F801FE0
7F000FE0
7E0007F0
7E0003F0
FE0003F0
FC0003F0
FC0003F0
FC0003F0
FC0003F0
FE0003F0
7E0007F0
7F0007E0
7F800FE0
3FC03FC0
1FFFFFC0
0FFFFF00
07FFFE00
00FFF800
00060000
ENDCHAR
STARTCHAR multiply
ENCODING 215
SWIDTH 645 0
DWIDTH 21 0
BBX 16 16 2 2
BITMAP
3004
780E
FC1F
3E3E
1F7C
0FF8
07F0
03E0
07F0
0FF8
1F7C
3E3E
FC3F
781F
300E
1004
ENDCHAR
STARTCHAR Oslash
ENCODING 216
SWIDTH 951 0
DWIDTH 30 0
BBX 28 25 1 -1
BITMAP
00000040
003FE060
03FFFDF0
07FFFFC0
1FFFFF80
1FF07FC0
3F801FE0
7F003FE0
7E007FF0
7E00F7F0
FE01E3F0
FC03C3F0
FC0783F0
FC1F03F0
FC3C03F0
FE7803F0
7EF007F0
7FE007E0
7FC00FE0
3FC03FC0
1FFFFFC0
1FFFFF00
3FFFFE00
F1FFF800
20060000
ENDCHAR
STARTCHAR Ugrave
ENCODING 217
SWIDTH 897 0
DWIDTH 29 0
BBX 25 31 2 -1
BITMAP
0FF00000
03F80000
01F80000
00FC0000
007E0000
00000000
00000000
FC001F80
FC001F80
FC001F80
FC001F80
FC001F80
FC001F80
FC001F80
FC001F80
FC001F80
FC001F80
FC001F80
FC001F80
FC001F80
FC001F80
FC001F80
FC001F00
FC003F00
7E003F00
7F00FF00
3FFFFE00
3FFFFC00
0FFFF800
03FFE000
00080000
ENDCHAR
STARTCHAR Uacute
ENCODING 218
SWIDTH 897 0
DWIDTH 29 0
BBX 25 31 2 -1
BITMAP
000FF000
000FE000
001FC000
001F0000
003E0000
00000000
00000000
FC001F80
FC001F80
FC001F80
FC001F80
FC001F80
FC001F80
FC001F80
FC001F80
FC001F80
FC001F80
FC001F80
FC001F80
FC001F80
FC001F80
FC001F80
FC001F00
FC003F00
7E003F00
7F00FF00
3FFFFE00
3FFFFC00
0FFFF800
03FFE000
00080000
ENDCHAR
STARTCHAR Ucircumflex
ENCODING 219
SWIDTH 897 0
DWIDTH 29 0
BBX 25 31 2 -1
BITMAP
00FF8000
01FF8000
01FFC000
03F7E000
0FE3F800
00000000
00000000
FC001F80
FC001F80
FC001F80
FC001F80
FC001F80
FC001F80
FC001F80
FC001F80
FC001F80
FC001F80
FC001F80
FC001F80
FC001F80
FC001F80
FC001F80
FC001F00
FC003F00
7E003F00
7F00FF00
3FFFFE00
3FFFFC00
0FFFF800
03FFE000
00080000
ENDCHAR
STARTCHAR Udieresis
ENCODING 220
SWIDTH 897 0
DWIDTH 29 0
BBX 25 30 2 -1
BITMAP
07E3E000
07E3E000
07E3E000
07E3E000
00000000
00000000
FC001F80
FC001F80
FC001F80
FC001F80
FC001F80
FC001F80
FC001F80
FC001F80
FC001F80
FC001F80
FC001F80
FC001F80
FC001F80
FC001F80
FC001F80
FC001F00
FC003F00
7E003F00
7F00FF00
3FFFFE00
3FFFFC00
0FFFF800
03FFE000
00080000
ENDCHAR
STARTCHAR Yacute
ENCODING 221
SWIDTH 865 0
DWIDTH 28 0
BBX 28 30 0 0
BITMAP
0003FC00
0007F000
0007E000
000FC000
000F8000
00000000
00000000
FE000FF0
7F000FE0
3F801FC0
1F803F80
1FC03F00
0FE07F00
07E0FE00
03F0FC00
03F9F800
01FFF800
00FFF000
007FE000
007FC000
003F8000
001F8000
001F8000
001F8000
001F8000
001F8000
001F8000
001F8000
001F8000
001F8000
ENDCHAR
STARTCHAR Thorn
ENCODING 222
SWIDTH 856 0
DWIDTH 27 0
BBX 24 23 2 0
BITMAP
FC0000
FC0000
FC0000
FC0000
FFFFF0
FFFFFC
FFFFFE
FFFFFF
FC007F
FC003F
FC003F
FC003F
FC003F
FC007F
FFFFFF
FFFFFE
FFFFFC
FFFFF0
FC0000
FC0000
FC0000
FC0000
FC0000
ENDCHAR
STARTCHAR germandbls
ENCODING 223
SWIDTH 780 0
DWIDTH 25 0
BBX 22 24 2 -1
BITMAP
03FE00
1FFFC0
3FFFE0
7FFFE0
FF07F0
FC03F0
FC03F0
F803F0
F807E0
F8FFC0
F8FFC0
F8FFF0
F8FFF8
F803F8
F800FC
F800FC
F800FC
F800FC
F801FC
F8FFF8
F8FFF8
F8FFF0
F8FFC0
001800
ENDCHAR
STARTCHAR agrave
ENCODING 224
SWIDTH 719 0
DWIDTH 23 0
BBX 21 25 1 -1
BITMAP
1FE000
07E000
03F000
01F000
00F800
000000
002000
07FF80
1FFFE0
3FFFF0
7FFFF0
7E03F0
0003F0
0007F0
0FFFF0
7FFFF0
7FC1F0
FC01F0
FC03F0
FC07F0
FFFFF0
FFFFF0
7FFDF0
3FF1F8
030000
ENDCHAR
STARTCHAR aacute
ENCODING 225
SWIDTH 719 0
DWIDTH 23 0
BBX 21 25 1 -1
BITMAP
001FE0
003F80
003F00
007E00
00FC00
000000
002000
07FF80
1FFFE0
3FFFF0
7FFFF0
7E03F0
0003F0
0007F0
0FFFF0
7FFFF0
7FC1F0
FC01F0
FC03F0
FC07F0
FFFFF0
FFFFF0
7FFDF0
3FF1F8
030000
ENDCHAR
STARTCHAR acircumflex
ENCODING 226
SWIDTH 719 0
DWIDTH 23 0
BBX 21 25 1 -1
BITMAP
01FE00
03FF00
07FF80
0FCF80
1F8FE0
000000
002000
07FF80
1FFFE0
3FFFF0
7FFFF0
7E03F0
0003F0
0007F0
0FFFF0
7FFFF0
7FC1F0
FC01F0
FC03F0
FC07F0
FFFFF0
FFFFF0
7FFDF0
3FF1F8
030000
ENDCHAR
STARTCHAR atilde
ENCODING 227
SWIDTH 719 0
DWIDTH 23 0
BBX 21 26 1 -1
BITMAP
07C3C0
0FF3C0
0FFFC0
1FFFC0
1E3F80
1E0F00
000000
002000
07FF80
1FFFE0
3FFFF0
7FFFF0
7E03F0
0003F0
0007F0
0FFFF0
7FFFF0
7FC1F0
FC01F0
FC03F0
FC07F0
FFFFF0
FFFFF0
7FFDF0
3FF1F8
030000
ENDCHAR
STARTCHAR adieresis
ENCODING 228
SWIDTH 719 0
DWIDTH 23 0
BBX 21 25 1 -1
BITMAP
0F8FC0
0F8FC0
0F8FC0
0F8FC0
000000
000000
002000
07FF80
1FFFE0
3FFFF0
7FFFF0
7E03F0
0003F0
0007F0
0FFFF0
7FFFF0
7FC1F0
FC01F0
FC03F0
FC07F0
FFFFF0
FFFFF0
7FFDF0
3FF1F8
030000
ENDCHAR
STARTCHAR aring
ENCODING 229
SWIDTH 719 0
DWIDTH 23 0
BBX 21 28 1 -1
BITMAP
00F800
01FE00
03FF00
038F00
038F00
03FF00
01FE00
00F800
000000
002000
07FF80
1FFFE0
3FFFF0
7FFFF0
7E03F0
0003F0
0007F0
0FFFF0
7FFFF0
7FC1F0
FC01F0
FC03F0
FC07F0
FFFFF0
FFFFF0
7FFDF0
3FF1F8
030000
ENDCHAR
STARTCHAR ae
ENCODING 230
SWIDTH 1177 0
DWIDTH 38 0
BBX 36 19 1 -1
BITMAP
0020004000
07FF0FFE00
1FFFDFFF00
3FFFFFFFC0
7FFFFFFFC0
7E03F807E0
0003F003E0
0007FFFFE0
0FFFFFFFF0
7FFFFFFFF0
7FC1FFFFF0
FC01F00000
FC03F80000
FC07FC07E0
FFFFFFFFE0
FFFF7FFFC0
7FFE3FFF80
1FFC0FFE00
018000C000
ENDCHAR
STARTCHAR ccedilla
ENCODING 231
SWIDTH 747 0
DWIDTH 24 0
BBX 22 26 1 -8
BITMAP
002000
07FF80
1FFFE0
3FFFF0
7FFFF8
7F03F8
7E01FC
FC0000
FC0000
FC0000
FC0000
FC00FC
FE01FC
7F03F8
7FFFF8
3FFFF0
1FFFE0
0FFFC0
007C00
007000
00FF00
00FF80
000780
018F80
01FF00
01FE00
ENDCHAR
STARTCHAR egrave
ENCODING 232
SWIDTH 748 0
DWIDTH 24 0
BBX 22 25 1 -1
BITMAP
1FE000
07F000
03F000
01F800
00F800
000000
002000
07FF80
1FFFE0
3FFFF0
7FFFF0
7E01F8
FC00F8
FFFFFC
FFFFFC
FFFFFC
FFFFFC
FC0000
FC0004
7E01F8
7FFFF8
3FFFF0
1FFFE0
07FFC0
003000
ENDCHAR
STARTCHAR eacute
ENCODING 233
SWIDTH 748 0
DWIDTH 24 0
BBX 22 25 1 -1
BITMAP
001FE0
003F80
003F00
007E00
007C00
008000
002000
07FF80
1FFFE0
3FFFF0
7FFFF0
7E01F8
FC00F8
FFFFFC
FFFFFC
FFFFFC
FFFFFC
FC0000
FC0004
7E01F8
7FFFF8
3FFFF0
1FFFE0
07FFC0
003000
ENDCHAR
STARTCHAR ecircumflex
ENCODING 234
SWIDTH 748 0
DWIDTH 24 0
BBX 22 25 1 -1
BITMAP
01FE00
03FF00
07FF80
0FCFC0
1F87E0
000000
002000
07FF80
1FFFE0
3FFFF0
7FFFF0
7E01F8
FC00F8
FFFFFC
FFFFFC
FFFFFC
FFFFFC
FC0000
FC0004
7E01F8
7FFFF8
3FFFF0
1FFFE0
07FFC0
003000
ENDCHAR
STARTCHAR edieresis
ENCODING 235
SWIDTH 748 0
DWIDTH 24 0
BBX 22 25 1 -1
BITMAP
0F87C0
0F87C0
0F87C0
0F87C0
000000
000000
002000
07FF80
1FFFE0
3FFFF0
7FFFF0
7E01F8
FC00F8
FFFFFC
FFFFFC
FFFFFC
FFFFFC
FC0000
FC0004
7E01F8
7FFFF8
3FFFF0
1FFFE0
07FFC0
003000
ENDCHAR
STARTCHAR igrave
ENCODING 236
SWIDTH 287 0
DWIDTH 9 0
BBX 10 24 -3 0
BITMAP
FF00
7F00
1F80
0F80
07C0
0000
0000
07C0
07C0
07C0
07C0
07C0
07C0
07C0
07C0
07C0
07C0
07C0
07C0
07C0
07C0
07C0
07C0
07C0
ENDCHAR
STARTCHAR iacute
ENCODING 237
SWIDTH 287 0
DWIDTH 9 0
BBX 10 24 2 0
BITMAP
1FC0
3F80
7F00
7E00
F800
0000
0000
F800
F800
F800
F800
F800
F800
F800
F800
F800
F800
F800
F800
F800
F800
F800
F800
F800
ENDCHAR
STARTCHAR icircumflex
ENCODING 238
SWIDTH 287 0
DWIDTH 9 0
BBX 16 24 -3 0
BITMAP
0FF0
1FF8
3FFC
7E7C
FC7F
0000
0000
07C0
07C0
07C0
07C0
07C0
07C0
07C0
07C0
07C0
07C0
07C0
07C0
07C0
07C0
07C0
07C0
07C0
ENDCHAR
STARTCHAR idieresis
ENCODING 239
SWIDTH 287 0
DWIDTH 9 0
BBX 14 24 -2 0
BITMAP
F8FC
F8FC
F8FC
F8FC
0000
0000
0000
0F80
0F80
0F80
0F80
0F80
0F80
0F80
0F80
0F80
0F80
0F80
0F80
0F80
0F80
0F80
0F80
0F80
ENDCHAR
STARTCHAR eth
ENCODING 240
SWIDTH 746 0
DWIDTH 24 0
BBX 22 26 1 -1
BITMAP
000200
1F8F80
1FFF00
3FFC00
0FFF00
07FFC0
1F9FE0
0E07E0
0003F0
03F9F8
0FFFF8
3FFFF8
7FFFFC
7F87FC
FE01FC
FC00FC
FC00FC
FC00FC
FC00F8
FC01F8
7E03F8
7FFFF0
3FFFE0
1FFFC0
07FF00
002000
ENDCHAR
STARTCHAR ntilde
ENCODING 241
SWIDTH 748 0
DWIDTH 24 0
BBX 20 25 2 0
BITMAP
0F83C0
1FF780
1FFF80
1FFF80
3C7F00
3C1E00
000000
000800
F8FF80
FBFFC0
FFFFE0
FFFFF0
FE07F0
FC03F0
FC01F0
F801F0
F801F0
F801F0
F801F0
F801F0
F801F0
F801F0
F801F0
F801F0
F801F0
ENDCHAR
STARTCHAR ograve
ENCODING 242
SWIDTH 755 0
DWIDTH 24 0
BBX 22 25 1 -1
BITMAP
1FE000
07F000
03F000
01F800
00FC00
000000
001000
07FF80
1FFFE0
3FFFF0
7FFFF8
7F03F8
FE00FC
FC00FC
FC00FC
FC00FC
FC00FC
FC00FC
FE00FC
7F03F8
7FFFF8
3FFFF0
1FFFE0
07FF80
003000
ENDCHAR
STARTCHAR oacute
ENCODING 243
SWIDTH 755 0
DWIDTH 24 0
BBX 22 25 1 -1
BITMAP
001FE0
003F80
003F00
007E00
007C00
000000
001000
07FF80
1FFFE0
3FFFF0
7FFFF8
7F03F8
FE00FC
FC00FC
FC00FC
FC00FC
FC00FC
FC00FC
FE00FC
7F03F8
7FFFF8
3FFFF0
1FFFE0
07FF80
003000
ENDCHAR
STARTCHAR ocircumflex
ENCODING 244
SWIDTH 755 0
DWIDTH 24 0
BBX 22 25 1 -1
BITMAP
01FE00
03FF00
07FF80
0FCFC0
1F87E0
000000
001000
07FF80
1FFFE0
3FFFF0
7FFFF8
7F03F8
FE00FC
FC00FC
FC00FC
FC00FC
FC00FC
FC00FC
FE00FC
7F03F8
7FFFF8
3FFFF0
1FFFE0
07FF80
003000
ENDCHAR
STARTCHAR otilde
ENCODING 245
SWIDTH 755 0
DWIDTH 24 0
BBX 22 26 1 -1
BITMAP
03C1E0
07F9E0
0FFFC0
0FFFC0
1E3F80
1E0F00
000000
001000
07FF80
1FFFE0
3FFFF0
7FFFF8
7F03F8
FE00FC
FC00FC
FC00FC
FC00FC
FC00FC
FC00FC
FE00FC
7F03F8
7FFFF8
3FFFF0
1FFFE0
07FF80
003000
ENDCHAR
STARTCHAR odieresis
ENCODING 246
SWIDTH 755 0
DWIDTH 24 0
BBX 22 25 1 -1
BITMAP
0F87C0
0F87C0
0F87C0
0F87C0
000000
000000
001000
07FF80
1FFFE0
3FFFF0
7FFFF8
7F03F8
FE00FC
FC00FC
FC00FC
FC00FC
FC00FC
FC00FC
FE00FC
7F03F8
7FFFF8
3FFFF0
1FFFE0
07FF80
003000
ENDCHAR
STARTCHAR divide
ENCODING 247
SWIDTH 674 0
DWIDTH 22 0
BBX 17 20 2 1
BITMAP
01C000
03E000
03F000
03F000
03E000
01C000
000000
000000
FFFF80
FFFF80
FFFF80
FFFF80
000000
000000
01C000
03E000
03F000
03F000
03E000
01C000
ENDCHAR
STARTCHAR oslash
ENCODING 248
SWIDTH 755 0
DWIDTH 24 0
BBX 22 19 1 -1
BITMAP
001000
07FF9C
1FFFF8
3FFFF0
7FFFF8
7F03F8
FE07FC
FC0EFC
FC1CFC
FC78FC
FCE0FC
FDC0FC
FF80FC
7F03F8
7FFFF8
3FFFF0
7FFFE0
E7FF80
003000
ENDCHAR
STARTCHAR ugrave
ENCODING 249
SWIDTH 748 0
DWIDTH 24 0
BBX 20 25 2 -1
BITMAP
3FC000
0FE000
07E000
03F000
01F000
000000
000000
F801F0
F801F0
F801F0
F801F0
F801F0
F801F0
F801F0
F801F0
F801F0
F801F0
F803F0
FC03F0
FE07F0
FFFFF0
7FFFF0
7FFDF0
1FF1F0
010000
ENDCHAR
STARTCHAR uacute
ENCODING 250
SWIDTH 748 0
DWIDTH 24 0
BBX 20 25 2 -1
BITMAP
003FC0
007F00
007E00
00FC00
00F800
010000
000000
F801F0
F801F0
F801F0
F801F0
F801F0
F801F0
F801F0
F801F0
F801F0
F801F0
F803F0
FC03F0
FE07F0
FFFFF0
7FFFF0
7FFDF0
1FF1F0
010000
ENDCHAR
STARTCHAR ucircumflex
ENCODING 251
SWIDTH 748 0
DWIDTH 24 0
BBX 20 25 2 -1
BITMAP
03FC00
07FE00
0FFF00
1F9F80
3F0FC0
000000
000000
F801F0
F801F0
F801F0
F801F0
F801F0
F801F0
F801F0
F801F0
F801F0
F801F0
F803F0
FC03F0
FE07F0
FFFFF0
7FFFF0
7FFDF0
1FF1F0
010000
ENDCHAR
STARTCHAR udieresis
ENCODING 252
SWIDTH 748 0
DWIDTH 24 0
BBX 20 25 2 -1
BITMAP
1F0F80
1F0F80
1F0F80
1F0F80
000000
000000
000000
F801F0
F801F0
F801F0
F801F0
F801F0
F801F0
F801F0
F801F0
F801F0
F801F0
F803F0
FC03F0
FE07F0
FFFFF0
7FFFF0
7FFDF0
1FF1F0
010000
ENDCHAR
STARTCHAR yacute
ENCODING 253
SWIDTH 722 0
DWIDTH 23 0
BBX 23 30 0 -6
BITMAP
000FE0
001FC0
003F80
003F00
007C00
000000
000000
FE00FE
7E00FC
7E00FC
3F01F8
3F01F8
1F83F0
1F83F0
0FC7E0
0FC7E0
07E7C0
07EFC0
03EF80
03FF80
01FF00
01FF00
00FE00
00FE00
00FC00
01FC00
3FF800
3FF000
3FE000
3FC000
ENDCHAR
STARTCHAR thorn
ENCODING 254
SWIDTH 766 0
DWIDTH 25 0
BBX 21 29 2 -6
BITMAP
F80000
F80000
F80000
F80000
F80000
F81000
F8FF80
FBFFC0
FFFFE0
FFFFF0
FE03F8
FC01F8
FC01F8
F800F8
F800F8
F800F8
FC01F8
FC01F8
FE03F8
FFFFF0
FFFFE0
FBFFC0
F8FF80
F81800
F80000
F80000
F80000
F80000
F80000
ENDCHAR
STARTCHAR ydieresis
ENCODING 255
SWIDTH 722 0
DWIDTH 23 0
BBX 23 30 0 -6
BITMAP
07C7C0
07C7C0
07C7C0
07C7C0
000000
000000
000000
FE00FE
7E00FC
7E00FC
3F01F8
3F01F8
1F83F0
1F83F0
0FC7E0
0FC7E0
07E7C0
07EFC0
03EF80
03FF80
01FF00
01FF00
00FE00
00FE00
00FC00
01FC00
3FF800
3FF000
3FE000
3FC000
ENDCHAR
STARTCHAR Amacron
ENCODING 256
SWIDTH 937 0
DWIDTH 30 0
BBX 30 28 0 0
BITMAP
00FFF800
00FFF800
00FFF800
00000000
00000000
001FE000
001FE000
003FF000
003FF000
007FF800
007CF800
00FCFC00
00F87C00
01F87E00
01F03E00
03F03F00
03E01F00
07E01F80
07C01F80
0FFFFFC0
0FFFFFC0
1FFFFFE0
1FFFFFE0
3F0003F0
3F0003F0
7E0001F8
7E0001F8
FC0001FC
ENDCHAR
STARTCHAR amacron
ENCODING 257
SWIDTH 719 0
DWIDTH 23 0
BBX 21 24 1 -1
BITMAP
0FFFC0
0FFFC0
0FFFC0
000000
000000
002000
07FF80
1FFFE0
3FFFF0
7FFFF0
7E03F0
0003F0
0007F0
0FFFF0
7FFFF0
7FC1F0
FC01F0
FC03F0
FC07F0
FFFFF0
FFFFF0
7FFDF0
3FF1F8
030000
ENDCHAR
STARTCHAR Abreve
ENCODING 258
SWIDTH 937 0
DWIDTH 30 0
BBX 30 30 0 0
BITMAP
00F07800
00F8F800
00FFF800
007FF000
001FC000
00000000
00000000
001FE000
001FE000
003FF000
003FF000
007FF800
007CF800
00FCFC00
00F87C00
01F87E00
01F03E00
03F03F00
03E01F00
07E01F80
07C01F80
0FFFFFC0
0FFFFFC0
1FFFFFE0
1FFFFFE0
3F0003F0
3F0003F0
7E0001F8
7E0001F8
FC0001FC
ENDCHAR
STARTCHAR abreve
ENCODING 259
SWIDTH 719 0
DWIDTH 23 0
BBX 21 25 1 -1
BITMAP
0F07C0
0F8F80
07FF80
03FF00
00FC00
000000
002000
07FF80
1FFFE0
3FFFF0
7FFFF0
7E03F0
0003F0
0007F0
0FFFF0
7FFFF0
7FC1F0
FC01F0
FC03F0
FC07F0
FFFFF0
FFFFF0
7FFDF0
3FF1F8
030000
ENDCHAR
STARTCHAR Aogonek
ENCODING 260
SWIDTH 937 0
DWIDTH 30 0
BBX 30 31 0 -8
BITMAP
001FE000
001FE000
003FF000
003FF000
007FF800
007CF800
00FCFC00
00F87C00
01F87E00
01F03E00
03F03F00
03E01F00
07E01F80
07C01F80
0FFFFFC0
0FFFFFC0
1FFFFFE0
1FFFFFE0
3F0003F0
3F0003F0
7E0001F8
7E0001F8
FC0001FC
000001F0
000003C0
00000780
00000F80
00000F80
00000FF8
000007F8
000001F8
ENDCHAR
STARTCHAR aogonek
ENCODING 261
SWIDTH 719 0
DWIDTH 23 0
BBX 21 25 1 -7
BITMAP
002000
07FF80
1FFFE0
3FFFF0
7FFFF0
7E03F0
0003F0
0007F0
0FFFF0
7FFFF0
7FC1F0
FC01F0
FC03F0
FC07F0
FFFFF0
FFFFF0
7FFDF0
3FF1F8
0301E0
0007C0
000780
000F80
000FF8
0007F8
0003F8
ENDCHAR
STARTCHAR Cacute
ENCODING 262
SWIDTH 914 0
DWIDTH 29 0
BBX 27 31 1 -1
BITMAP
0003FC00
0007F000
0007E000
000FC000
000F8000
00000000
00000000
007FE000
03FFFC00
07FFFE00
1FFFFF80
3FE07F80
3F801FC0
7F000FE0
7E000FE0
7E000FE0
FE000000
FC000000
FC000000
FC000000
FC000000
FE000FE0
7E000FE0
7F000FE0
7F001FC0
3FC03FC0
1FFFFF80
0FFFFF00
07FFFE00
01FFF800
00060000
ENDCHAR
STARTCHAR cacute
ENCODING 263
SWIDTH 747 0
DWIDTH 24 0
BBX 22 25 1 -1
BITMAP
001FE0
003F80
003F00
007E00
00FC00
000000
002000
07FF80
1FFFE0
3FFFF0
7FFFF8
7F03F8
FE01FC
FC0000
FC0000
FC0000
FC0000
FC00FC
FE01FC
7F03F8
7FFFF8
3FFFF0
1FFFE0
07FF80
003000
ENDCHAR
STARTCHAR Ccircumflex
ENCODING 264
SWIDTH 914 0
DWIDTH 29 0
BBX 27 31 1 -1
BITMAP
003FC000
007FE000
00FFF000
01F9F800
03F0FC00
00000000
00000000
007FE000
03FFFC00
07FFFE00
1FFFFF80
3FE07F80
3F801FC0
7F000FE0
7E000FE0
7E000FE0
FE000000
FC000000
FC000000
FC000000
FC000000
FE000FE0
7E000FE0
7F000FE0
7F001FC0
3FC03FC0
1FFFFF80
0FFFFF00
07FFFE00
01FFF800
00060000
ENDCHAR
STARTCHAR ccircumflex
ENCODING 265
SWIDTH 747 0
DWIDTH 24 0
BBX 22 25 1 -1
BITMAP
01FE00
03FF00
07FF80
0FCFC0
1F87E0
000000
002000
07FF80
1FFFE0
3FFFF0
7FFFF8
7F03F8
FE01FC
FC0000
FC0000
FC0000
FC0000
FC00FC
FE01FC
7F03F8
7FFFF8
3FFFF0
1FFFE0
07FF80
003000
ENDCHAR
STARTCHAR Cdotaccent
ENCODING 266
SWIDTH 914 0
DWIDTH 29 0
BBX 27 30 1 -1
BITMAP
001F8000
001F8000
001F8000
001F8000
00000000
00000000
007FE000
03FFFC00
07FFFE00
1FFFFF80
3FE07F80
3F801FC0
7F000FE0
7E000FE0
7E000FE0
FE000000
FC000000
FC000000
FC000000
FC000000
FE000FE0
7E000FE0
7F000FE0
7F001FC0
3FC03FC0
1FFFFF80
0FFFFF00
07FFFE00
01FFF800
00060000
ENDCHAR
STARTCHAR cdotaccent
ENCODING 267
SWIDTH 747 0
DWIDTH 24 0
BBX 22 25 1 -1
BITMAP
00FC00
00FC00
00FC00
00FC00
000000
000000
002000
07FF80
1FFFE0
3FFFF0
7FFFF8
7F03F8
FE01FC
FC0000
FC0000
FC0000
FC0000
FC00FC
FE01FC
7F03F8
7FFFF8
3FFFF0
1FFFE0
07FF80
003000
ENDCHAR
STARTCHAR Ccaron
ENCODING 268
SWIDTH 914 0
DWIDTH 29 0
BBX 27 31 1 -1
BITMAP
03F0FC00
01F9F800
00FFF000
007FE000
003FC000
00000000
00000000
007FE000
03FFFC00
07FFFE00
1FFFFF80
3FE07F80
3F801FC0
7F000FE0
7E000FE0
7E000FE0
FE000000
FC000000
FC000000
FC000000
FC000000
FE000FE0
7E000FE0
7F000FE0
7F001FC0
3FC03FC0
1FFFFF80
0FFFFF00
07FFFE00
01FFF800
00060000
ENDCHAR
STARTCHAR ccaron
ENCODING 269
SWIDTH 747 0
DWIDTH 24 0
BBX 22 25 1 -1
BITMAP
1F87E0
0FCFC0
07FF80
03FF00
01FE00
000000
002000
07FF80
1FFFE0
3FFFF0
7FFFF8
7F03F8
FE01FC
FC0000
FC0000
FC0000
FC0000
FC00FC
FE01FC
7F03F8
7FFFF8
3FFFF0
1FFFE0
07FF80
003000
ENDCHAR
STARTCHAR Dcaron
ENCODING 270
SWIDTH 889 0
DWIDTH 28 0
BBX 25 30 2 0
BITMAP
1F87E000
0FCFC000
07FF8000
03FF0000
01FE0000
00000000
00000000
FFFFC000
FFFFF000
FFFFFC00
FFFFFE00
FC03FF00
FC007F00
FC003F80
FC003F80
FC001F80
FC001F80
FC001F80
FC001F80
FC001F80
FC001F80
FC001F80
FC003F80
FC003F00
FC007F00
FC01FF00
FFFFFE00
FFFFFC00
FFFFF000
FFFF8000
ENDCHAR
STARTCHAR dcaron
ENCODING 271
SWIDTH 912 0
DWIDTH 29 0
BBX 28 24 1 -1
BITMAP
0000FDF0
0000FDF0
0000FDF0
0000FDF0
0000FC70
0040FC70
07FCFDE0
1FFFFDC0
3FFFFC00
7FFFFC00
7F03FC00
FE01FC00
FC00FC00
FC00FC00
FC00FC00
FC00FC00
FC00FC00
FE01FC00
7F03FC00
7FFFFC00
3FFFFC00
1FFFFC00
07FCFC00
00400000
ENDCHAR
STARTCHAR Dcroat
ENCODING 272
SWIDTH 903 0
DWIDTH 29 0
BBX 28 23 0 0
BITMAP
1FFFF000
1FFFFE00
1FFFFF00
1FFFFF80
1F007FC0
1F001FE0
1F000FE0
1F0007E0
1F0007E0
1F0007F0
FFFC03F0
FFFC03F0
FFFC03F0
FFFC07F0
1F0007E0
1F0007E0
1F000FE0
1F001FE0
1F007FC0
1FFFFF80
1FFFFF00
1FFFFE00
1FFFF000
ENDCHAR
STARTCHAR dcroat
ENCODING 273
SWIDTH 780 0
DWIDTH 25 0
BBX 24 24 1 -1
BITMAP
0000FC
000FFF
000FFF
000FFF
0000FC
0040FC
07FCFC
1FFEFC
3FFFFC
7FFFFC
7F03FC
FE01FC
FC00FC
FC00FC
FC00FC
FC00FC
FC00FC
FE01FC
7F03FC
7FFFFC
3FFFFC
1FFFFC
07FCFC
004000
ENDCHAR
STARTCHAR Emacron
ENCODING 274
SWIDTH 795 0
DWIDTH 25 0
BBX 22 28 2 0
BITMAP
0FFFC0
0FFFC0
0FFFC0
000000
000000
FFFFFC
FFFFFC
FFFFFC
FFFFFC
FC0000
FC0000
FC0000
FC0000
FC0000
FFFFF8
FFFFF8
FFFFF8
FFFFF8
FC0000
FC0000
FC0000
FC0000
FC0000
FC0000
FFFFFC
FFFFFC
FFFFFC
FFFFFC
ENDCHAR
STARTCHAR emacron
ENCODING 275
SWIDTH 748 0
DWIDTH 24 0
BBX 22 24 1 -1
BITMAP
0FFFC0
0FFFC0
0FFFC0
000000
000000
002000
07FF80
1FFFE0
3FFFF0
7FFFF0
7E01F8
FC00F8
FFFFFC
FFFFFC
FFFFFC
FFFFFC
FC0000
FC0004
7E01F8
7FFFF8
3FFFF0
1FFFE0
07FFC0
003000
ENDCHAR
STARTCHAR Ebreve
ENCODING 276
SWIDTH 795 0
DWIDTH 25 0
BBX 22 30 2 0
BITMAP
0F07C0
0F87C0
07FF80
03FF00
00FC00
000000
000000
FFFFFC
FFFFFC
FFFFFC
FFFFFC
FC0000
FC0000
FC0000
FC0000
FC0000
FFFFF8
FFFFF8
FFFFF8
FFFFF8
FC0000
FC0000
FC0000
FC0000
FC0000
FC0000
FFFFFC
FFFFFC
FFFFFC
FFFFFC
ENDCHAR
STARTCHAR ebreve
ENCODING 277
SWIDTH 748 0
DWIDTH 24 0
BBX 22 25 1 -1
BITMAP
0F87C0
0F87C0
07FF80
03FF00
00FC00
000000
002000
07FF80
1FFFE0
3FFFF0
7FFFF0
7E01F8
FC00F8
FFFFFC
FFFFFC
FFFFFC
FFFFFC
FC0000
FC0004
7E01F8
7FFFF8
3FFFF0
1FFFE0
07FFC0
003000
ENDCHAR
STARTCHAR Edotaccent
ENCODING 278
SWIDTH 795 0
DWIDTH 25 0
BBX 22 29 2 0
BITMAP
00FC00
00FC00
00FC00
00FC00
000000
000000
FFFFFC
FFFFFC
FFFFFC
FFFFFC
FC0000
FC0000
FC0000
FC0000
FC0000
FFFFF8
FFFFF8
FFFFF8
FFFFF8
FC0000
FC0000
FC0000
FC0000
FC0000
FC0000
FFFFFC
FFFFFC
FFFFFC
FFFFFC
ENDCHAR
STARTCHAR edotaccent
ENCODING 279
SWIDTH 748 0
DWIDTH 24 0
BBX 22 25 1 -1
BITMAP
00FC00
00FC00
00FC00
00FC00
000000
000000
002000
07FF80
1FFFE0
3FFFF0
7FFFF0
7E01F8
FC00F8
FFFFFC
FFFFFC
FFFFFC
FFFFFC
FC0000
FC0004
7E01F8
7FFFF8
3FFFF0
1FFFE0
07FFC0
003000
ENDCHAR
STARTCHAR Eogonek
ENCODING 280
SWIDTH 795 0
DWIDTH 25 0
BBX 22 31 2 -8
BITMAP
FFFFFC
FFFFFC
FFFFFC
FFFFFC
FC0000
FC0000
FC0000
FC0000
FC0000
FFFFF8
FFFFF8
FFFFF8
FFFFF8
FC0000
FC0000
FC0000
FC0000
FC0000
FC0000
FFFFFC
FFFFFC
FFFFFC
FFFFFC
0000F8
0001E0
0003E0
0007C0
0007E0
0007FC
0003FC
0000FC
ENDCHAR
STARTCHAR eogonek
ENCODING 281
SWIDTH 748 0
DWIDTH 24 0
BBX 22 25 1 -7
BITMAP
002000
07FF80
1FFFE0
3FFFF0
7FFFF0
7E01F8
FC00F8
FFFFFC
FFFFFC
FFFFFC
FFFFFC
FC0000
FC0004
7E01F8
7FFFF8
3FFFF0
1FFFE0
07FF80
003E00
007800
00F800
00F800
00FF00
00FF00
003F00
ENDCHAR
STARTCHAR Ecaron
ENCODING 282
SWIDTH 795 0
DWIDTH 25 0
BBX 22 30 2 0
BITMAP
1F87E0
0FCFC0
07FF80
03FF00
01FE00
000000
000000
FFFFFC
FFFFFC
FFFFFC
FFFFFC
FC0000
FC0000
FC0000
FC0000
FC0000
FFFFF8
FFFFF8
FFFFF8
FFFFF8
FC0000
FC0000
FC0000
FC0000
FC0000
FC0000
FFFFFC
FFFFFC
FFFFFC
FFFFFC
ENDCHAR
STARTCHAR ecaron
ENCODING 283
SWIDTH 748 0
DWIDTH 24 0
BBX 22 25 1 -1
BITMAP
1F87E0
0FCFC0
07FF80
03FF00
01FE00
000000
002000
07FF80
1FFFE0
3FFFF0
7FFFF0
7E01F8
FC00F8
FFFFFC
FFFFFC
FFFFFC
FFFFFC
FC0000
FC0004
7E01F8
7FFFF8
3FFFF0
1FFFE0
07FFC0
003000
ENDCHAR
STARTCHAR Gcircumflex
ENCODING 284
SWIDTH 949 0
DWIDTH 30 0
BBX 27 31 1 -1
BITMAP
003FC000
007FE000
00FFF000
00F9F800
03F8FC00
00000000
00000000
007FE000
03FFFC00
07FFFF00
1FFFFF80
3FF07FC0
3F801FE0
7F000FE0
7E0007E0
7E000000
FE000000
FC01FFE0
FC01FFE0
FC01FFE0
FC01FFE0
FE0007E0
7E0007E0
7F000FE0
7F800FE0
3FC03FE0
1FFFFFE0
0FFFFFE0
07FFFDE0
00FFF1E0
00020000
ENDCHAR
STARTCHAR gcircumflex
ENCODING 285
SWIDTH 757 0
DWIDTH 24 0
BBX 21 30 1 -6
BITMAP
01FE00
03FF00
07FF80
0FCF80
1F8FE0
000000
004000
0FFCF8
1FFEF8
3FFFF8
7FFFF8
7E03F8
FC01F8
FC00F8
FC00F8
FC00F8
FC01F8
7F03F8
7FFFF8
3FFFF8
1FFEF8
07F8F8
0000F8
0000F8
7E01F8
7F83F8
7FFFF8
3FFFF0
1FFFE0
03FF80
ENDCHAR
STARTCHAR Gbreve
ENCODING 286
SWIDTH 949 0
DWIDTH 30 0
BBX 27 31 1 -1
BITMAP
01F0F800
01F0F800
00FFF000
007FE000
001F8000
00000000
00000000
007FE000
03FFFC00
07FFFF00
1FFFFF80
3FF07FC0
3F801FE0
7F000FE0
7E0007E0
7E000000
FE000000
FC01FFE0
FC01FFE0
FC01FFE0
FC01FFE0
FE0007E0
7E0007E0
7F000FE0
7F800FE0
3FC03FE0
1FFFFFE0
0FFFFFE0
07FFFDE0
00FFF1E0
00020000
ENDCHAR
STARTCHAR gbreve
ENCODING 287
SWIDTH 757 0
DWIDTH 24 0
BBX 21 30 1 -6
BITMAP
0F07C0
0F8F80
07FF80
03FF00
00FC00
000000
004000
0FFCF8
1FFEF8
3FFFF8
7FFFF8
7E03F8
FC01F8
FC00F8
FC00F8
FC00F8
FC01F8
7F03F8
7FFFF8
3FFFF8
1FFEF8
07F8F8
0000F8
0000F8
7E01F8
7F83F8
7FFFF8
3FFFF0
1FFFE0
03FF80
ENDCHAR
STARTCHAR Gdotaccent
ENCODING 288
SWIDTH 949 0
DWIDTH 30 0
BBX 27 30 1 -1
BITMAP
001F8000
001F8000
001F8000
001F8000
00000000
00000000
007FE000
03FFFC00
07FFFF00
1FFFFF80
3FF07FC0
3F801FE0
7F000FE0
7E0007E0
7E000000
FE000000
FC01FFE0
FC01FFE0
FC01FFE0
FC01FFE0
FE0007E0
7E0007E0
7F000FE0
7F800FE0
3FC03FE0
1FFFFFE0
0FFFFFE0
07FFFDE0
00FFF1E0
00020000
ENDCHAR
STARTCHAR gdotaccent
ENCODING 289
SWIDTH 757 0
DWIDTH 24 0
BBX 21 30 1 -6
BITMAP
00FC00
00FC00
00FC00
00FC00
000000
000000
004000
0FFCF8
1FFEF8
3FFFF8
7FFFF8
7E03F8
FC01F8
FC00F8
FC00F8
FC00F8
FC01F8
7F03F8
7FFFF8
3FFFF8
1FFEF8
07F8F8
0000F8
0000F8
7E01F8
7F83F8
7FFFF8
3FFFF0
1FFFE0
03FF80
ENDCHAR
STARTCHAR uni0122
ENCODING 290
SWIDTH 949 0
DWIDTH 30 0
BBX 27 33 1 -10
BITMAP
007FE000
03FFFC00
07FFFF00
1FFFFF80
3FF07FC0
3F801FE0
7F000FE0
7E0007E0
7E000000
FE000000
FC01FFE0
FC01FFE0
FC01FFE0
FC01FFE0
FE0007E0
7E0007E0
7F000FE0
7F800FE0
3FC03FE0
1FFFFFE0
0FFFFFE0
07FFFDE0
00FFF1E0
00020000
00000000
000F8000
000F8000
000F8000
000F8000
00038000
00038000
000F8000
000E0000
ENDCHAR
STARTCHAR uni0123
ENCODING 291
SWIDTH 757 0
DWIDTH 24 0
BBX 21 34 1 -6
BITMAP
001C00
007C00
00F000
00E000
00E000
00FC00
00FC00
00FC00
00FC00
000000
004000
0FFCF8
1FFEF8
3FFFF8
7FFFF8
7E03F8
FC01F8
FC00F8
FC00F8
FC00F8
FC01F8
7F03F8
7FFFF8
3FFFF8
1FFEF8
07F8F8
0000F8
0000F8
7E01F8
7F83F8
7FFFF8
3FFFF0
1FFFE0
03FF80
ENDCHAR
STARTCHAR Hcircumflex
ENCODING 292
SWIDTH 901 0
DWIDTH 29 0
BBX 25 30 2 0
BITMAP
00FF8000
00FFC000
01FFC000
03F7E000
07E3F800
08000000
00000000
FC001F80
FC001F80
FC001F80
FC001F80
FC001F80
FC001F80
FC001F80
FC001F80
FC001F80
FFFFFF80
FFFFFF80
FFFFFF80
FFFFFF80
FC001F80
FC001F80
FC001F80
FC001F80
FC001F80
FC001F80
FC001F80
FC001F80
FC001F80
FC001F80
ENDCHAR
STARTCHAR hcircumflex
ENCODING 293
SWIDTH 748 0
DWIDTH 24 0
BBX 25 30 -3 0
BITMAP
0FF00000
1FF80000
3FFC0000
7E7E0000
FC7F0000
00000000
00000000
07C00000
07C00000
07C00000
07C00000
07C00000
07C04000
07C7FC00
07DFFE00
07FFFF00
07FFFF80
07F03F80
07E01F80
07E00F80
07C00F80
07C00F80
07C00F80
07C00F80
07C00F80
07C00F80
07C00F80
07C00F80
07C00F80
07C00F80
ENDCHAR
STARTCHAR Hbar
ENCODING 294
SWIDTH 916 0
DWIDTH 29 0
BBX 29 23 0 0
BITMAP
3F0007E0
3F0007E0
3F0007E0
FFFFFFF8
FFFFFFF8
FFFFFFF8
FFFFFFF8
3F0007E0
3F0007E0
3FFFFFE0
3FFFFFE0
3FFFFFE0
3FFFFFE0
3F0007E0
3F0007E0
3F0007E0
3F0007E0
3F0007E0
3F0007E0
3F0007E0
3F0007E0
3F0007E0
3F0007E0
ENDCHAR
STARTCHAR hbar
ENCODING 295
SWIDTH 762 0
DWIDTH 24 0
BBX 23 23 0 0
BITMAP
3F0000
FFF000
FFF000
FFF000
3F0000
3F0200
3F3FF0
3FFFF8
3FFFFC
3FFFFC
3FC0FC
3F807E
3F007E
3F007E
3F007E
3F007E
3F007E
3F007E
3F007E
3F007E
3F007E
3F007E
3F007E
ENDCHAR
STARTCHAR Itilde
ENCODING 296
SWIDTH 594 0
DWIDTH 19 0
BBX 19 30 0 0
BITMAP
0F8780
1FE780
3FFF80
3FFF80
3CFF00
3C1E00
000000
FFFFE0
FFFFE0
FFFFE0
FFFFE0
01F000
01F000
01F000
01F000
01F000
01F000
01F000
01F000
01F000
01F000
01F000
01F000
01F000
01F000
01F000
FFFFE0
FFFFE0
FFFFE0
FFFFE0
ENDCHAR
STARTCHAR itilde
ENCODING 297
SWIDTH 287 0
DWIDTH 9 0
BBX 15 25 -3 0
BITMAP
3E1E
7F9E
7FFE
FFFE
F3FC
F078
0000
0000
07C0
07C0
07C0
07C0
07C0
07C0
07C0
07C0
07C0
07C0
07C0
07C0
07C0
07C0
07C0
07C0
07C0
ENDCHAR
STARTCHAR Imacron
ENCODING 298
SWIDTH 594 0
DWIDTH 19 0
BBX 19 28 0 0
BITMAP
1FFF00
1FFF00
1FFF00
000000
000000
FFFFE0
FFFFE0
FFFFE0
FFFFE0
01F000
01F000
01F000
01F000
01F000
01F000
01F000
01F000
01F000
01F000
01F000
01F000
01F000
01F000
01F000
FFFFE0
FFFFE0
FFFFE0
FFFFE0
ENDCHAR
STARTCHAR imacron
ENCODING 299
SWIDTH 287 0
DWIDTH 9 0
BBX 13 23 -2 0
BITMAP
FFF8
FFF8
FFF8
0000
0000
0000
0F80
0F80
0F80
0F80
0F80
0F80
0F80
0F80
0F80
0F80
0F80
0F80
0F80
0F80
0F80
0F80
0F80
ENDCHAR
STARTCHAR Ibreve
ENCODING 300
SWIDTH 594 0
DWIDTH 19 0
BBX 19 30 0 0
BITMAP
1E0F00
1F1F00
1FFF00
0FFE00
03F800
000000
000000
FFFFE0
FFFFE0
FFFFE0
FFFFE0
01F000
01F000
01F000
01F000
01F000
01F000
01F000
01F000
01F000
01F000
01F000
01F000
01F000
01F000
01F000
FFFFE0
FFFFE0
FFFFE0
FFFFE0
ENDCHAR
STARTCHAR ibreve
ENCODING 301
SWIDTH 287 0
DWIDTH 9 0
BBX 14 24 -2 0
BITMAP
F07C
F8F8
FFF8
7FF0
1FC0
0000
0000
0F80
0F80
0F80
0F80
0F80
0F80
0F80
0F80
0F80
0F80
0F80
0F80
0F80
0F80
0F80
0F80
0F80
ENDCHAR
STARTCHAR Iogonek
ENCODING 302
SWIDTH 594 0
DWIDTH 19 0
BBX 19 31 0 -8
BITMAP
FFFFE0
FFFFE0
FFFFE0
FFFFE0
01F000
01F000
01F000
01F000
01F000
01F000
01F000
01F000
01F000
01F000
01F000
01F000
01F000
01F000
01F000
FFFFE0
FFFFE0
FFFFE0
FFFFE0
01E000
07C000
0F8000
0F8000
0F8000
0FF000
0FF000
03F000
ENDCHAR
STARTCHAR iogonek
ENCODING 303
SWIDTH 287 0
DWIDTH 9 0
BBX 8 31 -1 -8
BITMAP
1F
1F
1F
1F
00
00
1F
1F
1F
1F
1F
1F
1F
1F
1F
1F
1F
1F
1F
1F
1F
1F
1F
1E
7C
F8
F8
F8
FF
FF
3F
ENDCHAR
STARTCHAR Idotaccent
ENCODING 304
SWIDTH 594 0
DWIDTH 19 0
BBX 19 29 0 0
BITMAP
01F000
01F000
01F000
01F000
000000
000000
FFFFE0
FFFFE0
FFFFE0
FFFFE0
01F000
01F000
01F000
01F000
01F000
01F000
01F000
01F000
01F000
01F000
01F000
01F000
01F000
01F000
01F000
FFFFE0
FFFFE0
FFFFE0
FFFFE0
ENDCHAR
STARTCHAR dotlessi
ENCODING 305
SWIDTH 287 0
DWIDTH 9 0
BBX 5 17 2 0
BITMAP
F8
F8
F8
F8
F8
F8
F8
F8
F8
F8
F8
F8
F8
F8
F8
F8
F8
ENDCHAR
STARTCHAR IJ
ENCODING 306
SWIDTH 1401 0
DWIDTH 45 0
BBX 43 24 0 -1
BITMAP
FFFFE00007E0
FFFFE00007E0
FFFFE00007E0
FFFFE00007E0
01F0000007E0
01F0000007E0
01F0000007E0
01F0000007E0
01F0000007E0
01F0000007E0
01F0000007E0
01F0000007E0
01F00F8007E0
01F00F8007E0
01F00F8007E0
01F00FC007E0
01F00FC007C0
01F00FC00FC0
01F007F01FC0
FFFFE7FFFF80
FFFFE3FFFF00
FFFFE1FFFE00
FFFFE07FF800
000000010000
ENDCHAR
STARTCHAR ij
ENCODING 307
SWIDTH 574 0
DWIDTH 18 0
BBX 15 30 2 -6
BITMAP
F87E
F87E
F87E
F87E
0000
0000
0000
F87E
F87E
F87E
F87E
F87E
F87E
F87E
F87E
F87E
F87E
F87E
F87E
F87E
F87E
F87E
F87E
F87E
007E
007E
03FC
03FC
03FC
03F0
ENDCHAR
STARTCHAR Jcircumflex
ENCODING 308
SWIDTH 807 0
DWIDTH 26 0
BBX 28 31 1 -1
BITMAP
0000FF00
0001FF80
0003FFC0
0007E7E0
000FC3F0
00000000
00000000
00007E00
00007E00
00007E00
00007E00
00007E00
00007E00
00007E00
00007E00
00007E00
00007E00
00007E00
00007E00
F8007E00
F8007E00
F8007E00
FC007E00
FC007C00
FC00FC00
7F01FC00
7FFFF800
3FFFF000
1FFFE000
07FF8000
00100000
ENDCHAR
STARTCHAR jcircumflex
ENCODING 309
SWIDTH 287 0
DWIDTH 9 0
BBX 16 30 -3 -6
BITMAP
0FF0
1FF8
3FFC
7E7C
FC7F
0000
0000
07C0
07C0
07C0
07C0
07C0
07C0
07C0
07C0
07C0
07C0
07C0
07C0
07C0
07C0
07C0
07C0
07C0
07C0
0FC0
7FC0
7FC0
7FC0
7F00
ENDCHAR
STARTCHAR uni0136
ENCODING 310
SWIDTH 866 0
DWIDTH 28 0
BBX 25 33 2 -10
BITMAP
FC007F00
FC01FE00
FC03FC00
FC07F000
FC0FE000
FC1FC000
FC3F8000
FC7F0000
FCFC0000
FFF80000
FFF00000
FFF00000
FFF80000
FDFE0000
FCFF0000
FC7F8000
FC3FC000
FC1FE000
FC07F000
FC03F800
FC01FE00
FC00FF00
FC007F80
00000000
00000000
003E0000
003E0000
003E0000
003E0000
000E0000
000E0000
003C0000
00380000
ENDCHAR
STARTCHAR uni0137
ENCODING 311
SWIDTH 689 0
DWIDTH 22 0
BBX 20 32 2 -9
BITMAP
F80000
F80000
F80000
F80000
F80000
F80000
F80FE0
F81FC0
F83F00
F87E00
F8FC00
FBF800
FFF000
FFE000
FFE000
FFF000
F9F800
F8FC00
F87E00
F83F00
F81F80
F80FC0
F80FF0
000000
000000
01F000
01F000
01F000
01F000
007000
01F000
01C000
ENDCHAR
STARTCHAR kgreenlandic
ENCODING 312
SWIDTH 689 0
DWIDTH 22 0
BBX 20 17 2 0
BITMAP
F80FE0
F81F80
F83F00
F87E00
F8FC00
FBF800
FFF000
FFF000
FFF800
FFFC00
FEFE00
FC7E00
F83F00
F81F80
F81FC0
F80FE0
F807F0
ENDCHAR
STARTCHAR Lacute
ENCODING 313
SWIDTH 775 0
DWIDTH 25 0
BBX 22 30 2 0
BITMAP
1FE000
1F8000
3F0000
7E0000
7C0000
000000
000000
FC0000
FC0000
FC0000
FC0000
FC0000
FC0000
FC0000
FC0000
FC0000
FC0000
FC0000
FC0000
FC0000
FC0000
FC0000
FC0000
FC0000
FC0000
FC0000
FFFFFC
FFFFFC
FFFFFC
FFFFFC
ENDCHAR
STARTCHAR lacute
ENCODING 314
SWIDTH 287 0
DWIDTH 9 0
BBX 11 30 2 0
BITMAP
1FE0
3F80
3F00
7E00
FC00
0000
0000
F800
F800
F800
F800
F800
F800
F800
F800
F800
F800
F800
F800
F800
F800
F800
F800
F800
F800
F800
F800
F800
F800
F800
ENDCHAR
STARTCHAR uni013B
ENCODING 315
SWIDTH 775 0
DWIDTH 25 0
BBX 22 33 2 -10
BITMAP
FC0000
FC0000
FC0000
FC0000
FC0000
FC0000
FC0000
FC0000
FC0000
FC0000
FC0000
FC0000
FC0000
FC0000
FC0000
FC0000
FC0000
FC0000
FC0000
FFFFFC
FFFFFC
FFFFFC
FFFFFC
000000
000000
00FC00
00FC00
00FC00
00FC00
001C00
003800
00F800
00E000
ENDCHAR
STARTCHAR uni013C
ENCODING 316
SWIDTH 287 0
DWIDTH 9 0
BBX 5 32 2 -9
BITMAP
F8
F8
F8
F8
F8
F8
F8
F8
F8
F8
F8
F8
F8
F8
F8
F8
F8
F8
F8
F8
F8
F8
F8
00
00
F8
F8
F8
F8
38
F8
F0
ENDCHAR
STARTCHAR Lcaron
ENCODING 317
SWIDTH 775 0
DWIDTH 25 0
BBX 22 23 2 0
BITMAP
FC3F00
FC3F00
FC3F00
FC3F00
FC0700
FC0E00
FC0E00
FC1E00
FC3C00
FC3800
FC0000
FC0000
FC0000
FC0000
FC0000
FC0000
FC0000
FC0000
FC0000
FFFFFC
FFFFFC
FFFFFC
FFFFFC
ENDCHAR
STARTCHAR lcaron
ENCODING 318
SWIDTH 433 0
DWIDTH 14 0
BBX 12 23 2 0
BITMAP
F9F0
F9F0
F9F0
F9F0
F870
F860
F9E0
F980
F800
F800
F800
F800
F800
F800
F800
F800
F800
F800
F800
F800
F800
F800
F800
ENDCHAR
STARTCHAR Ldot
ENCODING 319
SWIDTH 775 0
DWIDTH 25 0
BBX 22 23 2 0
BITMAP
FC0000
FC0000
FC0000
FC0000
FC0000
FC0000
FC0000
FC0F00
FC1F80
FC1F80
FC1F80
FC1F80
FC1F80
FC0F00
FC0000
FC0000
FC0000
FC0000
FC0000
FFFFFC
FFFFFC
FFFFFC
FFFFFC
ENDCHAR
STARTCHAR ldot
ENCODING 320
SWIDTH 517 0
DWIDTH 17 0
BBX 13 23 2 0
BITMAP
F800
F800
F800
F800
F800
F800
F800
F800
F8F0
F9F8
F9F8
F9F8
F9F8
F9F8
F8F0
F800
F800
F800
F800
F800
F800
F800
F800
ENDCHAR
STARTCHAR Lslash
ENCODING 321
SWIDTH 777 0
DWIDTH 25 0
BBX 24 23 0 0
BITMAP
3F0000
3F0000
3F0000
3F0000
3F0000
3F0040
3F01C0
3F07C0
3F1FC0
3F7FC0
3FFF80
3FFE00
3FF800
7FE000
FF8000
FF0000
FF0000
FF0000
BF0000
3FFFFF
3FFFFF
3FFFFF
3FFFFF
ENDCHAR
STARTCHAR lslash
ENCODING 322
SWIDTH 344 0
DWIDTH 11 0
BBX 9 23 1 0
BITMAP
3E00
3E00
3E00
3E00
3E00
3E00
3E80
3F80
3F80
3F80
7F00
FE00
FE00
FE00
BE00
3E00
3E00
3E00
3E00
3E00
3E00
3E00
3E00
ENDCHAR
STARTCHAR Nacute
ENCODING 323
SWIDTH 923 0
DWIDTH 30 0
BBX 25 30 2 0
BITMAP
0007F000
000FE000
001FC000
001F8000
003E0000
00000000
00000000
FF000F80
FF800F80
FF800F80
FFC00F80
FFE00F80
FFF00F80
FFF00F80
F9F80F80
F8FC0F80
F8FC0F80
F87E0F80
F83F0F80
F81F0F80
F81F8F80
F80FCF80
F807EF80
F807FF80
F803FF80
F801FF80
F800FF80
F800FF80
F8007F80
F8003F80
ENDCHAR
STARTCHAR nacute
ENCODING 324
SWIDTH 748 0
DWIDTH 24 0
BBX 20 24 2 0
BITMAP
003FC0
007F00
007E00
00FC00
00F800
010000
000800
F8FF80
FBFFC0
FFFFE0
FFFFF0
FE07F0
FC03F0
FC01F0
F801F0
F801F0
F801F0
F801F0
F801F0
F801F0
F801F0
F801F0
F801F0
F801F0
ENDCHAR
STARTCHAR uni0145
ENCODING 325
SWIDTH 923 0
DWIDTH 30 0
BBX 25 33 2 -10
BITMAP
FF000F80
FF800F80
FF800F80
FFC00F80
FFE00F80
FFF00F80
FFF00F80
F9F80F80
F8FC0F80
F8FC0F80
F87E0F80
F83F0F80
F81F0F80
F81F8F80
F80FCF80
F807EF80
F807FF80
F803FF80
F801FF80
F800FF80
F800FF80
F8007F80
F8003F80
00000000
00000000
003E0000
003E0000
003E0000
003E0000
000E0000
000E0000
003C0000
00380000
ENDCHAR
STARTCHAR uni0146
ENCODING 326
SWIDTH 748 0
DWIDTH 24 0
BBX 20 27 2 -9
BITMAP
000800
F8FF80
FBFFC0
FFFFE0
FFFFF0
FE07F0
FC03F0
FC01F0
F801F0
F801F0
F801F0
F801F0
F801F0
F801F0
F801F0
F801F0
F801F0
F801F0
000000
000000
01F800
01F800
01F800
01F800
003800
01F000
01E000
ENDCHAR
STARTCHAR Ncaron
ENCODING 327
SWIDTH 923 0
DWIDTH 30 0
BBX 25 30 2 0
BITMAP
0FE3F000
03E7E000
01F7C000
01FF8000
00FF8000
00000000
00000000
FF000F80
FF800F80
FF800F80
FFC00F80
FFE00F80
FFF00F80
FFF00F80
F9F80F80
F8FC0F80
F8FC0F80
F87E0F80
F83F0F80
F81F0F80
F81F8F80
F80FCF80
F807EF80
F807FF80
F803FF80
F801FF80
F800FF80
F800FF80
F8007F80
F8003F80
ENDCHAR
STARTCHAR ncaron
ENCODING 328
SWIDTH 748 0
DWIDTH 24 0
BBX 20 24 2 0
BITMAP
3F0FC0
1F9F80
0FFF00
07FE00
03FC00
000000
000800
F8FF80
FBFFC0
FFFFE0
FFFFF0
FE07F0
FC03F0
FC01F0
F801F0
F801F0
F801F0
F801F0
F801F0
F801F0
F801F0
F801F0
F801F0
F801F0
ENDCHAR
STARTCHAR napostrophe
ENCODING 329
SWIDTH 895 0
DWIDTH 29 0
BBX 26 23 1 0
BITMAP
F0000000
F0000000
F0000000
F0000000
30000000
30002000
F3E7FE00
C3EFFF00
03FFFF80
03FFFF80
03F81FC0
03F00FC0
03E00FC0
03E00FC0
03E00FC0
03E00FC0
03E00FC0
03E00FC0
03E00FC0
03E00FC0
03E00FC0
03E00FC0
03E00FC0
ENDCHAR
STARTCHAR Eng
ENCODING 330
SWIDTH 900 0
DWIDTH 29 0
BBX 25 29 2 -6
BITMAP
FE001F80
FF001F80
FF801F80
FFC01F80
FFE01F80
FFE01F80
FFF01F80
FBF81F80
F9FC1F80
F8FE1F80
F87F1F80
F83F1F80
F83F9F80
F81FDF80
F80FFF80
F807FF80
F803FF80
F801FF80
F800FF80
F800FF80
F8007F80
F8003F80
FBF01F80
03F01F80
01F83F00
01FFFF00
00FFFE00
007FFC00
001FF000
ENDCHAR
STARTCHAR eng
ENCODING 331
SWIDTH 748 0
DWIDTH 24 0
BBX 20 24 2 -6
BITMAP
000800
F8FF80
FBFFE0
FFFFE0
FFFFF0
FE07F0
FC03F0
FC01F0
F801F0
F801F0
F801F0
F801F0
F801F0
F801F0
F801F0
F801F0
F801F0
F801F0
0001F0
0003F0
001FF0
001FF0
001FE0
001FC0
ENDCHAR
STARTCHAR Omacron
ENCODING 332
SWIDTH 951 0
DWIDTH 30 0
BBX 28 29 1 -1
BITMAP
01FFF800
01FFF800
01FFF800
00000000
00000000
007FE000
03FFFC00
07FFFF00
1FFFFF80
3FF07FC0
3F801FE0
7F000FE0
7E0007F0
7E0003F0
FE0003F0
FC0003F0
FC0003F0
FC0003F0
FC0003F0
FE0003F0
7E0007F0
7F0007E0
7F800FE0
3FC03FC0
1FFFFFC0
0FFFFF00
07FFFE00
00FFF800
00060000
ENDCHAR
STARTCHAR omacron
ENCODING 333
SWIDTH 755 0
DWIDTH 24 0
BBX 22 24 1 -1
BITMAP
0FFFC0
0FFFC0
0FFFC0
000000
000000
001000
07FF80
1FFFE0
3FFFF0
7FFFF8
7F03F8
FE00FC
FC00FC
FC00FC
FC00FC
FC00FC
FC00FC
FE00FC
7F03F8
7FFFF8
3FFFF0
1FFFE0
07FF80
003000
ENDCHAR
STARTCHAR Obreve
ENCODING 334
SWIDTH 951 0
DWIDTH 30 0
BBX 28 31 1 -1
BITMAP
01F07800
01F0F800
00FFF000
007FE000
001F8000
00000000
00000000
007FE000
03FFFC00
07FFFF00
1FFFFF80
3FF07FC0
3F801FE0
7F000FE0
7E0007F0
7E0003F0
FE0003F0
FC0003F0
FC0003F0
FC0003F0
FC0003F0
FE0003F0
7E0007F0
7F0007E0
7F800FE0
3FC03FC0
1FFFFFC0
0FFFFF00
07FFFE00
00FFF800
00060000
ENDCHAR
STARTCHAR obreve
ENCODING 335
SWIDTH 755 0
DWIDTH 24 0
BBX 22 25 1 -1
BITMAP
0F87C0
0F87C0
07FF80
03FF00
00FC00
000000
001000
07FF80
1FFFE0
3FFFF0
7FFFF8
7F03F8
FE00FC
FC00FC
FC00FC
FC00FC
FC00FC
FC00FC
FE00FC
7F03F8
7FFFF8
3FFFF0
1FFFE0
07FF80
003000
ENDCHAR
STARTCHAR Ohungarumlaut
ENCODING 336
SWIDTH 951 0
DWIDTH 30 0
BBX 28 31 1 -1
BITMAP
003F3F80
007E3E00
007C7E00
00FC7C00
00F8F800
00000000
00000000
007FE000
03FFFC00
07FFFF00
1FFFFF80
3FF07FC0
3F801FE0
7F000FE0
7E0007F0
7E0003F0
FE0003F0
FC0003F0
FC0003F0
FC0003F0
FC0003F0
FE0003F0
7E0007F0
7F0007E0
7F800FE0
3FC03FC0
1FFFFFC0
0FFFFF00
07FFFE00
00FFF800
00060000
ENDCHAR
STARTCHAR ohungarumlaut
ENCODING 337
SWIDTH 755 0
DWIDTH 24 0
BBX 22 25 1 -1
BITMAP
01F9F8
03F3F0
03E3E0
07C3E0
07C7C0
000000
001000
07FF80
1FFFE0
3FFFF0
7FFFF8
7F03F8
FE00FC
FC00FC
FC00FC
FC00FC
FC00FC
FC00FC
FE00FC
7F03F8
7FFFF8
3FFFF0
1FFFE0
07FF80
003000
ENDCHAR
STARTCHAR OE
ENCODING 338
SWIDTH 1413 0
DWIDTH 45 0
BBX 43 24 1 -1
BITMAP
007FC3FFFFC0
03FFF3FFFFC0
07FFFFFFFFC0
1FFFFFFFFFC0
3FE07FE00000
3F801FE00000
7F000FE00000
7E0007E00000
7E0003E00000
FE0003FFFFC0
FC0003FFFFC0
FC0003FFFFC0
FC0003FFFFC0
FC0003E00000
FE0003E00000
7E0007E00000
7F0007E00000
7F800FE00000
3FC03FE00000
1FFFFFFFFFE0
0FFFFFFFFFE0
07FFFBFFFFE0
01FFE3FFFFE0
000400000000
ENDCHAR
STARTCHAR oe
ENCODING 339
SWIDTH 1209 0
DWIDTH 39 0
BBX 37 19 1 -1
BITMAP
0020002000
07FF07FF00
1FFF8FFF80
3FFFDFFFE0
7FFFFFFFE0
7F03FC03F0
FE01F801F0
FC01FFFFF0
FC00FFFFF8
FC00FFFFF8
FC00FFFFF8
FC01F80000
FE01FC0000
7F03FE03F0
7FFFFFFFF0
3FFFDFFFE0
1FFF8FFFC0
07FF07FF80
0030006000
ENDCHAR
STARTCHAR Racute
ENCODING 340
SWIDTH 875 0
DWIDTH 28 0
BBX 25 30 2 0
BITMAP
000FE000
001FC000
003F8000
003F0000
007C0000
00000000
00000000
FFFFF800
FFFFFE00
FFFFFF00
FFFFFF00
FC007F80
FC003F80
FC001F80
FC001F80
FC003F80
FC003F00
FFFFFE00
FFFFFC00
FFFFF000
FFFFFE00
FC007F00
FC003F00
FC001F00
FC001F00
FC001F00
FC001F00
FC001F00
FC001F00
FC001F00
ENDCHAR
STARTCHAR racute
ENCODING 341
SWIDTH 534 0
DWIDTH 17 0
BBX 15 24 2 0
BITMAP
01FE
01F8
03F0
07E0
07C0
0000
0008
F8FC
FBFC
FFFC
FFFC
FFFC
FE00
FC00
FC00
F800
F800
F800
F800
F800
F800
F800
F800
F800
ENDCHAR
STARTCHAR uni0156
ENCODING 342
SWIDTH 875 0
DWIDTH 28 0
BBX 25 33 2 -10
BITMAP
FFFFF800
FFFFFE00
FFFFFF00
FFFFFF00
FC007F80
FC003F80
FC001F80
FC001F80
FC003F80
FC003F00
FFFFFE00
FFFFFC00
FFFFF000
FFFFFE00
FC007F00
FC003F00
FC001F00
FC001F00
FC001F00
FC001F00
FC001F00
FC001F00
FC001F00
00000000
00000000
003E0000
003E0000
003E0000
003E0000
000E0000
000E0000
003C0000
00380000
ENDCHAR
STARTCHAR uni0157
ENCODING 343
SWIDTH 534 0
DWIDTH 17 0
BBX 14 27 2 -9
BITMAP
0008
F8FC
FBFC
FFFC
FFFC
FFFC
FE00
FC00
FC00
F800
F800
F800
F800
F800
F800
F800
F800
F800
0000
0000
F800
F800
F800
F800
3800
F800
F000
ENDCHAR
STARTCHAR Rcaron
ENCODING 344
SWIDTH 875 0
DWIDTH 28 0
BBX 25 30 2 0
BITMAP
0FC3F000
07E7E000
03FFC000
01FF8000
00FF0000
00000000
00000000
FFFFF800
FFFFFE00
FFFFFF00
FFFFFF00
FC007F80
FC003F80
FC001F80
FC001F80
FC003F80
FC003F00
FFFFFE00
FFFFFC00
FFFFF000
FFFFFE00
FC007F00
FC003F00
FC001F00
FC001F00
FC001F00
FC001F00
FC001F00
FC001F00
FC001F00
ENDCHAR
STARTCHAR rcaron
ENCODING 345
SWIDTH 534 0
DWIDTH 17 0
BBX 16 24 1 0
BITMAP
FC3F
7E7E
3FFC
1FF8
0FF0
0000
0004
7C7E
7DFE
7FFE
7FFE
7FFE
7F00
7E00
7E00
7C00
7C00
7C00
7C00
7C00
7C00
7C00
7C00
7C00
ENDCHAR
STARTCHAR Sacute
ENCODING 346
SWIDTH 836 0
DWIDTH 27 0
BBX 25 31 1 -1
BITMAP
000FF000
001FC000
001F8000
003F0000
003E0000
00000000
00000000
03FF8000
0FFFF000
3FFFFC00
7FFFFE00
7F81FE00
FE007F00
FE007F00
FE000000
FF000000
7FFE0000
7FFFF800
3FFFFE00
07FFFF00
001FFF00
00007F80
FC003F80
FC003F80
FC003F80
FF007F00
7FFFFF00
7FFFFE00
3FFFFC00
07FFF000
001C0000
ENDCHAR
STARTCHAR sacute
ENCODING 347
SWIDTH 706 0
DWIDTH 23 0
BBX 21 25 1 -1
BITMAP
003FC0
007F00
007E00
00FC00
01F800
000000
004000
1FFF00
3FFFC0
7FFFE0
FFFFE0
FC03F0
FC03F0
7F8000
7FFF80
1FFFE0
01FFF0
0003F0
FC01F8
FC03F8
FFFFF0
7FFFF0
7FFFE0
1FFF80
006000
ENDCHAR
STARTCHAR Scircumflex
ENCODING 348
SWIDTH 836 0
DWIDTH 27 0
BBX 25 31 1 -1
BITMAP
00FF0000
01FF8000
03FFC000
07E7E000
0FC3F000
00000000
00000000
03FF8000
0FFFF000
3FFFFC00
7FFFFE00
7F81FE00
FE007F00
FE007F00
FE000000
FF000000
7FFE0000
7FFFF800
3FFFFE00
07FFFF00
001FFF00
00007F80
FC003F80
FC003F80
FC003F80
FF007F00
7FFFFF00
7FFFFE00
3FFFFC00
07FFF000
001C0000
ENDCHAR
STARTCHAR scircumflex
ENCODING 349
SWIDTH 706 0
DWIDTH 23 0
BBX 21 25 1 -1
BITMAP
03FC00
07FE00
0FFF00
1F9F80
3F1FC0
000000
004000
1FFF00
3FFFC0
7FFFE0
FFFFE0
FC03F0
FC03F0
7F8000
7FFF80
1FFFE0
01FFF0
0003F0
FC01F8
FC03F8
FFFFF0
7FFFF0
7FFFE0
1FFF80
006000
ENDCHAR
STARTCHAR Scedilla
ENCODING 350
SWIDTH 836 0
DWIDTH 27 0
BBX 25 31 1 -8
BITMAP
03FF8000
0FFFF000
3FFFFC00
7FFFFE00
7F81FE00
FE007F00
FE007F00
FE000000
FF000000
7FFE0000
7FFFF800
3FFFFE00
07FFFF00
001FFF00
00007F00
FC003F80
FC003F80
FC003F80
FF007F00
7FFFFF00
7FFFFE00
3FFFFC00
0FFFF800
003E0000
003E0000
003FC000
003FC000
0003C000
00C7C000
00FFC000
00FF0000
ENDCHAR
STARTCHAR scedilla
ENCODING 351
SWIDTH 706 0
DWIDTH 23 0
BBX 21 26 1 -8
BITMAP
004000
1FFF00
3FFFC0
7FFFE0
FFFFE0
FC03F0
FC03F0
7F0000
7FFF00
1FFFE0
01FFF0
0003F0
FC01F8
FC03F8
FFFFF0
7FFFF0
7FFFE0
1FFFC0
00F800
00F800
00FF00
00FF00
000F00
030F00
03FF00
03FC00
ENDCHAR
STARTCHAR Scaron
ENCODING 352
SWIDTH 836 0
DWIDTH 27 0
BBX 25 31 1 -1
BITMAP
0FC3F000
07E7E000
03FFC000
01FF8000
00FF0000
00000000
00000000
03FF8000
0FFFF000
3FFFFC00
7FFFFE00
7F81FE00
FE007F00
FE007F00
FE000000
FF000000
7FFE0000
7FFFF800
3FFFFE00
07FFFF00
001FFF00
00007F80
FC003F80
FC003F80
FC003F80
FF007F00
7FFFFF00
7FFFFE00
3FFFFC00
07FFF000
001C0000
ENDCHAR
STARTCHAR scaron
ENCODING 353
SWIDTH 706 0
DWIDTH 23 0
BBX 21 25 1 -1
BITMAP
3F1FC0
1F9F80
0FFF00
07FE00
03FC00
000000
004000
1FFF00
3FFFC0
7FFFE0
FFFFE0
FC03F0
FC03F0
7F8000
7FFF80
1FFFE0
01FFF0
0003F0
FC01F8
FC03F8
FFFFF0
7FFFF0
7FFFE0
1FFF80
006000
ENDCHAR
STARTCHAR uni0162
ENCODING 354
SWIDTH 790 0
DWIDTH 25 0
BBX 24 31 1 -8
BITMAP
FFFFFF
FFFFFF
FFFFFF
FFFFFF
007C00
007C00
007C00
007C00
007C00
007C00
007C00
007C00
007C00
007C00
007C00
007C00
007C00
007C00
007C00
007C00
007C00
007C00
007C00
003800
007400
007F80
007F80
0007C0
018780
01FF80
01FE00
ENDCHAR
STARTCHAR uni0163
ENCODING 355
SWIDTH 486 0
DWIDTH 16 0
BBX 14 30 0 -7
BITMAP
1F80
1F80
1F80
1F80
1F80
1F80
FFF8
FFF8
FFF8
FFF8
1F80
1F80
1F80
1F80
1F80
1F80
1F80
1F80
1F80
1FF8
0FF8
0FF8
03F8
01C0
03F8
03FC
003C
083C
0FFC
0FF8
ENDCHAR
STARTCHAR Tcaron
ENCODING 356
SWIDTH 790 0
DWIDTH 25 0
BBX 24 30 1 0
BITMAP
0FC7F0
07E7C0
03FFC0
01FF80
00FF00
000000
000000
FFFFFF
FFFFFF
FFFFFF
FFFFFF
007C00
007C00
007C00
007C00
007C00
007C00
007C00
007C00
007C00
007C00
007C00
007C00
007C00
007C00
007C00
007C00
007C00
007C00
007C00
ENDCHAR
STARTCHAR tcaron
ENCODING 357
SWIDTH 507 0
DWIDTH 16 0
BBX 15 27 0 0
BITMAP
001E
001E
001E
001E
0006
1F8E
1F9C
1F98
1F80
1F80
FFF8
FFF8
FFF8
FFF8
1F80
1F80
1F80
1F80
1F80
1F80
1F80
1F80
1F80
1FF8
0FF8
0FF8
03F8
ENDCHAR
STARTCHAR Tbar
ENCODING 358
SWIDTH 790 0
DWIDTH 25 0
BBX 24 23 1 0
BITMAP
FFFFFF
FFFFFF
FFFFFF
FFFFFF
007C00
007C00
007C00
007C00
007C00
007C00
0FFFE0
0FFFE0
0FFFE0
0FFFE0
007C00
007C00
007C00
007C00
007C00
007C00
007C00
007C00
007C00
ENDCHAR
STARTCHAR tbar
ENCODING 359
SWIDTH 457 0
DWIDTH 15 0
BBX 13 23 0 0
BITMAP
1F80
1F80
1F80
1F80
1F80
1F80
FFF8
FFF8
FFF8
FFF8
1F80
FFF8
FFF8
FFF8
1F80
1F80
1F80
1F80
1F80
1FF8
0FF8
0FF8
03F8
ENDCHAR
STARTCHAR Utilde
ENCODING 360
SWIDTH 897 0
DWIDTH 29 0
BBX 25 31 2 -1
BITMAP
01F0F000
03FCF000
07FFF000
07FFE000
079FE000
0787C000
00000000
FC001F80
FC001F80
FC001F80
FC001F80
FC001F80
FC001F80
FC001F80
FC001F80
FC001F80
FC001F80
FC001F80
FC001F80
FC001F80
FC001F80
FC001F80
FC001F00
FC003F00
7E003F00
7F00FF00
3FFFFE00
3FFFFC00
0FFFF800
03FFE000
00080000
ENDCHAR
STARTCHAR utilde
ENCODING 361
SWIDTH 748 0
DWIDTH 24 0
BBX 20 26 2 -1
BITMAP
0F83C0
1FF780
1FFF80
1FFF80
3C7F00
3C1E00
000000
000000
F801F0
F801F0
F801F0
F801F0
F801F0
F801F0
F801F0
F801F0
F801F0
F801F0
F803F0
FC03F0
FE07F0
FFFFF0
7FFFF0
7FFDF0
1FF1F0
010000
ENDCHAR
STARTCHAR Umacron
ENCODING 362
SWIDTH 897 0
DWIDTH 29 0
BBX 25 29 2 -1
BITMAP
07FFE000
07FFE000
07FFE000
00000000
00000000
FC001F80
FC001F80
FC001F80
FC001F80
FC001F80
FC001F80
FC001F80
FC001F80
FC001F80
FC001F80
FC001F80
FC001F80
FC001F80
FC001F80
FC001F80
FC001F00
FC003F00
7E003F00
7F00FF00
3FFFFE00
3FFFFC00
0FFFF800
03FFE000
00080000
ENDCHAR
STARTCHAR umacron
ENCODING 363
SWIDTH 748 0
DWIDTH 24 0
BBX 20 24 2 -1
BITMAP
1FFF80
1FFF80
1FFF80
000000
000000
000000
F801F0
F801F0
F801F0
F801F0
F801F0
F801F0
F801F0
F801F0
F801F0
F801F0
F803F0
FC03F0
FE07F0
FFFFF0
7FFFF0
7FFDF0
1FF1F0
010000
ENDCHAR
STARTCHAR Ubreve
ENCODING 364
SWIDTH 897 0
DWIDTH 29 0
BBX 25 31 2 -1
BITMAP
07C1E000
03E3E000
03FFC000
01FF8000
007E0000
00000000
00000000
FC001F80
FC001F80
FC001F80
FC001F80
FC001F80
FC001F80
FC001F80
FC001F80
FC001F80
FC001F80
FC001F80
FC001F80
FC001F80
FC001F80
FC001F80
FC001F00
FC003F00
7E003F00
7F00FF00
3FFFFE00
3FFFFC00
0FFFF800
03FFE000
00080000
ENDCHAR
STARTCHAR ubreve
ENCODING 365
SWIDTH 748 0
DWIDTH 24 0
BBX 20 25 2 -1
BITMAP
1F0F80
1F0F80
0FFF00
07FE00
01F800
000000
000000
F801F0
F801F0
F801F0
F801F0
F801F0
F801F0
F801F0
F801F0
F801F0
F801F0
F803F0
FC03F0
FE07F0
FFFFF0
7FFFF0
7FFDF0
1FF1F0
010000
ENDCHAR
STARTCHAR Uring
ENCODING 366
SWIDTH 897 0
DWIDTH 29 0
BBX 25 33 2 -1
BITMAP
003E0000
00FF0000
00FF8000
01E38000
01E38000
00FF8000
00FF0000
003E0000
00000000
FC001F80
FC001F80
FC001F80
FC001F80
FC001F80
FC001F80
FC001F80
FC001F80
FC001F80
FC001F80
FC001F80
FC001F80
FC001F80
FC001F80
FC001F80
FC001F00
FC003F00
7E003F00
7F00FF00
3FFFFE00
3FFFFC00
0FFFF800
03FFE000
00080000
ENDCHAR
STARTCHAR uring
ENCODING 367
SWIDTH 748 0
DWIDTH 24 0
BBX 20 28 2 -1
BITMAP
01F800
03FC00
07FE00
070E00
070E00
07FE00
03FC00
01F800
000000
000000
F801F0
F801F0
F801F0
F801F0
F801F0
F801F0
F801F0
F801F0
F801F0
F801F0
F803F0
FC03F0
FE07F0
FFFFF0
7FFFF0
7FFDF0
1FF1F0
010000
ENDCHAR
STARTCHAR Uhungarumlaut
ENCODING 368
SWIDTH 897 0
DWIDTH 29 0
BBX 25 31 2 -1
BITMAP
00FEFE00
00F8FC00
01F9F800
01F1F000
03E3E000
00000000
00000000
FC001F80
FC001F80
FC001F80
FC001F80
FC001F80
FC001F80
FC001F80
FC001F80
FC001F80
FC001F80
FC001F80
FC001F80
FC001F80
FC001F80
FC001F80
FC001F00
FC003F00
7E003F00
7F00FF00
3FFFFE00
3FFFFC00
0FFFF800
03FFE000
00080000
ENDCHAR
STARTCHAR uhungarumlaut
ENCODING 369
SWIDTH 748 0
DWIDTH 24 0
BBX 20 25 2 -1
BITMAP
03F3F0
07E7E0
07C7C0
0F8FC0
0F8F80
000000
000000
F801F0
F801F0
F801F0
F801F0
F801F0
F801F0
F801F0
F801F0
F801F0
F801F0
F803F0
FC03F0
FE07F0
FFFFF0
7FFFF0
7FFDF0
1FF1F0
010000
ENDCHAR
STARTCHAR Uogonek
ENCODING 370
SWIDTH 897 0
DWIDTH 29 0
BBX 25 30 2 -7
BITMAP
FC001F80
FC001F80
FC001F80
FC001F80
FC001F80
FC001F80
FC001F80
FC001F80
FC001F80
FC001F80
FC001F80
FC001F80
FC001F80
FC001F80
FC001F80
FC001F00
FC003F00
7E003F00
7F00FF00
3FFFFE00
3FFFFC00
0FFFF000
03FFC000
001F0000
001E0000
003C0000
007C0000
007FC000
003FC000
001FC000
ENDCHAR
STARTCHAR uogonek
ENCODING 371
SWIDTH 748 0
DWIDTH 24 0
BBX 20 25 2 -8
BITMAP
F801F0
F801F0
F801F0
F801F0
F801F0
F801F0
F801F0
F801F0
F801F0
F801F0
F803F0
FC03F0
FE07F0
FFFFF0
7FFFF0
7FFDF0
1FF1F0
0103E0
0007C0
000F80
000F00
001F80
000FF0
000FF0
0003F0
ENDCHAR
STARTCHAR Wcircumflex
ENCODING 372
SWIDTH 1234 0
DWIDTH 39 0
BBX 39 30 0 0
BITMAP
0001FE0000
0003FF0000
0007FF8000
000FCFC000
001F8FE000
0000000000
0000000000
FC00FE007E
7E00FE007E
7E00FF007E
7E00FF00FC
3F01FF00FC
3F01FF80FC
3F01FF81F8
1F03EF81F8
1F83E781F8
1F83C7C1F0
1F87C7C3F0
0F87C3C3F0
0FC7C3E3E0
0FC783E3E0
07CF83E7E0
07EF81F7C0
07FF01FFC0
03FF01FFC0
03FF00FF80
03FF00FF80
01FE00FF80
01FE00FF00
01FE007F00
ENDCHAR
STARTCHAR wcircumflex
ENCODING 373
SWIDTH 1126 0
DWIDTH 36 0
BBX 36 24 0 0
BITMAP
0003FC0000
0007FE0000
000FFF0000
001F9F8000
003F1FC000
0000000000
0000000000
FC01F803F0
7E03FC07E0
7E03FC07E0
3F03FE07C0
3F07FE0FC0
3F07FE0FC0
1F879F0F80
1F8F9F1F80
0F8F9F1F00
0FDF0F9F00
0FDF0FBF00
07FF0FFE00
07FE07FE00
03FE07FC00
03FE03FC00
03FC03FC00
01FC03F800
ENDCHAR
STARTCHAR Ycircumflex
ENCODING 374
SWIDTH 865 0
DWIDTH 28 0
BBX 28 30 0 0
BITMAP
003FC000
007FE000
00FFF000
01F9F800
03F0FC00
00000000
00000000
FE000FF0
7F000FE0
3F801FC0
1F803F80
1FC03F00
0FE07F00
07E0FE00
03F0FC00
03F9F800
01FFF800
00FFF000
007FE000
007FC000
003F8000
001F8000
001F8000
001F8000
001F8000
001F8000
001F8000
001F8000
001F8000
001F8000
ENDCHAR
STARTCHAR ycircumflex
ENCODING 375
SWIDTH 722 0
DWIDTH 23 0
BBX 23 30 0 -6
BITMAP
01FF00
01FF80
03FF80
07EFC0
1FC7F0
000000
000000
FE00FE
7E00FC
7E00FC
3F01F8
3F01F8
1F83F0
1F83F0
0FC7E0
0FC7E0
07E7C0
07EFC0
03EF80
03FF80
01FF00
01FF00
00FE00
00FE00
00FC00
01FC00
3FF800
3FF000
3FE000
3FC000
ENDCHAR
STARTCHAR Ydieresis
ENCODING 376
SWIDTH 865 0
DWIDTH 28 0
BBX 28 29 0 0
BITMAP
01F0F800
01F0F800
01F0F800
01F0F800
00000000
00000000
FE000FF0
7F000FE0
3F801FC0
1F803F80
1FC03F00
0FE07F00
07E0FE00
03F0FC00
03F9F800
01FFF800
00FFF000
007FE000
007FC000
003F8000
001F8000
001F8000
001F8000
001F8000
001F8000
001F8000
001F8000
001F8000
001F8000
ENDCHAR
STARTCHAR Zacute
ENCODING 377
SWIDTH 839 0
DWIDTH 27 0
BBX 24 30 1 0
BITMAP
0007F8
000FE0
000FC0
001F80
003F00
000000
000000
7FFFFF
7FFFFF
7FFFFF
7FFFFF
0000FF
0003FE
0007FC
000FF8
001FE0
003FC0
007F80
00FF00
01FE00
03FC00
07F800
0FF000
1FE000
3FC000
7F8000
FFFFFF
FFFFFF
FFFFFF
FFFFFF
ENDCHAR
STARTCHAR zacute
ENCODING 378
SWIDTH 679 0
DWIDTH 22 0
BBX 19 24 1 0
BITMAP
003FC0
003F80
007E00
007C00
00F800
000000
000000
7FFFE0
7FFFE0
7FFFE0
7FFFE0
001FE0
003FC0
00FF80
01FE00
03FC00
0FF800
1FE000
3FC000
FF0000
FFFFE0
FFFFE0
FFFFE0
FFFFE0
ENDCHAR
STARTCHAR Zdotaccent
ENCODING 379
SWIDTH 839 0
DWIDTH 27 0
BBX 24 29 1 0
BITMAP
003E00
003E00
003E00
003E00
000000
000000
7FFFFF
7FFFFF
7FFFFF
7FFFFF
0000FF
0003FE
0007FC
000FF8
001FE0
003FC0
007F80
00FF00
01FE00
03FC00
07F800
0FF000
1FE000
3FC000
7F8000
FFFFFF
FFFFFF
FFFFFF
FFFFFF
ENDCHAR
STARTCHAR zdotaccent
ENCODING 380
SWIDTH 679 0
DWIDTH 22 0
BBX 19 24 1 0
BITMAP
00F800
00F800
00F800
00F800
000000
000000
000000
7FFFE0
7FFFE0
7FFFE0
7FFFE0
001FE0
003FC0
00FF80
01FE00
03FC00
0FF800
1FE000
3FC000
FF0000
FFFFE0
FFFFE0
FFFFE0
FFFFE0
ENDCHAR
STARTCHAR Zcaron
ENCODING 381
SWIDTH 839 0
DWIDTH 27 0
BBX 24 30 1 0
BITMAP
07E3F8
03F3E0
01FFE0
00FFC0
007F80
000000
000000
7FFFFF
7FFFFF
7FFFFF
7FFFFF
0000FF
0003FE
0007FC
000FF8
001FE0
003FC0
007F80
00FF00
01FE00
03FC00
07F800
0FF000
1FE000
3FC000
7F8000
FFFFFF
FFFFFF
FFFFFF
FFFFFF
ENDCHAR
STARTCHAR zcaron
ENCODING 382
SWIDTH 679 0
DWIDTH 22 0
BBX 19 24 1 0
BITMAP
3F8FC0
0F9F80
0FFF00
07FE00
03FC00
000000
000000
7FFFE0
7FFFE0
7FFFE0
7FFFE0
001FE0
003FC0
00FF80
01FE00
03FC00
0FF800
1FE000
3FC000
FF0000
FFFFE0
FFFFE0
FFFFE0
FFFFE0
ENDCHAR
STARTCHAR florin
ENCODING 402
SWIDTH 576 0
DWIDTH 18 0
BBX 18 25 0 -1
BITMAP
001FC0
003FC0
007FC0
00FFC0
00FC00
00F800
00F800
01F800
01F800
1FFF80
1FFF80
1FFF80
1FFF80
03F000
03F000
03E000
03E000
07E000
07E000
07E000
FFC000
FFC000
FF8000
FF0000
600000
ENDCHAR
STARTCHAR Oslashacute
ENCODING 510
SWIDTH 951 0
DWIDTH 30 0
BBX 28 31 1 -1
BITMAP
0003FF00
0003FC00
0007F000
000FE000
001FC000
00000000
00000040
003FE0F0
03FFFDF0
07FFFFC0
1FFFFF80
1FF07FC0
3F801FE0
7F003FE0
7E007FF0
7E00F7F0
FE01E3F0
FC03C3F0
FC0783F0
FC1F03F0
FC3C03F0
FE7803F0
7EF007F0
7FE007E0
7FC00FE0
3FC03FC0
1FFFFFC0
1FFFFF00
3FFFFE00
F1FFF800
20060000
ENDCHAR
STARTCHAR oslashacute
ENCODING 511
SWIDTH 755 0
DWIDTH 24 0
BBX 22 25 1 -1
BITMAP
001FE0
003F80
003F00
007E00
007C00
000000
001000
07FF9C
1FFFF8
3FFFF0
7FFFF8
7F03F8
FE07FC
FC0EFC
FC1CFC
FC78FC
FCE0FC
FDC0FC
FF80FC
7F03F8
7FFFF8
3FFFF0
7FFFE0
E7FF80
003000
ENDCHAR
STARTCHAR uni0218
ENCODING 536
SWIDTH 836 0
DWIDTH 27 0
BBX 25 33 1 -10
BITMAP
03FF8000
0FFFF000
3FFFFC00
7FFFFE00
7F81FE00
FE007F00
FE007F00
FE000000
FF000000
7FFE0000
7FFFF800
3FFFFE00
07FFFF00
001FFF00
00007F80
FC003F80
FC003F80
FC003F80
FF007F00
7FFFFF00
7FFFFE00
3FFFFC00
07FFF000
001C0000
00000000
007E0000
007E0000
007E0000
007E0000
000E0000
001E0000
007C0000
00700000
ENDCHAR
STARTCHAR uni0219
ENCODING 537
SWIDTH 706 0
DWIDTH 23 0
BBX 21 27 1 -9
BITMAP
004000
1FFF00
3FFFC0
7FFFE0
FFFFE0
FC03F0
FC03F0
7F8000
7FFF80
1FFFE0
01FFF0
0003F0
FC01F8
FC03F8
FFFFF0
7FFFF0
7FFFE0
1FFF80
006000
000000
01F800
01F800
01F800
01F800
003800
01F000
01E000
ENDCHAR
STARTCHAR uni021A
ENCODING 538
SWIDTH 790 0
DWIDTH 25 0
BBX 24 33 1 -10
BITMAP
FFFFFF
FFFFFF
FFFFFF
FFFFFF
007C00
007C00
007C00
007C00
007C00
007C00
007C00
007C00
007C00
007C00
007C00
007C00
007C00
007C00
007C00
007C00
007C00
007C00
007C00
000000
000000
007C00
007C00
007C00
007C00
001C00
001C00
007C00
007000
ENDCHAR
STARTCHAR uni021B
ENCODING 539
SWIDTH 457 0
DWIDTH 15 0
BBX 13 32 0 -9
BITMAP
1F80
1F80
1F80
1F80
1F80
1F80
FFF8
FFF8
FFF8
FFF8
1F80
1F80
1F80
1F80
1F80
1F80
1F80
1F80
1F80
1FF8
0FF8
0FF8
03F8
0000
0000
03E0
03E0
03E0
03E0
00E0
03E0
0380
ENDCHAR
STARTCHAR uni0237
ENCODING 567
SWIDTH 287 0
DWIDTH 9 0
BBX 9 23 -2 -6
BITMAP
0F80
0F80
0F80
0F80
0F80
0F80
0F80
0F80
0F80
0F80
0F80
0F80
0F80
0F80
0F80
0F80
0F80
0F80
1F80
FF80
FF80
FF80
FE00
ENDCHAR
STARTCHAR uni02BC
ENCODING 700
SWIDTH 313 0
DWIDTH 10 0
BBX 6 10 2 13
BITMAP
FC
FC
FC
FC
1C
1C
3C
38
F8
E0
ENDCHAR
STARTCHAR circumflex
ENCODING 710
SWIDTH 639 0
DWIDTH 20 0
BBX 16 5 2 19
BITMAP
0FF0
1FF8
3FFC
7E7E
FC3F
ENDCHAR
STARTCHAR caron
ENCODING 711
SWIDTH 639 0
DWIDTH 20 0
BBX 16 5 2 19
BITMAP
FC3F
7E7E
3FFC
1FF8
0FF0
ENDCHAR
STARTCHAR breve
ENCODING 728
SWIDTH 568 0
DWIDTH 18 0
BBX 14 5 2 19
BITMAP
F87C
F87C
7FF8
3FF0
0FC0
ENDCHAR
STARTCHAR dotaccent
ENCODING 729
SWIDTH 309 0
DWIDTH 10 0
BBX 6 4 2 20
BITMAP
FC
FC
FC
FC
ENDCHAR
STARTCHAR ring
ENCODING 730
SWIDTH 453 0
DWIDTH 15 0
BBX 10 8 2 19
BITMAP
1F00
7F80
FFC0
F1C0
F1C0
FFC0
7F80
1F00
ENDCHAR
STARTCHAR ogonek
ENCODING 731
SWIDTH 404 0
DWIDTH 13 0
BBX 9 8 2 -7
BITMAP
0F80
3E00
7C00
F800
F800
FF80
7F80
3F80
ENDCHAR
STARTCHAR tilde
ENCODING 732
SWIDTH 611 0
DWIDTH 20 0
BBX 15 6 2 19
BITMAP
3E1E
7F9E
7FFE
FFFE
F1FC
F078
ENDCHAR
STARTCHAR hungarumlaut
ENCODING 733
SWIDTH 660 0
DWIDTH 21 0
BBX 17 5 2 19
BITMAP
3FBF80
3F3F00
7E7E00
7C7C00
F8F800
ENDCHAR
STARTCHAR gravecomb
ENCODING 768
SWIDTH 0 0
DWIDTH 0 0
BBX 10 5 2 19
BITMAP
FF00
3F80
1F80
0FC0
07C0
ENDCHAR
STARTCHAR acutecomb
ENCODING 769
SWIDTH 0 0
DWIDTH 0 0
BBX 10 5 2 19
BITMAP
1FC0
3F80
7F00
7E00
F800
ENDCHAR
STARTCHAR uni0326
ENCODING 806
SWIDTH 0 0
DWIDTH 0 0
BBX 6 7 2 -9
BITMAP
FC
FC
FC
FC
1C
F8
F0
ENDCHAR
STARTCHAR uni0400
ENCODING 1024
SWIDTH 795 0
DWIDTH 25 0
BBX 22 30 2 0
BITMAP
1FE000
07E000
03F000
01F000
00F800
000000
000000
FFFFFC
FFFFFC
FFFFFC
FFFFFC
FC0000
FC0000
FC0000
FC0000
FC0000
FFFFF8
FFFFF8
FFFFF8
FFFFF8
FC0000
FC0000
FC0000
FC0000
FC0000
FC0000
FFFFFC
FFFFFC
FFFFFC
FFFFFC
ENDCHAR
STARTCHAR uni0401
ENCODING 1025
SWIDTH 795 0
DWIDTH 25 0
BBX 22 29 2 0
BITMAP
0F8FC0
0F8FC0
0F8FC0
0F8FC0
000000
000000
FFFFFC
FFFFFC
FFFFFC
FFFFFC
FC0000
FC0000
FC0000
FC0000
FC0000
FFFFF8
FFFFF8
FFFFF8
FFFFF8
FC0000
FC0000
FC0000
FC0000
FC0000
FC0000
FFFFFC
FFFFFC
FFFFFC
FFFFFC
ENDCHAR
STARTCHAR uni0402
ENCODING 1026
SWIDTH 1045 0
DWIDTH 33 0
BBX 31 23 1 0
BITMAP
FFFFFF00
FFFFFF00
FFFFFF00
FFFFFF00
007C0000
007C0000
007C0000
007C0000
007C0000
007C7FE0
007FFFF8
007FFFFC
007FFFFE
007F00FE
007C007E
007C007E
007C007E
007C00FE
007C0FFE
007C0FFE
007C0FFC
007C0FF8
007C0FE0
ENDCHAR
STARTCHAR uni0403
ENCODING 1027
SWIDTH 739 0
DWIDTH 24 0
BBX 21 30 2 0
BITMAP
001FE0
003F80
003F00
007E00
007C00
008000
000000
FFFFF8
FFFFF8
FFFFF8
FFFFF8
FC0000
FC0000
FC0000
FC0000
FC0000
FC0000
FC0000
FC0000
FC0000
FC0000
FC0000
FC0000
FC0000
FC0000
FC0000
FC0000
FC0000
FC0000
FC0000
ENDCHAR
STARTCHAR uni0404
ENCODING 1028
SWIDTH 934 0
DWIDTH 30 0
BBX 28 25 1 -1
BITMAP
00020000
00FFF800
03FFFE00
0FFFFF80
1FFFFFC0
3FC03FC0
3F800FE0
7F000FE0
7E0007E0
FE0007F0
FFFF8000
FFFF8000
FFFF8000
FFFF8000
FE000000
FE0007F0
7E0007E0
7F000FE0
3F800FE0
3FC03FC0
1FFFFF80
0FFFFF00
07FFFE00
00FFF800
00060000
ENDCHAR
STARTCHAR uni0405
ENCODING 1029
SWIDTH 836 0
DWIDTH 27 0
BBX 25 24 1 -1
BITMAP
03FF8000
0FFFF000
3FFFFC00
7FFFFE00
7F81FE00
FE007F00
FE007F00
FE000000
FF000000
7FFE0000
7FFFF800
3FFFFE00
07FFFF00
001FFF00
00007F80
FC003F80
FC003F80
FC003F80
FF007F00
7FFFFF00
7FFFFE00
3FFFFC00
07FFF000
001C0000
ENDCHAR
STARTCHAR uni0406
ENCODING 1030
SWIDTH 594 0
DWIDTH 19 0
BBX 19 23 0 0
BITMAP
FFFFE0
FFFFE0
FFFFE0
FFFFE0
01F000
01F000
01F000
01F000
01F000
01F000
01F000
01F000
01F000
01F000
01F000
01F000
01F000
01F000
01F000
FFFFE0
FFFFE0
FFFFE0
FFFFE0
ENDCHAR
STARTCHAR uni0407
ENCODING 1031
SWIDTH 594 0
DWIDTH 19 0
BBX 19 29 0 0
BITMAP
1F1F00
1F1F00
1F1F00
1F1F00
000000
000000
FFFFE0
FFFFE0
FFFFE0
FFFFE0
01F000
01F000
01F000
01F000
01F000
01F000
01F000
01F000
01F000
01F000
01F000
01F000
01F000
01F000
01F000
FFFFE0
FFFFE0
FFFFE0
FFFFE0
ENDCHAR
STARTCHAR uni0408
ENCODING 1032
SWIDTH 807 0
DWIDTH 26 0
BBX 23 24 1 -1
BITMAP
00007E
00007E
00007E
00007E
00007E
00007E
00007E
00007E
00007E
00007E
00007E
00007E
F8007E
F8007E
F8007E
FC007E
FC007C
FC00FC
7F01FC
7FFFF8
3FFFF0
1FFFE0
07FF80
001000
ENDCHAR
STARTCHAR uni0409
ENCODING 1033
SWIDTH 1473 0
DWIDTH 47 0
BBX 45 23 1 0
BITMAP
03FFFFC00000
03FFFFC00000
03FFFFC00000
03FFFFC00000
03E00FC00000
03E00FC00000
03E00FC00000
07E00FC00000
07E00FFFFF00
07E00FFFFFC0
07E00FFFFFE0
07E00FFFFFF0
07C00FC007F0
07C00FC003F8
0FC00FC001F8
0FC00FC001F8
0FC00FC001F8
1F800FC003F8
FF800FC007F8
FF000FFFFFF0
FF000FFFFFF0
FE000FFFFFE0
F8000FFFFF80
ENDCHAR
STARTCHAR uni040A
ENCODING 1034
SWIDTH 1463 0
DWIDTH 47 0
BBX 44 23 2 0
BITMAP
FC001F800000
FC001F800000
FC001F800000
FC001F800000
FC001F800000
FC001F800000
FC001F800000
FC001F800000
FC001F800000
FFFFFFFFFE00
FFFFFFFFFF80
FFFFFFFFFFC0
FFFFFFFFFFE0
FC001F800FE0
FC001F8007E0
FC001F8007F0
FC001F8007F0
FC001F8007E0
FC001F800FE0
FC001FFFFFE0
FC001FFFFFC0
FC001FFFFF80
FC001FFFFE00
ENDCHAR
STARTCHAR uni040B
ENCODING 1035
SWIDTH 1045 0
DWIDTH 33 0
BBX 31 23 1 0
BITMAP
FFFFFF00
FFFFFF00
FFFFFF00
FFFFFF00
007C0000
007C0000
007C0000
007C0000
007C0000
007C7FE0
007FFFF8
007FFFFC
007FFFFE
007F81FE
007E007E
007C007E
007C003E
007C003E
007C003E
007C003E
007C003E
007C003E
007C003E
ENDCHAR
STARTCHAR uni040C
ENCODING 1036
SWIDTH 866 0
DWIDTH 28 0
BBX 25 30 2 0
BITMAP
000FF000
000FC000
001F8000
003F0000
003E0000
00000000
00000000
FC007F00
FC01FE00
FC03FC00
FC07F000
FC0FE000
FC1FC000
FC3F8000
FC7F0000
FCFC0000
FFF80000
FFF00000
FFF00000
FFF80000
FDFE0000
FCFF0000
FC7F8000
FC3FC000
FC1FE000
FC07F000
FC03F800
FC01FE00
FC00FF00
FC007F80
ENDCHAR
STARTCHAR uni040D
ENCODING 1037
SWIDTH 923 0
DWIDTH 30 0
BBX 25 30 2 0
BITMAP
07F80000
01FC0000
00FC0000
007E0000
003F0000
00000000
00000000
FC007F80
FC007F80
FC00FF80
FC01FF80
FC01FF80
FC03FF80
FC07FF80
FC07CF80
FC0FCF80
FC1F8F80
FC1F0F80
FC3F0F80
FC7E0F80
FCFC0F80
FCFC0F80
FDF80F80
FFF00F80
FFF00F80
FFE00F80
FFC00F80
FF800F80
FF800F80
FF000F80
ENDCHAR
STARTCHAR uni040E
ENCODING 1038
SWIDTH 821 0
DWIDTH 26 0
BBX 26 29 0 0
BITMAP
07C0F800
07E1F800
03FFF000
01FFE000
007F8000
00000000
FE000FC0
7E001F80
3F001F80
3F003F00
1F803F00
0FC07E00
0FC07E00
07E0FC00
07E0FC00
03F1F800
01F1F000
01FBF000
00FFE000
00FFE000
007FC000
003FC000
003F8000
003F8000
007F0000
FFFE0000
FFFE0000
FFF80000
FFE00000
ENDCHAR
STARTCHAR uni040F
ENCODING 1039
SWIDTH 901 0
DWIDTH 29 0
BBX 25 27 2 -4
BITMAP
FC001F80
FC001F80
FC001F80
FC001F80
FC001F80
FC001F80
FC001F80
FC001F80
FC001F80
FC001F80
FC001F80
FC001F80
FC001F80
FC001F80
FC001F80
FC001F80
FC001F80
FC001F80
FC001F80
FFFFFF80
FFFFFF80
FFFFFF80
FFFFFF80
003E0000
003E0000
003E0000
003E0000
ENDCHAR
STARTCHAR uni0410
ENCODING 1040
SWIDTH 937 0
DWIDTH 30 0
BBX 30 23 0 0
BITMAP
001FE000
001FE000
003FF000
003FF000
007FF800
007CF800
00FCFC00
00F87C00
01F87E00
01F03E00
03F03F00
03E01F00
07E01F80
07C01F80
0FFFFFC0
0FFFFFC0
1FFFFFE0
1FFFFFE0
3F0003F0
3F0003F0
7E0001F8
7E0001F8
FC0001FC
ENDCHAR
STARTCHAR uni0411
ENCODING 1041
SWIDTH 870 0
DWIDTH 28 0
BBX 25 23 2 0
BITMAP
FFFFFC00
FFFFFC00
FFFFFC00
FFFFFC00
FC000000
FC000000
FC000000
FC000000
FC000000
FFFFF000
FFFFFC00
FFFFFE00
FFFFFF00
FC007F00
FC003F00
FC003F80
FC003F80
FC003F00
FC007F00
FFFFFF00
FFFFFE00
FFFFFE00
FFFFF000
ENDCHAR
STARTCHAR uni0412
ENCODING 1042
SWIDTH 870 0
DWIDTH 28 0
BBX 25 23 2 0
BITMAP
FFFFF000
FFFFFC00
FFFFFE00
FFFFFE00
FC007F00
FC003F00
FC003F00
FC003F00
FC007E00
FFFFFE00
FFFFF800
FFFFFE00
FFFFFF00
FC007F00
FC003F00
FC003F80
FC003F80
FC003F80
FC007F00
FFFFFF00
FFFFFF00
FFFFFE00
FFFFF800
ENDCHAR
STARTCHAR uni0413
ENCODING 1043
SWIDTH 739 0
DWIDTH 24 0
BBX 21 23 2 0
BITMAP
FFFFF8
FFFFF8
FFFFF8
FFFFF8
FC0000
FC0000
FC0000
FC0000
FC0000
FC0000
FC0000
FC0000
FC0000
FC0000
FC0000
FC0000
FC0000
FC0000
FC0000
FC0000
FC0000
FC0000
FC0000
ENDCHAR
STARTCHAR uni0414
ENCODING 1044
SWIDTH 1035 0
DWIDTH 33 0
BBX 33 28 0 -5
BITMAP
01FFFFF000
01FFFFF000
01FFFFF000
01FFFFF000
01F803F000
01F003F000
01F003F000
01F003F000
01F003F000
01F003F000
01F003F000
01F003F000
01F003F000
03F003F000
03E003F000
03E003F000
03E003F000
07E003F000
0FC003F000
FFFFFFFF80
FFFFFFFF80
FFFFFFFF80
FFFFFFFF80
F800000F80
F800000F80
F800000F80
F800000F80
F800000F80
ENDCHAR
STARTCHAR uni0415
ENCODING 1045
SWIDTH 795 0
DWIDTH 25 0
BBX 22 23 2 0
BITMAP
FFFFFC
FFFFFC
FFFFFC
FFFFFC
FC0000
FC0000
FC0000
FC0000
FC0000
FFFFF8
FFFFF8
FFFFF8
FFFFF8
FC0000
FC0000
FC0000
FC0000
FC0000
FC0000
FFFFFC
FFFFFC
FFFFFC
FFFFFC
ENDCHAR
STARTCHAR uni0416
ENCODING 1046
SWIDTH 1316 0
DWIDTH 42 0
BBX 41 23 1 0
BITMAP
FF007E00FF00
3F807E01FC00
1FC07E03F800
0FE07E07F000
07F07E0FE000
03F87E1FC000
01FC7E3F8000
00FE7E7F0000
007F7EFE0000
003FFFFC0000
001FFFF80000
000FFFF80000
001FFFFC0000
007F7EFE0000
00FE7E7F0000
01FC7E3F8000
03F87E1FC000
07F07E0FE000
0FF07E07F000
1FE07E03F800
3FC07E03FC00
7F807E01FE00
FF007E00FF80
ENDCHAR
STARTCHAR uni0417
ENCODING 1047
SWIDTH 903 0
DWIDTH 29 0
BBX 27 24 1 -1
BITMAP
01FFF000
0FFFFE00
1FFFFF80
3FFFFF80
7FC03FC0
7E000FC0
FC000FC0
00000FC0
00001FC0
003FFF80
003FFF00
003FFE00
003FFF80
00003FC0
00000FC0
FC000FE0
FC0007E0
FE000FE0
FF001FE0
7FFFFFC0
3FFFFFC0
1FFFFF00
07FFFC00
000E0000
ENDCHAR
STARTCHAR uni0418
ENCODING 1048
SWIDTH 923 0
DWIDTH 30 0
BBX 25 23 2 0
BITMAP
FC007F80
FC007F80
FC00FF80
FC01FF80
FC01FF80
FC03FF80
FC07FF80
FC07CF80
FC0FCF80
FC1F8F80
FC1F0F80
FC3F0F80
FC7E0F80
FCFC0F80
FCFC0F80
FDF80F80
FFF00F80
FFF00F80
FFE00F80
FFC00F80
FF800F80
FF800F80
FF000F80
ENDCHAR
STARTCHAR uni0419
ENCODING 1049
SWIDTH 923 0
DWIDTH 30 0
BBX 25 29 2 0
BITMAP
07C0F800
07E1F800
03FFF000
01FFE000
007F8000
00000000
FC007F80
FC007F80
FC00FF80
FC01FF80
FC01FF80
FC03FF80
FC07FF80
FC07CF80
FC0FCF80
FC1F8F80
FC1F0F80
FC3F0F80
FC7E0F80
FCFC0F80
FCFC0F80
FDF80F80
FFF00F80
FFF00F80
FFE00F80
FFC00F80
FF800F80
FF800F80
FF000F80
ENDCHAR
STARTCHAR uni041A
ENCODING 1050
SWIDTH 866 0
DWIDTH 28 0
BBX 25 23 2 0
BITMAP
FC007F00
FC01FE00
FC03FC00
FC07F000
FC0FE000
FC1FC000
FC3F8000
FC7F0000
FCFC0000
FFF80000
FFF00000
FFF00000
FFF80000
FDFE0000
FCFF0000
FC7F8000
FC3FC000
FC1FE000
FC07F000
FC03F800
FC01FE00
FC00FF00
FC007F80
ENDCHAR
STARTCHAR uni041B
ENCODING 1051
SWIDTH 911 0
DWIDTH 29 0
BBX 26 23 1 0
BITMAP
03FFFFC0
03FFFFC0
03FFFFC0
03FFFFC0
03E00FC0
03E00FC0
03E00FC0
07E00FC0
07E00FC0
07E00FC0
07E00FC0
07E00FC0
07C00FC0
07C00FC0
0FC00FC0
0FC00FC0
0FC00FC0
1F800FC0
FF800FC0
FF800FC0
FF000FC0
FE000FC0
F8000FC0
ENDCHAR
STARTCHAR uni041C
ENCODING 1052
SWIDTH 1154 0
DWIDTH 37 0
BBX 33 23 2 0
BITMAP
FFC001FF80
FFE003FF80
FFE003FF80
FFE007FF80
FFF007FF80
F9F007DF80
F9F00FDF80
F8F80F9F80
F8F80F9F80
F8FC1F1F80
F87C1F1F80
F87C1F1F80
F83E3E1F80
F83E3E1F80
F83E7C1F80
F81F7C1F80
F81FFC1F80
F81FF81F80
F80FF81F80
F80FF81F80
F807F01F80
F807F01F80
F807E01F80
ENDCHAR
STARTCHAR uni041D
ENCODING 1053
SWIDTH 901 0
DWIDTH 29 0
BBX 25 23 2 0
BITMAP
FC001F80
FC001F80
FC001F80
FC001F80
FC001F80
FC001F80
FC001F80
FC001F80
FC001F80
FFFFFF80
FFFFFF80
FFFFFF80
FFFFFF80
FC001F80
FC001F80
FC001F80
FC001F80
FC001F80
FC001F80
FC001F80
FC001F80
FC001F80
FC001F80
ENDCHAR
STARTCHAR uni041E
ENCODING 1054
SWIDTH 951 0
DWIDTH 30 0
BBX 28 24 1 -1
BITMAP
007FE000
03FFFC00
07FFFF00
1FFFFF80
3FF07FC0
3F801FE0
7F000FE0
7E0007F0
7E0003F0
FE0003F0
FC0003F0
FC0003F0
FC0003F0
FC0003F0
FE0003F0
7E0007F0
7F0007E0
7F800FE0
3FC03FC0
1FFFFFC0
0FFFFF00
07FFFE00
00FFF800
00060000
ENDCHAR
STARTCHAR uni041F
ENCODING 1055
SWIDTH 881 0
DWIDTH 28 0
BBX 24 23 2 0
BITMAP
FFFFFF
FFFFFF
FFFFFF
FFFFFF
FC003F
FC003F
FC003F
FC003F
FC003F
FC003F
FC003F
FC003F
FC003F
FC003F
FC003F
FC003F
FC003F
FC003F
FC003F
FC003F
FC003F
FC003F
FC003F
ENDCHAR
STARTCHAR uni0420
ENCODING 1056
SWIDTH 844 0
DWIDTH 27 0
BBX 24 23 2 0
BITMAP
FFFFF0
FFFFFC
FFFFFE
FFFFFE
FC007F
FC003F
FC003F
FC003F
FC003F
FC003F
FC007F
FFFFFE
FFFFFE
FFFFFC
FFFFF0
FC0000
FC0000
FC0000
FC0000
FC0000
FC0000
FC0000
FC0000
ENDCHAR
STARTCHAR uni0421
ENCODING 1057
SWIDTH 914 0
DWIDTH 29 0
BBX 27 24 1 -1
BITMAP
007FE000
03FFFC00
07FFFE00
1FFFFF80
3FE07F80
3F801FC0
7F000FE0
7E000FE0
7E000FE0
FE000000
FC000000
FC000000
FC000000
FC000000
FE000FE0
7E000FE0
7F000FE0
7F001FC0
3FC03FC0
1FFFFF80
0FFFFF00
07FFFE00
01FFF800
00060000
ENDCHAR
STARTCHAR uni0422
ENCODING 1058
SWIDTH 790 0
DWIDTH 25 0
BBX 24 23 1 0
BITMAP
FFFFFF
FFFFFF
FFFFFF
FFFFFF
007C00
007C00
007C00
007C00
007C00
007C00
007C00
007C00
007C00
007C00
007C00
007C00
007C00
007C00
007C00
007C00
007C00
007C00
007C00
ENDCHAR
STARTCHAR uni0423
ENCODING 1059
SWIDTH 821 0
DWIDTH 26 0
BBX 26 23 0 0
BITMAP
FE000FC0
7E001F80
3F001F80
3F003F00
1F803F00
0FC07E00
0FC07E00
07E0FC00
07E0FC00
03F1F800
01F1F000
01FBF000
00FFE000
00FFE000
007FC000
003FC000
003F8000
003F8000
007F0000
FFFE0000
FFFE0000
FFF80000
FFE00000
ENDCHAR
STARTCHAR uni0424
ENCODING 1060
SWIDTH 1068 0
DWIDTH 34 0
BBX 32 29 1 -3
BITMAP
0007E000
0007E000
0007E000
0007E000
03FFFFC0
0FFFFFF0
1FFFFFF8
3FFFFFFC
7F07E0FE
7E07E07E
7E07E07E
FE07E03F
FC07E03F
FC07E03F
FC07E03F
FC07E03F
FC07E03F
FE07E03F
7E07E07E
7E07E07E
7F07E0FE
3FFFFFFC
1FFFFFF8
0FFFFFF0
03FFFFC0
0007E000
0007E000
0007E000
0007E000
ENDCHAR
STARTCHAR uni0425
ENCODING 1061
SWIDTH 894 0
DWIDTH 29 0
BBX 29 23 0 0
BITMAP
7F000FE0
3F801FC0
1FC03F80
0FE03F00
07F07F00
03F0FE00
01F9FC00
01FFF800
00FFF000
007FE000
003FE000
007FF000
00FFF000
01FFF800
01F9FC00
03F0FE00
07F07E00
0FE07F00
1FC03F80
1FC01FC0
3F800FE0
7F000FE0
FF0007F8
ENDCHAR
STARTCHAR uni0426
ENCODING 1062
SWIDTH 1002 0
DWIDTH 32 0
BBX 30 27 2 -4
BITMAP
FC001F00
FC001F00
FC001F00
FC001F00
FC001F00
FC001F00
FC001F00
FC001F00
FC001F00
FC001F00
FC001F00
FC001F00
FC001F00
FC001F00
FC001F00
FC001F00
FC001F00
FC001F00
FC001F00
FFFFFFFC
FFFFFFFC
FFFFFFFC
FFFFFFFC
0000007C
0000007C
0000007C
0000007C
ENDCHAR
STARTCHAR uni0427
ENCODING 1063
SWIDTH 843 0
DWIDTH 27 0
BBX 23 23 2 0
BITMAP
F8007E
F8007E
F8007E
F8007E
F8007E
F8007E
F8007E
F8007E
FC007E
FC007E
FF01FE
FFFFFE
7FFFFE
3FFFFE
0FFE7E
00007E
00007E
00007E
00007E
00007E
00007E
00007E
00007E
ENDCHAR
STARTCHAR uni0428
ENCODING 1064
SWIDTH 1156 0
DWIDTH 37 0
BBX 33 23 2 0
BITMAP
FC03E01F80
FC03E01F80
FC03E01F80
FC03E01F80
FC03E01F80
FC03E01F80
FC03E01F80
FC03E01F80
FC03E01F80
FC03E01F80
FC03E01F80
FC03E01F80
FC03E01F80
FC03E01F80
FC03E01F80
FC03E01F80
FC03E01F80
FC03E01F80
FC03E01F80
FFFFFFFF80
FFFFFFFF80
FFFFFFFF80
FFFFFFFF80
ENDCHAR
STARTCHAR uni0429
ENCODING 1065
SWIDTH 1275 0
DWIDTH 41 0
BBX 38 27 2 -4
BITMAP
FC03E01F80
FC03E01F80
FC03E01F80
FC03E01F80
FC03E01F80
FC03E01F80
FC03E01F80
FC03E01F80
FC03E01F80
FC03E01F80
FC03E01F80
FC03E01F80
FC03E01F80
FC03E01F80
FC03E01F80
FC03E01F80
FC03E01F80
FC03E01F80
FC03E01F80
FFFFFFFFFC
FFFFFFFFFC
FFFFFFFFFC
FFFFFFFFFC
000000007C
000000003C
000000003C
000000003C
ENDCHAR
STARTCHAR uni042A
ENCODING 1066
SWIDTH 1072 0
DWIDTH 34 0
BBX 32 23 1 0
BITMAP
FFF80000
FFF80000
FFF80000
FFF80000
00F80000
00F80000
00F80000
00F80000
00FFFFE0
00FFFFF8
00FFFFFC
00FFFFFE
00F800FF
00F8003F
00F8003F
00F8003F
00F8003F
00F8003F
00F800FF
00FFFFFE
00FFFFFE
00FFFFFC
00FFFFF0
ENDCHAR
STARTCHAR uni042B
ENCODING 1067
SWIDTH 1178 0
DWIDTH 38 0
BBX 34 23 2 0
BITMAP
FC00000FC0
FC00000FC0
FC00000FC0
FC00000FC0
FC00000FC0
FC00000FC0
FC00000FC0
FC00000FC0
FFFFF00FC0
FFFFFC0FC0
FFFFFE0FC0
FFFFFF0FC0
FC007F0FC0
FC003F0FC0
FC003F8FC0
FC003F8FC0
FC003F8FC0
FC003F0FC0
FC007F0FC0
FFFFFF0FC0
FFFFFE0FC0
FFFFFC0FC0
FFFFF00FC0
ENDCHAR
STARTCHAR uni042C
ENCODING 1068
SWIDTH 870 0
DWIDTH 28 0
BBX 25 23 2 0
BITMAP
FC000000
FC000000
FC000000
FC000000
FC000000
FC000000
FC000000
FC000000
FFFFF000
FFFFFC00
FFFFFE00
FFFFFF00
FC007F00
FC003F00
FC003F80
FC003F80
FC003F80
FC003F00
FC007F00
FFFFFF00
FFFFFE00
FFFFFC00
FFFFF000
ENDCHAR
STARTCHAR uni042D
ENCODING 1069
SWIDTH 934 0
DWIDTH 30 0
BBX 28 25 1 -1
BITMAP
00040000
01FFF000
07FFFC00
1FFFFF00
3FFFFF80
3FC03FC0
7F001FC0
7F000FE0
FE0007E0
FE0007E0
003FFFF0
003FFFF0
003FFFF0
003FFFF0
000007F0
FE0007E0
FE0007E0
7F000FE0
7F001FC0
3FC03FC0
3FFFFF80
1FFFFF00
07FFFC00
01FFF000
00060000
ENDCHAR
STARTCHAR uni042E
ENCODING 1070
SWIDTH 1292 0
DWIDTH 41 0
BBX 38 25 2 -1
BITMAP
0000008000
FC003FFE00
FC00FFFF80
FC01FFFFC0
FC03FFFFE0
FC07F80FF0
FC0FE003F8
FC0FC001F8
FC1FC001FC
FC1F8000FC
FFFF8000FC
FFFF8000FC
FFFF8000FC
FFFF8000FC
FC1F8000FC
FC1F8000FC
FC1FC001FC
FC0FC001F8
FC0FE003F8
FC07F80FF0
FC03FFFFE0
FC01FFFFC0
FC00FFFF80
FC003FFE00
0000008000
ENDCHAR
STARTCHAR uni042F
ENCODING 1071
SWIDTH 875 0
DWIDTH 28 0
BBX 25 23 1 0
BITMAP
0FFFFF80
3FFFFF80
7FFFFF80
7FFFFF80
FF001F80
FE001F80
FC001F80
FC001F80
FE001F80
7E001F80
7FFFFF80
3FFFFF80
0FFFFF80
1FFFFF80
7F001F80
7E001F80
7C001F80
7C001F80
7C001F80
7C001F80
7C001F80
7C001F80
7C001F80
ENDCHAR
STARTCHAR uni0430
ENCODING 1072
SWIDTH 719 0
DWIDTH 23 0
BBX 21 19 1 -1
BITMAP
002000
07FF80
1FFFE0
3FFFF0
7FFFF0
7E03F0
0003F0
0007F0
0FFFF0
7FFFF0
7FC1F0
FC01F0
FC03F0
FC07F0
FFFFF0
FFFFF0
7FFDF0
3FF1F8
030000
ENDCHAR
STARTCHAR uni0431
ENCODING 1073
SWIDTH 755 0
DWIDTH 24 0
BBX 22 26 1 -1
BITMAP
0000FC
0000FC
00FFFC
07FFF8
1FFFF8
3FFFF0
3FFF80
7F0000
7C0000
7C0000
F8FF80
FBFFE0
FFFFF0
FFFFF8
FF03FC
FE00FC
FC00FC
FC00FC
7C00FC
7C00FC
7E01FC
3FFFF8
1FFFF0
0FFFE0
07FF80
003000
ENDCHAR
STARTCHAR uni0432
ENCODING 1074
SWIDTH 771 0
DWIDTH 25 0
BBX 22 17 2 0
BITMAP
FFFFC0
FFFFE0
FFFFF0
FFFFF8
F801F8
F801F8
F801F0
FFFFE0
FFFFE0
FFFFF8
F801F8
F800FC
F801FC
FFFFF8
FFFFF8
FFFFF0
FFFFC0
ENDCHAR
STARTCHAR uni0433
ENCODING 1075
SWIDTH 569 0
DWIDTH 18 0
BBX 15 17 2 0
BITMAP
FFFE
FFFE
FFFE
FFFE
F800
F800
F800
F800
F800
F800
F800
F800
F800
F800
F800
F800
F800
ENDCHAR
STARTCHAR uni0434
ENCODING 1076
SWIDTH 853 0
DWIDTH 27 0
BBX 27 22 0 -5
BITMAP
03FFFC00
03FFFC00
03FFFC00
03FFFC00
07E07C00
07E07C00
07C07C00
07C07C00
07C07C00
07C07C00
07C07C00
0F807C00
1F807C00
FFFFFFE0
FFFFFFE0
FFFFFFE0
FFFFFFE0
F80003E0
F80003E0
F80003E0
F80003E0
F00001E0
ENDCHAR
STARTCHAR uni0435
ENCODING 1077
SWIDTH 748 0
DWIDTH 24 0
BBX 22 19 1 -1
BITMAP
002000
07FF80
1FFFE0
3FFFF0
7FFFF0
7E01F8
FC00F8
FFFFFC
FFFFFC
FFFFFC
FFFFFC
FC0000
FC0004
7E01F8
7FFFF8
3FFFF0
1FFFE0
07FFC0
003000
ENDCHAR
STARTCHAR uni0436
ENCODING 1078
SWIDTH 1051 0
DWIDTH 34 0
BBX 33 17 0 0
BITMAP
7F03F03F80
3F83F07E00
1FC3F1FC00
07E3F3F800
03F3F7F000
01FBFFE000
00FFFFC000
007FFF0000
007FFF8000
00FFFFC000
01FBF7E000
03F3F7F000
07E3F3F800
0FC3F1FC00
1F83F0FE00
3F03F07F00
FF03F03F80
ENDCHAR
STARTCHAR uni0437
ENCODING 1079
SWIDTH 741 0
DWIDTH 24 0
BBX 22 19 1 -1
BITMAP
002000
0FFFC0
3FFFF0
7FFFF8
7FFFF8
FE01F8
0001F8
007FF0
007FC0
007FE0
007FF8
0001F8
FC00FC
FE01FC
7FFFF8
7FFFF8
3FFFF0
0FFFC0
003000
ENDCHAR
STARTCHAR uni0438
ENCODING 1080
SWIDTH 823 0
DWIDTH 26 0
BBX 22 17 2 0
BITMAP
F807FC
F807FC
F80FFC
F80FFC
F81FFC
F83F7C
F83E7C
F87C7C
F8FC7C
F8F87C
F9F87C
F9F07C
FFE07C
FFE07C
FFC07C
FFC07C
FF807C
ENDCHAR
STARTCHAR uni0439
ENCODING 1081
SWIDTH 823 0
DWIDTH 26 0
BBX 22 24 2 0
BITMAP
0F03E0
0F87C0
0FFFC0
07FF80
01FE00
000000
000000
F807FC
F807FC
F80FFC
F80FFC
F81FFC
F83F7C
F83E7C
F87C7C
F8FC7C
F8F87C
F9F87C
F9F07C
FFE07C
FFE07C
FFC07C
FFC07C
FF807C
ENDCHAR
STARTCHAR uni043A
ENCODING 1082
SWIDTH 689 0
DWIDTH 22 0
BBX 20 17 2 0
BITMAP
F80FE0
F81FC0
F83F00
F87E00
F8FC00
FBF800
FFF000
FFE000
FFE000
FFF000
F9F800
F8FC00
F87E00
F83F00
F81F80
F80FC0
F80FF0
ENDCHAR
STARTCHAR uni043B
ENCODING 1083
SWIDTH 748 0
DWIDTH 24 0
BBX 22 18 0 -1
BITMAP
07FFFC
07FFFC
07FFFC
07FFFC
07C07C
07C07C
07C07C
0FC07C
0F807C
0F807C
0F807C
1F807C
FF807C
FF007C
FF007C
FE007C
FC007C
100000
ENDCHAR
STARTCHAR uni043C
ENCODING 1084
SWIDTH 995 0
DWIDTH 32 0
BBX 28 17 2 0
BITMAP
FFC03FF0
FFE07FF0
FFE07FF0
FFE07FF0
FBF0FDF0
FBF0F9F0
FBF0F9F0
F9F0F9F0
F9F9F1F0
F9F9F1F0
F8F9F1F0
F8FFE1F0
F8FFE1F0
F87FE1F0
F87FC1F0
F87FC1F0
F87FC1F0
ENDCHAR
STARTCHAR uni043D
ENCODING 1085
SWIDTH 738 0
DWIDTH 24 0
BBX 20 17 2 0
BITMAP
F803F0
F803F0
F803F0
F803F0
F803F0
F803F0
FFFFF0
FFFFF0
FFFFF0
FFFFF0
F803F0
F803F0
F803F0
F803F0
F803F0
F803F0
F803F0
ENDCHAR
STARTCHAR uni043E
ENCODING 1086
SWIDTH 755 0
DWIDTH 24 0
BBX 22 19 1 -1
BITMAP
001000
07FF80
1FFFE0
3FFFF0
7FFFF8
7F03F8
FE00FC
FC00FC
FC00FC
FC00FC
FC00FC
FC00FC
FE00FC
7F03F8
7FFFF8
3FFFF0
1FFFE0
07FF80
003000
ENDCHAR
STARTCHAR uni043F
ENCODING 1087
SWIDTH 738 0
DWIDTH 24 0
BBX 20 17 2 0
BITMAP
FFFFF0
FFFFF0
FFFFF0
FFFFF0
F803F0
F803F0
F803F0
F803F0
F803F0
F803F0
F803F0
F803F0
F803F0
F803F0
F803F0
F803F0
F803F0
ENDCHAR
STARTCHAR uni0440
ENCODING 1088
SWIDTH 766 0
DWIDTH 25 0
BBX 21 24 2 -6
BITMAP
001000
F8FF80
FBFFC0
FFFFE0
FFFFF0
FE03F8
FC01F8
FC01F8
F800F8
F800F8
F800F8
FC01F8
FC01F8
FE03F8
FFFFF0
FFFFE0
FBFFC0
F8FF80
F81800
F80000
F80000
F80000
F80000
F80000
ENDCHAR
STARTCHAR uni0441
ENCODING 1089
SWIDTH 747 0
DWIDTH 24 0
BBX 22 19 1 -1
BITMAP
002000
07FF80
1FFFE0
3FFFF0
7FFFF8
7F03F8
FE01FC
FC0000
FC0000
FC0000
FC0000
FC00FC
FE01FC
7F03F8
7FFFF8
3FFFF0
1FFFE0
07FF80
003000
ENDCHAR
STARTCHAR uni0442
ENCODING 1090
SWIDTH 711 0
DWIDTH 23 0
BBX 21 17 1 0
BITMAP
FFFFF8
FFFFF8
FFFFF8
FFFFF8
00F800
00F800
00F800
00F800
00F800
00F800
00F800
00F800
00F800
00F800
00F800
00F800
00F800
ENDCHAR
STARTCHAR uni0443
ENCODING 1091
SWIDTH 722 0
DWIDTH 23 0
BBX 23 23 0 -6
BITMAP
FE00FE
7E00FC
7F00FC
3F01F8
1F01F8
1F83F0
0F83F0
0FC7E0
07C7E0
07C7C0
03EFC0
03EF80
01FF80
01FF00
00FF00
00FE00
007E00
00FC00
01FC00
3FF800
3FF000
3FE000
3FC000
ENDCHAR
STARTCHAR uni0444
ENCODING 1092
SWIDTH 1205 0
DWIDTH 39 0
BBX 37 29 1 -6
BITMAP
0000F80000
0000F80000
0000F80000
0000F80000
0000F80000
0040F81000
07F8F9FF00
1FFEFBFFC0
3FFFFFFFE0
7FFFFFFFE0
7F03FE07F0
FE01FC03F0
FC01F801F0
FC00F801F0
FC00F801F8
FC00F801F0
FC01F801F0
FE01FC03F0
7F03FE07F0
7FFFFFFFE0
3FFFFFFFE0
1FFEFBFFC0
07F8F9FF00
0040F81000
0000F80000
0000F80000
0000F80000
0000F80000
0000F80000
ENDCHAR
STARTCHAR uni0445
ENCODING 1093
SWIDTH 759 0
DWIDTH 24 0
BBX 24 17 0 0
BITMAP
7F00FE
3F81FC
1FC3F8
0FE3F0
07E7E0
03FFC0
01FF80
00FF80
00FF80
01FFC0
03FFC0
07E7E0
0FE3F0
1FC3F8
3F81FC
3F00FE
FF007F
ENDCHAR
STARTCHAR uni0446
ENCODING 1094
SWIDTH 803 0
DWIDTH 26 0
BBX 24 22 2 -5
BITMAP
F807E0
F807E0
F807E0
F807E0
F807E0
F807E0
F807E0
F807E0
F807E0
F807E0
F807E0
F807E0
F807E0
FFFFFF
FFFFFF
FFFFFF
FFFFFF
00001F
00001F
00001F
00001F
00001F
ENDCHAR
STARTCHAR uni0447
ENCODING 1095
SWIDTH 708 0
DWIDTH 23 0
BBX 20 17 1 0
BITMAP
F803F0
F803F0
F803F0
F803F0
F803F0
FC03F0
FC03F0
FE07F0
FFFFF0
7FFFF0
3FFFF0
0FFBF0
0003F0
0003F0
0003F0
0003F0
0003F0
ENDCHAR
STARTCHAR uni0448
ENCODING 1096
SWIDTH 989 0
DWIDTH 32 0
BBX 28 17 2 0
BITMAP
F81F83F0
F81F83F0
F81F83F0
F81F83F0
F81F83F0
F81F83F0
F81F83F0
F81F83F0
F81F83F0
F81F83F0
F81F83F0
F81F83F0
F81F83F0
FFFFFFF0
FFFFFFF0
FFFFFFF0
FFFFFFF0
ENDCHAR
STARTCHAR uni0449
ENCODING 1097
SWIDTH 1084 0
DWIDTH 35 0
BBX 33 22 2 -5
BITMAP
F81F83F000
F81F83F000
F81F83F000
F81F83F000
F81F83F000
F81F83F000
F81F83F000
F81F83F000
F81F83F000
F81F83F000
F81F83F000
F81F83F000
F81F83F000
FFFFFFFF80
FFFFFFFF80
FFFFFFFF80
FFFFFFFF80
0000000F80
0000000F80
0000000F80
0000000F80
0000000F80
ENDCHAR
STARTCHAR uni044A
ENCODING 1098
SWIDTH 858 0
DWIDTH 27 0
BBX 25 17 1 0
BITMAP
FFE00000
FFE00000
FFE00000
FFE00000
07FFF800
07FFFE00
07FFFF00
07FFFF80
07E03F80
07E01F80
07E00F80
07E01F80
07E03F80
07FFFF80
07FFFF00
07FFFE00
07FFF800
ENDCHAR
STARTCHAR uni044B
ENCODING 1099
SWIDTH 1005 0
DWIDTH 32 0
BBX 28 17 2 0
BITMAP
F80001F0
F80001F0
F80001F0
F80001F0
FFFF01F0
FFFFC1F0
FFFFE1F0
FFFFE1F0
F807F1F0
F803F1F0
F803F1F0
F803F1F0
F807F1F0
FFFFE1F0
FFFFE1F0
FFFFC1F0
FFFF01F0
ENDCHAR
STARTCHAR uni044C
ENCODING 1100
SWIDTH 718 0
DWIDTH 23 0
BBX 20 17 2 0
BITMAP
F80000
F80000
F80000
F80000
FFFF00
FFFFC0
FFFFE0
FFFFE0
F807F0
F803F0
F803F0
F803F0
F807F0
FFFFE0
FFFFE0
FFFFC0
FFFF00
ENDCHAR
STARTCHAR uni044D
ENCODING 1101
SWIDTH 784 0
DWIDTH 25 0
BBX 23 19 1 -1
BITMAP
001000
07FFC0
1FFFF0
3FFFF8
7FFFFC
FE00FC
00007E
00FFFE
00FFFE
00FFFE
00FFFE
00007E
FC00FE
7F01FC
7FFFFC
3FFFF8
1FFFF0
07FFC0
001800
ENDCHAR
STARTCHAR uni044E
ENCODING 1102
SWIDTH 1075 0
DWIDTH 34 0
BBX 31 19 2 -1
BITMAP
00000800
F803FFC0
F80FFFF0
F81FFFF8
F81FFFFC
F83F80FE
F83F007E
FFFE007E
FFFE003E
FFFE003E
FFFE003E
F83E007E
F83F007E
F83F80FE
F81FFFFC
F80FFFF8
F807FFF0
F801FFC0
00001800
ENDCHAR
STARTCHAR uni044F
ENCODING 1103
SWIDTH 742 0
DWIDTH 24 0
BBX 20 17 2 0
BITMAP
1FFFF0
7FFFF0
FFFFF0
FFFFF0
FC03F0
F803F0
F803F0
FC03F0
7FFFF0
1FFFF0
3FFFF0
7FFFF0
FC03F0
F803F0
F803F0
F803F0
F803F0
ENDCHAR
STARTCHAR uni0450
ENCODING 1104
SWIDTH 748 0
DWIDTH 24 0
BBX 22 25 1 -1
BITMAP
1FE000
07F000
03F000
01F800
00F800
000000
002000
07FF80
1FFFE0
3FFFF0
7FFFF0
7E01F8
FC00F8
FFFFFC
FFFFFC
FFFFFC
FFFFFC
FC0000
FC0004
7E01F8
7FFFF8
3FFFF0
1FFFE0
07FFC0
003000
ENDCHAR
STARTCHAR uni0451
ENCODING 1105
SWIDTH 748 0
DWIDTH 24 0
BBX 22 25 1 -1
BITMAP
0F87C0
0F87C0
0F87C0
0F87C0
000000
000000
002000
07FF80
1FFFE0
3FFFF0
7FFFF0
7E01F8
FC00F8
FFFFFC
FFFFFC
FFFFFC
FFFFFC
FC0000
FC0004
7E01F8
7FFFF8
3FFFF0
1FFFE0
07FFC0
003000
ENDCHAR
STARTCHAR uni0452
ENCODING 1106
SWIDTH 748 0
DWIDTH 24 0
BBX 23 29 -1 -6
BITMAP
1F0000
1F0000
1F0000
FFFC00
FFFC00
FFFC00
FFFC00
1F0000
1F0000
1F0FE0
1F3FF8
1FFFFC
1FFFFE
1FE1FE
1FC07E
1F807E
1F803E
1F003E
1F003E
1F003E
1F003E
1F003E
1F003E
00003E
00007E
0003FE
0003FE
0003FC
0003F8
ENDCHAR
STARTCHAR uni0453
ENCODING 1107
SWIDTH 569 0
DWIDTH 18 0
BBX 16 24 2 0
BITMAP
00FF
01FC
01F8
03F0
07E0
0000
0000
FFFE
FFFE
FFFE
FFFE
F800
F800
F800
F800
F800
F800
F800
F800
F800
F800
F800
F800
F800
ENDCHAR
STARTCHAR uni0454
ENCODING 1108
SWIDTH 784 0
DWIDTH 25 0
BBX 23 19 1 -1
BITMAP
001000
07FFE0
1FFFF0
3FFFF8
7FFFFC
7E00FE
FC0000
FFFE00
FFFE00
FFFE00
FFFE00
FC0000
FE007E
7F00FE
7FFFFC
3FFFF8
1FFFF0
07FFC0
001800
ENDCHAR
STARTCHAR uni0455
ENCODING 1109
SWIDTH 706 0
DWIDTH 23 0
BBX 21 19 1 -1
BITMAP
004000
1FFF00
3FFFC0
7FFFE0
FFFFE0
FC03F0
FC03F0
7F8000
7FFF80
1FFFE0
01FFF0
0003F0
FC01F8
FC03F8
FFFFF0
7FFFF0
7FFFE0
1FFF80
006000
ENDCHAR
STARTCHAR uni0456
ENCODING 1110
SWIDTH 287 0
DWIDTH 9 0
BBX 5 24 2 0
BITMAP
F8
F8
F8
F8
00
00
00
F8
F8
F8
F8
F8
F8
F8
F8
F8
F8
F8
F8
F8
F8
F8
F8
F8
ENDCHAR
STARTCHAR uni0457
ENCODING 1111
SWIDTH 287 0
DWIDTH 9 0
BBX 14 24 -2 0
BITMAP
F8FC
F8FC
F8FC
F8FC
0000
0000
0000
0F80
0F80
0F80
0F80
0F80
0F80
0F80
0F80
0F80
0F80
0F80
0F80
0F80
0F80
0F80
0F80
0F80
ENDCHAR
STARTCHAR uni0458
ENCODING 1112
SWIDTH 287 0
DWIDTH 9 0
BBX 9 30 -2 -6
BITMAP
0F80
0F80
0F80
0F80
0000
0000
0000
0F80
0F80
0F80
0F80
0F80
0F80
0F80
0F80
0F80
0F80
0F80
0F80
0F80
0F80
0F80
0F80
0F80
0F80
1F80
FF80
FF80
FF80
FE00
ENDCHAR
STARTCHAR uni0459
ENCODING 1113
SWIDTH 1179 0
DWIDTH 38 0
BBX 37 18 0 -1
BITMAP
07FFFC0000
07FFFC0000
07FFFC0000
07FFFC0000
07C07FFF00
07C07FFFE0
07C07FFFF0
0FC07FFFF0
0F807C03F0
0F807C01F8
0F807C01F8
1F807C01F8
1F807C03F0
FF007FFFF0
FF007FFFF0
FE007FFFE0
FC007FFF00
1000000000
ENDCHAR
STARTCHAR uni045A
ENCODING 1114
SWIDTH 1179 0
DWIDTH 38 0
BBX 35 17 2 0
BITMAP
F803F00000
F803F00000
F803F00000
F803F00000
F803F00000
F803F00000
FFFFFFFE00
FFFFFFFF80
FFFFFFFFC0
FFFFFFFFC0
F803F007E0
F803F007E0
F803F00FE0
F803FFFFC0
F803FFFFC0
F803FFFF80
F803FFFE00
ENDCHAR
STARTCHAR uni045B
ENCODING 1115
SWIDTH 748 0
DWIDTH 24 0
BBX 23 23 -1 0
BITMAP
1F0000
1F0000
1F0000
FFFC00
FFFC00
FFFC00
FFFC00
1F0000
1F0000
1F0000
1F1FE0
1F7FF8
1FFFFC
1FFFFE
1FE0FE
1F807E
1F807E
1F003E
1F003E
1F003E
1F003E
1F003E
1F003E
ENDCHAR
STARTCHAR uni045C
ENCODING 1116
SWIDTH 689 0
DWIDTH 22 0
BBX 20 24 2 0
BITMAP
007F80
00FE00
00FC00
01F800
03F000
000000
000000
F80FE0
F81FC0
F83F00
F87E00
F8FC00
FBF800
FFF000
FFE000
FFE000
FFF000
F9F800
F8FC00
F87E00
F83F00
F81F80
F80FC0
F80FF0
ENDCHAR
STARTCHAR uni045D
ENCODING 1117
SWIDTH 823 0
DWIDTH 26 0
BBX 22 24 2 0
BITMAP
1FE000
07F000
03F000
01F800
00FC00
000000
000000
F807FC
F807FC
F80FFC
F80FFC
F81FFC
F83F7C
F83E7C
F87C7C
F8FC7C
F8F87C
F9F87C
F9F07C
FFE07C
FFE07C
FFC07C
FFC07C
FF807C
ENDCHAR
STARTCHAR uni045E
ENCODING 1118
SWIDTH 722 0
DWIDTH 23 0
BBX 23 30 0 -6
BITMAP
0F83E0
0FC3E0
07FFC0
03FF80
00FE00
000000
000000
FE00FE
7E00FC
7F00FC
3F01F8
1F01F8
1F83F0
0F83F0
0FC7E0
07C7E0
07C7C0
03EFC0
03EF80
01FF80
01FF00
00FF00
00FE00
007E00
00FC00
01FC00
3FF800
3FF000
3FE000
3FC000
ENDCHAR
STARTCHAR uni045F
ENCODING 1119
SWIDTH 738 0
DWIDTH 24 0
BBX 20 21 2 -4
BITMAP
F803F0
F803F0
F803F0
F803F0
F803F0
F803F0
F803F0
F803F0
F803F0
F803F0
F803F0
F803F0
F803F0
FFFFF0
FFFFF0
FFFFF0
FFFFF0
01F000
01F000
01F000
00F000
ENDCHAR
STARTCHAR uni0490
ENCODING 1168
SWIDTH 739 0
DWIDTH 24 0
BBX 21 28 2 0
BITMAP
000078
0000F8
0000F8
0000F8
0000F8
FFFFF8
FFFFF8
FFFFF8
FFFFF8
FC0000
FC0000
FC0000
FC0000
FC0000
FC0000
FC0000
FC0000
FC0000
FC0000
FC0000
FC0000
FC0000
FC0000
FC0000
FC0000
FC0000
FC0000
FC0000
ENDCHAR
STARTCHAR uni0491
ENCODING 1169
SWIDTH 569 0
DWIDTH 18 0
BBX 15 22 2 0
BITMAP
001E
001E
001E
001E
003E
FFFE
FFFE
FFFE
FFFE
F800
F800
F800
F800
F800
F800
F800
F800
F800
F800
F800
F800
F800
ENDCHAR
STARTCHAR uni0492
ENCODING 1170
SWIDTH 739 0
DWIDTH 24 0
BBX 24 23 -1 0
BITMAP
1FFFFF
1FFFFF
1FFFFF
1FFFFF
1F8000
1F8000
1F8000
1F8000
1F8000
1F8000
FFFF00
FFFF00
FFFF00
FFFF00
1F8000
1F8000
1F8000
1F8000
1F8000
1F8000
1F8000
1F8000
1F8000
ENDCHAR
STARTCHAR uni0493
ENCODING 1171
SWIDTH 569 0
DWIDTH 18 0
BBX 18 17 -1 0
BITMAP
1FFFC0
1FFFC0
1FFFC0
1FFFC0
1F0000
1F0000
1F0000
1F0000
FFFC00
FFFC00
FFFC00
FFFC00
1F0000
1F0000
1F0000
1F0000
1F0000
ENDCHAR
STARTCHAR uni0496
ENCODING 1174
SWIDTH 1325 0
DWIDTH 42 0
BBX 41 27 1 -4
BITMAP
FF007E00FF00
3F807E01FC00
1FC07E03F800
0FE07E07F000
07F07E0FE000
03F87E1FC000
01FC7E3F8000
00FE7E7F0000
007F7EFE0000
003FFFFC0000
001FFFF80000
000FFFF80000
001FFFFC0000
007F7EFE0000
00FE7E7F0000
01FC7E3F8000
03F87E1FC000
07F07E0FC000
0FF07E07E000
1FE07E03FF80
3FC07E03FF80
7F807E01FF80
FF007E00FF80
000000000F80
000000000F80
000000000F80
000000000F80
ENDCHAR
STARTCHAR uni0497
ENCODING 1175
SWIDTH 1048 0
DWIDTH 34 0
BBX 34 22 0 -5
BITMAP
7F03F03F80
3F83F07E00
1FC3F1FC00
07E3F3F800
03F3F7F000
01FBFFE000
00FFFFC000
007FFF0000
007FFF8000
00FFFFC000
01FBF7E000
03F3F7F000
07E3F3F000
0FC3F1FFC0
1F83F0FFC0
3F03F07FC0
FF03F03FC0
00000007C0
00000007C0
00000007C0
00000007C0
00000007C0
ENDCHAR
STARTCHAR uni049A
ENCODING 1178
SWIDTH 881 0
DWIDTH 28 0
BBX 26 27 2 -4
BITMAP
FC007F00
FC01FE00
FC03FC00
FC07F000
FC0FE000
FC1FC000
FC3F8000
FC7F0000
FCFC0000
FFF80000
FFF00000
FFF00000
FFF80000
FDFC0000
FCFE0000
FC7F0000
FC3F8000
FC1FE000
FC07F000
FC03FFC0
FC01FFC0
FC00FFC0
FC007FC0
000007C0
000007C0
000007C0
000007C0
ENDCHAR
STARTCHAR uni049B
ENCODING 1179
SWIDTH 688 0
DWIDTH 22 0
BBX 20 22 2 -5
BITMAP
F80FE0
F81FC0
F83F00
F87E00
F8FC00
FBF800
FFF000
FFE000
FFE000
FFF000
F9F800
F8FC00
F87E00
F83FF0
F81FF0
F80FF0
F80FF0
0001F0
0001F0
0001F0
0001F0
0000F0
ENDCHAR
STARTCHAR uni04AE
ENCODING 1198
SWIDTH 865 0
DWIDTH 28 0
BBX 28 23 0 0
BITMAP
FE000FF0
7F000FE0
3F801FC0
1F803F80
1FC03F00
0FE07F00
07E0FE00
03F0FC00
03F9F800
01FFF800
00FFF000
007FE000
007FC000
003F8000
001F8000
001F8000
001F8000
001F8000
001F8000
001F8000
001F8000
001F8000
001F8000
ENDCHAR
STARTCHAR uni04AF
ENCODING 1199
SWIDTH 722 0
DWIDTH 23 0
BBX 23 23 0 -6
BITMAP
FE00FE
7E00FC
7F01FC
3F01F8
3F81F8
1F83F0
1F83F0
0FC7E0
0FC7E0
07EFC0
07FFC0
03FF80
03FF80
01FF00
01FF00
00FE00
00FE00
007C00
007C00
007C00
007C00
007C00
007C00
ENDCHAR
STARTCHAR uni04B0
ENCODING 1200
SWIDTH 865 0
DWIDTH 28 0
BBX 28 23 0 0
BITMAP
FE000FF0
7F000FE0
3F801FC0
1F803F80
1FC03F00
0FE07F00
07E0FE00
03F0FC00
03F9F800
01FFF800
00FFF000
007FE000
007FC000
07FFFE00
07FFFE00
07FFFE00
07FFFE00
001F8000
001F8000
001F8000
001F8000
001F8000
001F8000
ENDCHAR
STARTCHAR uni04B1
ENCODING 1201
SWIDTH 722 0
DWIDTH 23 0
BBX 23 23 0 -6
BITMAP
FE00FE
7E00FC
7F01FC
3F01F8
3F81F8
1F83F0
1F83F0
0FC7E0
0FC7E0
07EFC0
07FFC0
03FF80
03FF80
01FF00
01FF00
0FFFE0
0FFFE0
0FFFE0
0FFFE0
007C00
007C00
007C00
007C00
ENDCHAR
STARTCHAR uni04BA
ENCODING 1210
SWIDTH 795 0
DWIDTH 25 0
BBX 22 23 2 0
BITMAP
F80000
F80000
F80000
F80000
F80000
F80000
F80000
F80000
F8FFC0
FFFFF0
FFFFF8
FFFFFC
FF01FC
F800FC
F800FC
F8007C
F8007C
F8007C
F8007C
F8007C
F8007C
F8007C
F8007C
ENDCHAR
STARTCHAR uni04BB
ENCODING 1211
SWIDTH 748 0
DWIDTH 24 0
BBX 20 23 2 0
BITMAP
F80000
F80000
F80000
F80000
F80000
F80800
F8FF80
FBFFC0
FFFFE0
FFFFF0
FE07F0
FC03F0
FC01F0
F801F0
F801F0
F801F0
F801F0
F801F0
F801F0
F801F0
F801F0
F801F0
F801F0
ENDCHAR
STARTCHAR uni04C9
ENCODING 1225
SWIDTH 1020 0
DWIDTH 33 0
BBX 30 27 2 -4
BITMAP
FC001F80
FC001F80
FC001F80
FC001F80
FC001F80
FC001F80
FC001F80
FC001F80
FC001F80
FFFFFF80
FFFFFF80
FFFFFF80
FFFFFF80
FC001F80
FC001F80
FC001F80
FC001F80
FC001F80
FC001F80
FC001FFC
FC001FFC
FC001FFC
FC001FFC
0000007C
0000007C
0000003C
0000003C
ENDCHAR
STARTCHAR uni04CA
ENCODING 1226
SWIDTH 833 0
DWIDTH 27 0
BBX 25 22 2 -5
BITMAP
F803F000
F803F000
F803F000
F803F000
F803F000
F803F000
FFFFF000
FFFFF000
FFFFF000
FFFFF000
F803F000
F803F000
F803F000
F803FF80
F803FF80
F803FF80
F803FF80
00000F80
00000F80
00000F80
00000F80
00000F80
ENDCHAR
STARTCHAR uni04D8
ENCODING 1240
SWIDTH 951 0
DWIDTH 30 0
BBX 28 25 1 -1
BITMAP
00040000
01FFF800
0FFFFE00
1FFFFF00
3FFFFF80
7F803FC0
7F000FE0
7E0007E0
800007F0
000003F0
000003F0
FFFFFFF0
FFFFFFF0
FFFFFFF0
FFFFFFF0
FE0003F0
7E0007F0
7F0007E0
3F800FE0
3FC03FC0
1FFFFFC0
0FFFFF00
07FFFE00
00FFF800
00060000
ENDCHAR
STARTCHAR uni04D9
ENCODING 1241
SWIDTH 748 0
DWIDTH 24 0
BBX 22 19 1 -1
BITMAP
002000
0FFF80
1FFFE0
3FFFF0
7FFFF8
FE01F8
0000F8
0000FC
FFFFFC
FFFFFC
FFFFFC
FFFFFC
FC00F8
7E01F8
7FFFF8
3FFFF0
1FFFE0
07FF80
003000
ENDCHAR
STARTCHAR uni04E8
ENCODING 1256
SWIDTH 951 0
DWIDTH 30 0
BBX 28 25 1 -1
BITMAP
00020000
00FFF800
03FFFE00
0FFFFF00
1FFFFF80
3FC03FC0
3F800FE0
7F0007E0
7E0007F0
FE0003F0
FFFFFFF0
FFFFFFF0
FFFFFFF0
FFFFFFF0
FE0003F0
FE0003F0
7E0007F0
7F0007E0
3F800FE0
3FC03FC0
1FFFFF80
0FFFFF00
07FFFE00
00FFF800
00060000
ENDCHAR
STARTCHAR uni04E9
ENCODING 1257
SWIDTH 755 0
DWIDTH 24 0
BBX 22 19 1 -1
BITMAP
001000
07FF80
1FFFE0
3FFFF0
7FFFF8
7E01F8
FC00FC
FFFFFC
FFFFFC
FFFFFC
FFFFFC
FC00FC
FE00FC
7F03F8
7FFFF8
3FFFF0
1FFFE0
07FF80
003000
ENDCHAR
STARTCHAR Wgrave
ENCODING 7808
SWIDTH 1234 0
DWIDTH 39 0
BBX 39 30 0 0
BITMAP
001FE00000
000FE00000
0003F00000
0001F00000
0000F80000
0000000000
0000000000
FC00FE007E
7E00FE007E
7E00FF007E
7E00FF00FC
3F01FF00FC
3F01FF80FC
3F01FF81F8
1F03EF81F8
1F83E781F8
1F83C7C1F0
1F87C7C3F0
0F87C3C3F0
0FC7C3E3E0
0FC783E3E0
07CF83E7E0
07EF81F7C0
07FF01FFC0
03FF01FFC0
03FF00FF80
03FF00FF80
01FE00FF80
01FE00FF00
01FE007F00
ENDCHAR
STARTCHAR wgrave
ENCODING 7809
SWIDTH 1126 0
DWIDTH 36 0
BBX 36 24 0 0
BITMAP
003FC00000
000FC00000
0007E00000
0003E00000
0001F00000
0000000000
0000000000
FC01F803F0
7E03FC07E0
7E03FC07E0
3F03FE07C0
3F07FE0FC0
3F07FE0FC0
1F879F0F80
1F8F9F1F80
0F8F9F1F00
0FDF0F9F00
0FDF0FBF00
07FF0FFE00
07FE07FE00
03FE07FC00
03FE03FC00
03FC03FC00
01FC03F800
ENDCHAR
STARTCHAR Wacute
ENCODING 7810
SWIDTH 1234 0
DWIDTH 39 0
BBX 39 30 0 0
BITMAP
00001FE000
00003F8000
00003F0000
00007E0000
0000FC0000
0000000000
0000000000
FC00FE007E
7E00FE007E
7E00FF007E
7E00FF00FC
3F01FF00FC
3F01FF80FC
3F01FF81F8
1F03EF81F8
1F83E781F8
1F83C7C1F0
1F87C7C3F0
0F87C3C3F0
0FC7C3E3E0
0FC783E3E0
07CF83E7E0
07EF81F7C0
07FF01FFC0
03FF01FFC0
03FF00FF80
03FF00FF80
01FE00FF80
01FE00FF00
01FE007F00
ENDCHAR
STARTCHAR wacute
ENCODING 7811
SWIDTH 1126 0
DWIDTH 36 0
BBX 36 24 0 0
BITMAP
00003FC000
00007F0000
00007E0000
0000FC0000
0001F80000
0000000000
0000000000
FC01F803F0
7E03FC07E0
7E03FC07E0
3F03FE07C0
3F07FE0FC0
3F07FE0FC0
1F879F0F80
1F8F9F1F80
0F8F9F1F00
0FDF0F9F00
0FDF0FBF00
07FF0FFE00
07FE07FE00
03FE07FC00
03FE03FC00
03FC03FC00
01FC03F800
ENDCHAR
STARTCHAR Wdieresis
ENCODING 7812
SWIDTH 1234 0
DWIDTH 39 0
BBX 39 29 0 0
BITMAP
000F8FC000
000F8FC000
000F8FC000
000F8FC000
0000000000
0000000000
FC00FE007E
7E00FE007E
7E00FF007E
7E00FF00FC
3F01FF00FC
3F01FF80FC
3F01FF81F8
1F03EF81F8
1F83E781F8
1F83C7C1F0
1F87C7C3F0
0F87C3C3F0
0FC7C3E3E0
0FC783E3E0
07CF83E7E0
07EF81F7C0
07FF01FFC0
03FF01FFC0
03FF00FF80
03FF00FF80
01FE00FF80
01FE00FF00
01FE007F00
ENDCHAR
STARTCHAR wdieresis
ENCODING 7813
SWIDTH 1126 0
DWIDTH 36 0
BBX 36 24 0 0
BITMAP
001F1F8000
001F1F8000
001F1F8000
001F1F8000
0000000000
0000000000
0000000000
FC01F803F0
7E03FC07E0
7E03FC07E0
3F03FE07C0
3F07FE0FC0
3F07FE0FC0
1F879F0F80
1F8F9F1F80
0F8F9F1F00
0FDF0F9F00
0FDF0FBF00
07FF0FFE00
07FE07FE00
03FE07FC00
03FE03FC00
03FC03FC00
01FC03F800
ENDCHAR
STARTCHAR Ygrave
ENCODING 7922
SWIDTH 865 0
DWIDTH 28 0
BBX 28 30 0 0
BITMAP
03FC0000
00FC0000
007E0000
003F0000
001F0000
00000000
00000000
FE000FF0
7F000FE0
3F801FC0
1F803F80
1FC03F00
0FE07F00
07E0FE00
03F0FC00
03F9F800
01FFF800
00FFF000
007FE000
007FC000
003F8000
001F8000
001F8000
001F8000
001F8000
001F8000
001F8000
001F8000
001F8000
001F8000
ENDCHAR
STARTCHAR ygrave
ENCODING 7923
SWIDTH 722 0
DWIDTH 23 0
BBX 23 30 0 -6
BITMAP
0FF000
07F000
03F800
00F800
007C00
000000
000000
FE00FE
7E00FC
7E00FC
3F01F8
3F01F8
1F83F0
1F83F0
0FC7E0
0FC7E0
07E7C0
07EFC0
03EF80
03FF80
01FF00
01FF00
00FE00
00FE00
00FC00
01FC00
3FF800
3FF000
3FE000
3FC000
ENDCHAR
STARTCHAR uni2007
ENCODING 8199
SWIDTH 309 0
DWIDTH 10 0
BBX 1 1 0 0
BITMAP
00
ENDCHAR
STARTCHAR uni2008
ENCODING 8200
SWIDTH 258 0
DWIDTH 8 0
BBX 1 1 0 0
BITMAP
00
ENDCHAR
STARTCHAR uni200B
ENCODING 8203
SWIDTH 0 0
DWIDTH 0 0
BBX 1 1 0 0
BITMAP
00
ENDCHAR
STARTCHAR endash
ENCODING 8211
SWIDTH 668 0
DWIDTH 21 0
BBX 19 4 1 7
BITMAP
FFFFE0
FFFFE0
FFFFE0
FFFFE0
ENDCHAR
STARTCHAR emdash
ENCODING 8212
SWIDTH 884 0
DWIDTH 28 0
BBX 26 4 1 7
BITMAP
FFFFFFC0
FFFFFFC0
FFFFFFC0
FFFFFFC0
ENDCHAR
STARTCHAR quoteleft
ENCODING 8216
SWIDTH 257 0
DWIDTH 8 0
BBX 6 11 1 12
BITMAP
1C
3C
78
70
F0
F0
FC
FC
FC
FC
FC
ENDCHAR
STARTCHAR quoteright
ENCODING 8217
SWIDTH 256 0
DWIDTH 8 0
BBX 6 11 1 12
BITMAP
FC
FC
FC
FC
FC
1C
3C
38
78
F0
E0
ENDCHAR
STARTCHAR quotesinglbase
ENCODING 8218
SWIDTH 256 0
DWIDTH 8 0
BBX 6 11 1 -6
BITMAP
FC
FC
FC
FC
FC
1C
3C
38
78
F0
E0
ENDCHAR
STARTCHAR quotedblleft
ENCODING 8220
SWIDTH 520 0
DWIDTH 17 0
BBX 14 11 1 12
BITMAP
1C0C
3C3C
7838
7070
F070
F070
FC7C
FC7C
FC7C
FC7C
FC7C
ENDCHAR
STARTCHAR quotedblright
ENCODING 8221
SWIDTH 519 0
DWIDTH 17 0
BBX 14 11 1 12
BITMAP
FC7C
FC7C
FC7C
FC7C
FC7C
1C1C
3C1C
381C
783C
F078
E060
ENDCHAR
STARTCHAR quotedblbase
ENCODING 8222
SWIDTH 519 0
DWIDTH 17 0
BBX 14 11 1 -6
BITMAP
FC7C
FC7C
FC7C
FC7C
FC7C
1C1C
3C1C
381C
783C
F078
E060
ENDCHAR
STARTCHAR dagger
ENCODING 8224
SWIDTH 667 0
DWIDTH 21 0
BBX 19 29 1 -6
BITMAP
01F000
01F000
01F000
01F000
01F000
01F000
01F000
FFFFE0
FFFFE0
FFFFE0
FFFFE0
01F000
01F000
01F000
01F000
01F000
01F000
01F000
01F000
01F000
01F000
01F000
01F000
01F000
01F000
01F000
01F000
01F000
01F000
ENDCHAR
STARTCHAR daggerdbl
ENCODING 8225
SWIDTH 667 0
DWIDTH 21 0
BBX 19 29 1 -6
BITMAP
01F000
01F000
01F000
01F000
01F000
01F000
01F000
FFFFE0
FFFFE0
FFFFE0
FFFFE0
01F000
01F000
01F000
01F000
01F000
01F000
01F000
FFFFE0
FFFFE0
FFFFE0
FFFFE0
01F000
01F000
01F000
01F000
01F000
01F000
01F000
ENDCHAR
STARTCHAR bullet
ENCODING 8226
SWIDTH 456 0
DWIDTH 15 0
BBX 12 12 1 5
BITMAP
0F80
3FC0
7FE0
7FF0
FFF0
FFF0
FFF0
FFF0
7FF0
7FE0
3FC0
0F80
ENDCHAR
STARTCHAR ellipsis
ENCODING 8230
SWIDTH 984 0
DWIDTH 31 0
BBX 27 6 2 0
BITMAP
FC1F87E0
FC1F87E0
FC1F87E0
FC1F87E0
FC1F87E0
FC1F87E0
ENDCHAR
STARTCHAR perthousand
ENCODING 8240
SWIDTH 1579 0
DWIDTH 51 0
BBX 48 24 1 -1
BITMAP
0FC007800000
3FF007800000
7FF80F000000
78780E000000
F07C1E000000
F03C3C000000
F03C38000000
F03C78000000
F07CF0000000
7878F0000000
7FF9E1F803F8
3FF1C7FE07FE
0FC3CFFF0FFE
00078F0F1F1F
00078F079E0F
000F1E079E0F
000E1E079E0F
001E1E079E0F
003C1F079E0F
003C0F0F9E0F
00780FFF1FFF
007007FF0FFE
00F003FC07FC
000000200040
ENDCHAR
STARTCHAR guilsinglleft
ENCODING 8249
SWIDTH 278 0
DWIDTH 9 0
BBX 7 15 1 1
BITMAP
06
0E
1E
7E
FE
F8
F0
E0
F8
FC
7E
3E
1E
06
02
ENDCHAR
STARTCHAR guilsinglright
ENCODING 8250
SWIDTH 275 0
DWIDTH 9 0
BBX 7 15 1 1
BITMAP
C0
E0
F0
F8
FE
3E
1E
0E
3E
7E
FC
F8
F0
C0
80
ENDCHAR
STARTCHAR uni2070
ENCODING 8304
SWIDTH 540 0
DWIDTH 17 0
BBX 15 13 1 10
BITMAP
0FE0
3FF8
7FFC
F83E
F01E
F01E
F00E
F01E
F01E
F83E
7FFC
3FF8
0FE0
ENDCHAR
STARTCHAR uni2074
ENCODING 8308
SWIDTH 483 0
DWIDTH 15 0
BBX 15 13 0 10
BITMAP
01F8
03F8
07F8
0E78
1E78
3C78
7878
FFFE
FFFE
FFFE
0078
0078
0078
ENDCHAR
STARTCHAR uni2075
ENCODING 8309
SWIDTH 494 0
DWIDTH 16 0
BBX 14 13 1 10
BITMAP
7FF8
FFF8
FFF8
F3C0
FFF8
FFF8
F07C
003C
003C
F03C
FFF8
7FF8
1FE0
ENDCHAR
STARTCHAR uni2076
ENCODING 8310
SWIDTH 510 0
DWIDTH 16 0
BBX 15 13 1 10
BITMAP
0FE0
3FF8
7FFC
F83C
F7F0
FFF8
FFFC
F03C
F01E
F83C
7FFC
3FF8
0FE0
ENDCHAR
STARTCHAR uni2077
ENCODING 8311
SWIDTH 458 0
DWIDTH 15 0
BBX 14 13 0 10
BITMAP
FFFC
FFFC
FFFC
007C
0078
00F8
01F0
01E0
03E0
03C0
07C0
0F80
1F00
ENDCHAR
STARTCHAR uni2078
ENCODING 8312
SWIDTH 518 0
DWIDTH 17 0
BBX 15 13 1 10
BITMAP
1FF0
7FFC
FFFC
F01C
7FFC
3FF8
7FFC
F83E
F01E
F03E
FFFC
7FFC
1FF0
ENDCHAR
STARTCHAR uni2079
ENCODING 8313
SWIDTH 498 0
DWIDTH 16 0
BBX 15 13 0 10
BITMAP
1FE0
3FF8
7FFC
F81E
F81E
7FFE
7FFE
1FDE
001E
783E
7FFC
3FF8
0FE0
ENDCHAR
STARTCHAR franc
ENCODING 8355
SWIDTH 913 0
DWIDTH 29 0
BBX 27 23 2 0
BITMAP
FFFFF800
FFFFF800
FFFFF800
FFFFF800
FC000000
FC000000
FC000000
FC000000
FC000000
FFFFFF00
FFFFFF80
FFFFFFC0
FFFFFFC0
FFFE0FC0
FC3E07C0
FC3E07C0
FC3FFFC0
FC3FFF80
FC3FFF00
FC3E1F00
FC3E0F80
FC3E0FC0
FC3E07E0
ENDCHAR
STARTCHAR Euro
ENCODING 8364
SWIDTH 827 0
DWIDTH 26 0
BBX 24 24 1 -1
BITMAP
001FF0
007FFE
01FFFF
03FFFF
07FC3E
0FF00C
0FC000
0FC000
1F8000
7FFFF0
FFFFE0
1F8000
1F8000
7FFF80
FFFF00
1F8000
0FC000
0FE002
07F00E
07FFFE
03FFFE
00FFFE
003FFC
000180
ENDCHAR
STARTCHAR uni2116
ENCODING 8470
SWIDTH 1449 0
DWIDTH 46 0
BBX 42 23 2 0
BITMAP
FF000F80FE00
FF800F83FF80
FF800F87FF80
FFC00F8787C0
FFE00F8F03C0
FFF00F8F03C0
FFF00F8F03C0
F9F80F8787C0
F8FC0F87FF80
F8FC0F83FF80
F87E0F80FE00
F83F0F800000
F81F0F800000
F81F8F800000
F80FCF800000
F807EF800000
F807FF800000
F803FF800000
F801FF800000
F800FF800000
F800FF8FFFC0
F8007F8FFFC0
F8003F8FFFC0
ENDCHAR
STARTCHAR trademark
ENCODING 8482
SWIDTH 978 0
DWIDTH 31 0
BBX 29 12 1 11
BITMAP
FFF3E0F8
FFF3E0F8
FFF3F1F8
0703F1F8
0703F1F8
0703BBB8
0703BBB8
07039B38
07039F38
07039F38
07038E38
07038E38
ENDCHAR
STARTCHAR uni2126
ENCODING 8486
SWIDTH 971 0
DWIDTH 31 0
BBX 29 24 1 0
BITMAP
001FC000
01FFFC00
07FFFF00
0FFFFF80
1FFFFFC0
3FE03FE0
3F800FE0
7F0007F0
7E0003F0
7E0003F0
7E0003F8
7E0003F8
7E0003F0
7E0003F0
7E0003F0
7F0007F0
3F0007E0
1F800FE0
0FE03FC0
07F8FF00
FFF8FFF8
FFF8FFF8
FFF8FFF8
FFF8FFF8
ENDCHAR
STARTCHAR partialdiff
ENCODING 8706
SWIDTH 766 0
DWIDTH 25 0
BBX 22 24 1 -1
BITMAP
03FC00
1FFF80
3FFFE0
3FFFF0
1C07F0
1003F8
0001F8
0000FC
03FCFC
0FFFFC
1FFFFC
3FFFFC
7F83FC
7E00FC
7C00FC
FC00FC
FC00FC
FC01F8
7E01F8
7F07F0
3FFFF0
1FFFE0
0FFF80
03FE00
ENDCHAR
STARTCHAR emptyset
ENCODING 8709
SWIDTH 872 0
DWIDTH 28 0
BBX 24 23 2 0
BITMAP
01FFBC
03FFF8
0F83F0
1E00F8
3C01F8
3801DC
70039E
70078E
70070E
E00E0F
E01C07
E03C07
E03807
E0700E
70E00E
71E00E
79C01C
3B803C
1F0078
1F00F0
0FE7E0
1FFFC0
38FE00
ENDCHAR
STARTCHAR uni2206
ENCODING 8710
SWIDTH 934 0
DWIDTH 30 0
BBX 29 23 0 0
BITMAP
001FE000
001FE000
003FF000
003FF000
007FF800
007CF800
00FCFC00
00F87C00
01F87E00
01F07E00
03F03F00
03F03F00
07E01F80
07E01F80
0FC00F80
0FC00FC0
0F8007C0
1F8007E0
1F0007E0
3FFFFFF0
3FFFFFF0
7FFFFFF8
FFFFFFF8
ENDCHAR
STARTCHAR product
ENCODING 8719
SWIDTH 901 0
DWIDTH 29 0
BBX 25 27 2 -4
BITMAP
FFFFFF80
FFFFFF80
FFFFFF80
FFFFFF80
FFFFFF80
FC001F80
FC001F80
FC001F80
FC001F80
FC001F80
FC001F80
FC001F80
FC001F80
FC001F80
FC001F80
FC001F80
FC001F80
FC001F80
FC001F80
FC001F80
FC001F80
FC001F80
FC001F80
FC001F80
FC001F80
FC001F80
FC001F80
ENDCHAR
STARTCHAR summation
ENCODING 8721
SWIDTH 809 0
DWIDTH 26 0
BBX 22 28 2 -5
BITMAP
7FFFFC
7FFFFC
7FFFFC
7FFFFC
7FFFFC
3F8000
1FC000
0FE000
07F000
03F800
01FC00
00FE00
007F00
007F80
003F80
007F00
00FC00
01F800
03F000
07E000
0FC000
1F8000
3F0000
7FFFFC
FFFFFC
FFFFFC
FFFFFC
FFFFFC
ENDCHAR
STARTCHAR minus
ENCODING 8722
SWIDTH 674 0
DWIDTH 22 0
BBX 17 4 2 9
BITMAP
FFFF80
FFFF80
FFFF80
FFFF80
ENDCHAR
STARTCHAR uni2219
ENCODING 8729
SWIDTH 345 0
DWIDTH 11 0
BBX 7 7 2 7
BITMAP
38
7C
FE
FE
FE
7C
38
ENDCHAR
STARTCHAR radical
ENCODING 8730
SWIDTH 688 0
DWIDTH 22 0
BBX 20 27 1 -5
BITMAP
000070
000070
0000E0
0000E0
0000E0
0001C0
0001C0
0001C0
000380
000380
000380
000700
000700
040700
1C0E00
FC0E00
7E0E00
0E1C00
0F1C00
0F1C00
071800
07B800
03B800
03B000
03F000
01F000
01E000
ENDCHAR
STARTCHAR infinity
ENCODING 8734
SWIDTH 874 0
DWIDTH 28 0
BBX 24 12 2 4
BITMAP
0F81F0
3FC3FC
7FE7FE
78FF1E
707E0E
F03C0F
F03C0F
707E0E
78FF1E
7FEFFE
3FC7FC
0F81F0
ENDCHAR
STARTCHAR integral
ENCODING 8747
SWIDTH 515 0
DWIDTH 16 0
BBX 15 30 1 -6
BITMAP
00FE
03FE
07FE
07FE
07E0
0FC0
0FC0
0FC0
0FC0
0FC0
0FC0
0FC0
0FC0
0FC0
0FC0
0FC0
0FC0
0FC0
0FC0
0FC0
0FC0
0FC0
0FC0
0FC0
0FC0
0FC0
FFC0
FF80
FF80
FE00
ENDCHAR
STARTCHAR approxequal
ENCODING 8776
SWIDTH 674 0
DWIDTH 22 0
BBX 17 14 2 4
BITMAP
3E0000
7F8080
FFE180
FFFF80
E1FF80
807F80
801E00
3E0000
7F8080
FFE180
FFFF80
E1FF80
807F80
801E00
ENDCHAR
STARTCHAR notequal
ENCODING 8800
SWIDTH 674 0
DWIDTH 22 0
BBX 17 16 2 3
BITMAP
000F00
001F00
001E00
FFFF80
FFFF80
FFFF80
FFFF80
01E000
01E000
03C000
FFFF80
FFFF80
FFFF80
FFFF80
1E0000
7C0000
ENDCHAR
STARTCHAR lessequal
ENCODING 8804
SWIDTH 674 0
DWIDTH 22 0
BBX 17 19 2 0
BITMAP
000080
000780
003F80
01FF80
0FFE00
7FF000
FF8000
FE0000
FFE000
3FFC00
07FF80
00FF80
000F80
000180
000000
FFFF80
FFFF80
FFFF80
FFFF80
ENDCHAR
STARTCHAR greaterequal
ENCODING 8805
SWIDTH 674 0
DWIDTH 22 0
BBX 17 19 2 0
BITMAP
800000
F80000
FF0000
FFE000
3FFC00
07FF80
007F80
003F80
01FF80
0FFE00
FFF000
FF8000
FC0000
E00000
000000
FFFF80
FFFF80
FFFF80
FFFF80
ENDCHAR
STARTCHAR lozenge
ENCODING 9674
SWIDTH 745 0
DWIDTH 24 0
BBX 20 25 2 -1
BITMAP
00F000
01F800
01F800
03FC00
079C00
070E00
0F0F00
1E0700
1C0780
3C03C0
7801C0
7001E0
F000F0
7000E0
7801C0
3C03C0
1C0380
1E0700
0F0F00
070E00
079C00
03BC00
01F800
01F800
00F000
ENDCHAR
STARTCHAR fi
ENCODING 64257
SWIDTH 742 0
DWIDTH 24 0
BBX 22 24 0 0
BITMAP
01FCFC
07FCFC
0FFCFC
0FFCFC
0FC000
1F8000
1F8000
FFFCFC
FFFCFC
FFFCFC
FFFCFC
1F80FC
1F80FC
1F80FC
1F80FC
1F80FC
1F80FC
1F80FC
1F80FC
1F80FC
1F80FC
1F80FC
1F80FC
1F80FC
ENDCHAR
STARTCHAR fl
ENCODING 64258
SWIDTH 742 0
DWIDTH 24 0
BBX 22 24 0 0
BITMAP
01FC00
07FCFC
0FFCFC
0FFCFC
0FC0FC
1F80FC
1F80FC
FFFCFC
FFFCFC
FFFCFC
FFFCFC
1F80FC
1F80FC
1F80FC
1F80FC
1F80FC
1F80FC
1F80FC
1F80FC
1F80FC
1F80FC
1F80FC
1F80FC
1F80FC
ENDCHAR
STARTCHAR .notdef
ENCODING -1
SWIDTH 689 0
DWIDTH 22 0
BBX 20 48 1 -14
BITMAP
FFFFF0
FFFFF0
E00070
E00070
E00070
E00070
E00070
E00070
E00070
E00070
E00070
E00070
E00070
E00070
E00070
E00070
E00070
E1F870
E7FC70
E7FE70
EF9F70
EF1F70
E03E70
E0FC70
E0F870
E0F070
E00070
E0F070
E0F070
E0F070
E0F070
E00070
E00070
E00070
E00070
E00070
E00070
E00070
E00070
E00070
E00070
E00070
E00070
E00070
E00070
E00070
FFFFF0
FFFFF0
ENDCHAR
STARTCHAR .null
ENCODING -1
SWIDTH 0 0
DWIDTH 0 0
BBX 1 1 0 0
BITMAP
00
ENDCHAR
STARTCHAR i.loclTRK
ENCODING -1
SWIDTH 287 0
DWIDTH 9 0
BBX 5 24 2 0
BITMAP
F8
F8
F8
F8
00
00
00
F8
F8
F8
F8
F8
F8
F8
F8
F8
F8
F8
F8
F8
F8
F8
F8
F8
ENDCHAR
STARTCHAR f_f
ENCODING -1
SWIDTH 848 0
DWIDTH 27 0
BBX 27 24 0 0
BITMAP
01FC1FE0
07FC7FE0
0FFC7FE0
0FFCFFE0
0FC0FC00
1F80FC00
1F80F800
FFFFFFC0
FFFFFFC0
FFFFFFC0
FFFFFFC0
1F80FC00
1F80FC00
1F80FC00
1F80FC00
1F80FC00
1F80FC00
1F80FC00
1F80FC00
1F80FC00
1F80FC00
1F80FC00
1F80FC00
1F80FC00
ENDCHAR
STARTCHAR f_i
ENCODING -1
SWIDTH 742 0
DWIDTH 24 0
BBX 22 24 0 0
BITMAP
01FCFC
07FCFC
0FFCFC
0FFCFC
0FC000
1F8000
1F8000
FFFCFC
FFFCFC
FFFCFC
FFFCFC
1F80FC
1F80FC
1F80FC
1F80FC
1F80FC
1F80FC
1F80FC
1F80FC
1F80FC
1F80FC
1F80FC
1F80FC
1F80FC
ENDCHAR
STARTCHAR f_l
ENCODING -1
SWIDTH 742 0
DWIDTH 24 0
BBX 22 24 0 0
BITMAP
01FC00
07FCFC
0FFCFC
0FFCFC
0FC0FC
1F80FC
1F80FC
FFFCFC
FFFCFC
FFFCFC
FFFCFC
1F80FC
1F80FC
1F80FC
1F80FC
1F80FC
1F80FC
1F80FC
1F80FC
1F80FC
1F80FC
1F80FC
1F80FC
1F80FC
ENDCHAR
STARTCHAR f_t
ENCODING -1
SWIDTH 854 0
DWIDTH 27 0
BBX 26 24 0 0
BITMAP
01FC0000
07FC0000
0FFCFC00
0FFCFC00
0FC0FC00
1F80FC00
1F80FC00
FFFFFFC0
FFFFFFC0
FFFFFFC0
FFFFFFC0
1F80FC00
1F80FC00
1F80FC00
1F80FC00
1F80FC00
1F80FC00
1F80FC00
1F80FC00
1F80FC00
1F80FFC0
1F80FFC0
1F807FC0
1F801FC0
ENDCHAR
STARTCHAR uni0414.loclBGR
ENCODING -1
SWIDTH 1035 0
DWIDTH 33 0
BBX 33 28 0 -5
BITMAP
0007F80000
000FF80000
000FF80000
001FFC0000
001FFC0000
003F7E0000
003E3E0000
007E3F0000
007E1F0000
00FC1F8000
00FC1F8000
00F80FC000
01F80FC000
01F007C000
03F007E000
03F007E000
07E003F000
07E003F000
0FC001F800
FFFFFFFF80
FFFFFFFF80
FFFFFFFF80
FFFFFFFF80
F800000F80
F800000F80
F800000F80
F800000F80
F800000F80
ENDCHAR
STARTCHAR uni041B.loclBGR
ENCODING -1
SWIDTH 937 0
DWIDTH 30 0
BBX 30 23 0 0
BITMAP
001FE000
001FE000
003FF000
003FF000
007FF800
007CF800
00FCFC00
00F87C00
01F87E00
01F03E00
03F03F00
03E03F00
07E01F80
07E01F80
0FC00FC0
0FC00FC0
1F8007E0
1F8007E0
3F0003F0
3F0003F0
7E0001F8
7E0001F8
FC0001FC
ENDCHAR
STARTCHAR uni0424.loclBGR
ENCODING -1
SWIDTH 951 0
DWIDTH 30 0
BBX 28 29 1 -3
BITMAP
001F8000
001F8000
001F8000
00FFF800
03FFFE00
0FFFFF00
1FFFFF80
3FFFFFC0
3F9F9FE0
7F1F8FE0
7E1F87F0
7E1F83F0
FC1F83F0
FC1F83F0
FC1F83F0
FC1F83F0
FC1F83F0
FE1F83F0
7E1F87F0
7F1F87E0
7F9F8FE0
3FFFBFC0
1FFFFFC0
0FFFFF80
07FFFE00
01FFFC00
003FC000
001F8000
001F8000
ENDCHAR
STARTCHAR uni0432.loclBGR
ENCODING -1
SWIDTH 817 0
DWIDTH 26 0
BBX 23 23 2 0
BITMAP
0FFFC0
3FFFF0
7FFFF8
7FFFFC
FE01FC
FC00FC
FC00FC
FC00FC
FC01FC
FFFFF8
FFFFE0
FFFFF8
FFFFFC
FC01FC
FC00FE
FC007E
FC007E
FC00FE
FC01FE
FFFFFC
FFFFFC
FFFFF8
FFFFE0
ENDCHAR
STARTCHAR uni0433.loclBGR
ENCODING -1
SWIDTH 706 0
DWIDTH 23 0
BBX 21 19 1 -1
BITMAP
002000
07FF80
1FFFE0
3FFFF0
7FFFF0
7E03F0
7C01F0
000FF0
0FFFE0
3FFFC0
7FF800
FE0000
FC01F8
FC03F8
FFFFF0
7FFFF0
7FFFE0
1FFF80
007000
ENDCHAR
STARTCHAR uni0434.loclBGR
ENCODING -1
SWIDTH 757 0
DWIDTH 24 0
BBX 21 24 1 -6
BITMAP
004000
0FFCF8
1FFEF8
3FFFF8
7FFFF8
7E03F8
FC01F8
FC00F8
FC00F8
FC00F8
FC01F8
7F03F8
7FFFF8
3FFFF8
1FFEF8
07F8F8
0000F8
0000F8
7E01F8
7F83F8
7FFFF8
3FFFF0
1FFFE0
03FF80
ENDCHAR
STARTCHAR uni0436.loclBGR
ENCODING -1
SWIDTH 1051 0
DWIDTH 34 0
BBX 33 23 0 0
BITMAP
0003F00000
0003F00000
0003F00000
0003F00000
0003F00000
0003F00000
7F03F03F80
3F83F07E00
1FC3F1FC00
07E3F3F800
03F3F7F000
01FBFFE000
00FFFFC000
007FFF0000
007FFF8000
00FFFFC000
01FBF7E000
03F3F7F000
07E3F3F800
0FC3F1FC00
1F83F0FE00
3F03F07F00
FF03F03F80
ENDCHAR
STARTCHAR uni0437.loclBGR
ENCODING -1
SWIDTH 696 0
DWIDTH 22 0
BBX 20 24 1 -6
BITMAP
004000
0FFF00
3FFFC0
7FFFE0
FFFFE0
FE07E0
FC07F0
FC03F0
0007E0
0007E0
00FFC0
00FF80
00FFC0
00FFE0
000FF0
0003F0
FC03F0
FC03F0
FC03F0
FF0FF0
7FFFE0
7FFFE0
1FFF80
07FE00
ENDCHAR
STARTCHAR uni0438.loclBGR
ENCODING -1
SWIDTH 748 0
DWIDTH 24 0
BBX 20 18 2 -1
BITMAP
F801F0
F801F0
F801F0
F801F0
F801F0
F801F0
F801F0
F801F0
F801F0
F801F0
F803F0
FC03F0
FE07F0
FFFFF0
7FFFF0
7FFDF0
1FF1F0
010000
ENDCHAR
STARTCHAR uni0439.loclBGR
ENCODING -1
SWIDTH 748 0
DWIDTH 24 0
BBX 20 25 2 -1
BITMAP
3E07C0
1F0F80
1FFF80
0FFF00
03FC00
000000
000000
F801F0
F801F0
F801F0
F801F0
F801F0
F801F0
F801F0
F801F0
F801F0
F801F0
F803F0
FC03F0
FE07F0
FFFFF0
7FFFF0
7FFDF0
1FF1F0
010000
ENDCHAR
STARTCHAR uni043A.loclBGR
ENCODING -1
SWIDTH 689 0
DWIDTH 22 0
BBX 20 23 2 0
BITMAP
F80000
F80000
F80000
F80000
F80000
F80000
F80FE0
F81FC0
F83F00
F87E00
F8FC00
FBF800
FFF000
FFE000
FFE000
FFF000
F9F800
F8FC00
F87E00
F83F00
F81F80
F80FC0
F80FF0
ENDCHAR
STARTCHAR uni043B.loclBGR
ENCODING -1
SWIDTH 746 0
DWIDTH 24 0
BBX 24 17 0 0
BITMAP
00FF00
00FF00
01FF80
01FF80
03FFC0
03FFC0
07E7E0
07E7E0
0FC7F0
0FC3F0
1F83F8
1F81F8
3F81FC
3F00FC
7F00FE
7E007E
FE007F
ENDCHAR
STARTCHAR uni043F.loclBGR
ENCODING -1
SWIDTH 748 0
DWIDTH 24 0
BBX 20 18 2 0
BITMAP
000800
F8FF80
FBFFC0
FFFFE0
FFFFF0
FE07F0
FC03F0
FC01F0
F801F0
F801F0
F801F0
F801F0
F801F0
F801F0
F801F0
F801F0
F801F0
F801F0
ENDCHAR
STARTCHAR uni0442.loclBGR
ENCODING -1
SWIDTH 1148 0
DWIDTH 37 0
BBX 33 18 2 0
BITMAP
0008004000
F9FF87FC00
FBFFDFFE00
FFFFFFFF00
FFFFFFFF80
FE07F83F80
FC07F01F80
F803E01F80
F803E01F80
F803E01F80
F803E01F80
F803E01F80
F803E01F80
F803E01F80
F803E01F80
F803E01F80
F803E01F80
F803E01F80
ENDCHAR
STARTCHAR uni0444.loclBGR
ENCODING -1
SWIDTH 815 0
DWIDTH 26 0
BBX 24 29 1 -6
BITMAP
007E00
007E00
007E00
007E00
007E00
007E00
07FFE0
1FFFF8
3FFFFC
7FFFFE
7F7EFE
FE7E7F
FC7E3F
FC7E3F
FC7E3F
FC7E3F
FC7E3F
FC7E3F
7E7E7E
7FFFFE
3FFFFC
1FFFF8
07FFE0
00FF00
007E00
007E00
007E00
007E00
007E00
ENDCHAR
STARTCHAR uni0446.loclBGR
ENCODING -1
SWIDTH 843 0
DWIDTH 27 0
BBX 25 22 2 -5
BITMAP
F801F000
F801F000
F801F000
F801F000
F801F000
F801F000
F801F000
F801F000
F801F000
F801F000
F803F000
FC03F000
FE07F000
FFFFFF80
7FFFFF80
7FFDFF80
1FF1FF80
01000F80
00000F80
00000F80
00000F80
00000780
ENDCHAR
STARTCHAR uni0448.loclBGR
ENCODING -1
SWIDTH 1148 0
DWIDTH 37 0
BBX 33 18 2 -1
BITMAP
F803E01F80
F803E01F80
F803E01F80
F803E01F80
F803E01F80
F803E01F80
F803E01F80
F803E01F80
F803E01F80
F803E01F80
F807E01F80
FC07E01F80
FC0FF03F80
FFFFFFFF80
7FFFFFFF80
7FFDFFFF80
1FF0FF9F80
0300080000
ENDCHAR
STARTCHAR uni0449.loclBGR
ENCODING -1
SWIDTH 1243 0
DWIDTH 40 0
BBX 38 22 2 -5
BITMAP
F803E01F80
F803E01F80
F803E01F80
F803E01F80
F803E01F80
F803E01F80
F803E01F80
F803E01F80
F803E01F80
F803E01F80
F807E01F80
FC07E01F80
FC0FF03F80
FFFFFFFFFC
7FFFFFFFFC
7FFDFFFFFC
1FF0FF9FFC
030008007C
000000007C
000000007C
000000007C
000000007C
ENDCHAR
STARTCHAR uni044E.loclBGR
ENCODING -1
SWIDTH 1075 0
DWIDTH 34 0
BBX 31 24 2 -1
BITMAP
F8000000
F8000000
F8000000
F8000000
F8000000
F8000800
F803FFC0
F80FFFF0
F81FFFF8
F81FFFFC
F83F80FE
F83F007E
FFFE007E
FFFE003E
FFFE003E
FFFE003E
F83E007E
F83F007E
F83F80FE
F81FFFFC
F80FFFF8
F807FFF0
F801FFC0
00001800
ENDCHAR
STARTCHAR uni0431.loclSRB
ENCODING -1
SWIDTH 766 0
DWIDTH 25 0
BBX 22 25 1 -1
BITMAP
0001FC
03FFFC
1FFFF8
3FFFF8
3FFFF0
7FFF80
7E0000
7E0000
3E0000
3FFF00
1FFFE0
3FFFF0
7FFFF8
7F03F8
FE00FC
FC00FC
FC00FC
FC00FC
FC00FC
FE01FC
7FFFF8
3FFFF0
1FFFE0
07FFC0
003000
ENDCHAR
STARTCHAR zero.dnom
ENCODING -1
SWIDTH 540 0
DWIDTH 17 0
BBX 15 15 1 -1
BITMAP
07E0
3FF8
7FFC
783E
F01E
F01E
F01E
F00E
F01E
F01E
F81E
7C7C
3FFC
1FF0
0180
ENDCHAR
STARTCHAR one.dnom
ENCODING -1
SWIDTH 332 0
DWIDTH 11 0
BBX 10 14 1 0
BITMAP
0E00
0E00
1E00
FE00
FE00
FE00
0E00
0E00
0E00
0E00
0E00
FFC0
FFC0
FFC0
ENDCHAR
STARTCHAR two.dnom
ENCODING -1
SWIDTH 499 0
DWIDTH 16 0
BBX 14 14 1 0
BITMAP
0FC0
3FF8
7FF8
F87C
F03C
007C
01F8
07F0
1FC0
7E00
F800
FFFC
FFFC
FFFC
ENDCHAR
STARTCHAR three.dnom
ENCODING -1
SWIDTH 490 0
DWIDTH 16 0
BBX 15 15 0 -1
BITMAP
0FE0
3FF8
7FFC
783C
781E
003C
03F8
03FC
003E
001E
F81E
7C3E
7FFC
3FF8
0180
ENDCHAR
STARTCHAR four.dnom
ENCODING -1
SWIDTH 483 0
DWIDTH 15 0
BBX 15 13 0 0
BITMAP
01F8
03F8
07F8
0F78
1E78
3C78
7878
FFFE
FFFE
FFFE
0078
0078
0078
ENDCHAR
STARTCHAR five.dnom
ENCODING -1
SWIDTH 494 0
DWIDTH 16 0
BBX 14 14 1 -1
BITMAP
7FF8
FFF8
FFF8
F000
F7E0
FFF8
FFFC
003C
003C
F03C
F87C
FFF8
3FF0
0300
ENDCHAR
STARTCHAR six.dnom
ENCODING -1
SWIDTH 510 0
DWIDTH 16 0
BBX 15 15 1 -1
BITMAP
0FE0
3FF8
7FFC
783C
F000
F3E0
FFF8
FFFC
F83C
F03E
F03E
7C7C
7FFC
1FF0
0100
ENDCHAR
STARTCHAR seven.dnom
ENCODING -1
SWIDTH 458 0
DWIDTH 15 0
BBX 14 13 0 0
BITMAP
FFFC
FFFC
FFFC
007C
0078
00F8
00F0
01E0
03E0
03C0
07C0
0F80
1F00
ENDCHAR
STARTCHAR eight.dnom
ENCODING -1
SWIDTH 518 0
DWIDTH 17 0
BBX 15 15 1 -1
BITMAP
0FE0
7FF8
FFFC
F83C
F01C
F83C
7FF8
7FF8
F83C
F01E
F03E
F87E
FFFC
3FF8
0380
ENDCHAR
STARTCHAR nine.dnom
ENCODING -1
SWIDTH 498 0
DWIDTH 16 0
BBX 15 15 0 -1
BITMAP
0380
3FF0
7FFC
783C
F01E
F01E
783E
7FFE
3FFE
031E
781E
783C
7FFC
1FF0
0100
ENDCHAR
STARTCHAR uni0306.cy
ENCODING -1
SWIDTH 0 0
DWIDTH 0 0
BBX 16 5 1 19
BITMAP
F81F
7C3E
7FFE
3FFC
0FF0
ENDCHAR
STARTCHAR uni0306.cy.case
ENCODING -1
SWIDTH 0 0
DWIDTH 0 0
BBX 16 5 1 24
BITMAP
F81F
FC3F
7FFE
3FFC
0FF0
ENDCHAR
STARTCHAR uni030C.alt
ENCODING -1
SWIDTH 0 0
DWIDTH 0 0
BBX 5 8 2 15
BITMAP
F8
F8
F8
F8
38
38
F0
E0
ENDCHAR
STARTCHAR uni0326.case
ENCODING -1
SWIDTH 0 0
DWIDTH 0 0
BBX 6 8 2 -10
BITMAP
FC
FC
FC
FC
1C
38
F8
E0
ENDCHAR
STARTCHAR caron.alt
ENCODING -1
SWIDTH 313 0
DWIDTH 10 0
BBX 6 10 2 13
BITMAP
FC
FC
FC
FC
FC
1C
1C
38
F8
E0
ENDCHAR
STARTCHAR dieresis.case
ENCODING -1
SWIDTH 567 0
DWIDTH 18 0
BBX 14 4 2 25
BITMAP
F87C
F87C
F87C
F87C
ENDCHAR
STARTCHAR dotaccent.case
ENCODING -1
SWIDTH 309 0
DWIDTH 10 0
BBX 6 4 2 25
BITMAP
FC
FC
FC
FC
ENDCHAR
STARTCHAR grave.case
ENCODING -1
SWIDTH 457 0
DWIDTH 15 0
BBX 10 5 2 25
BITMAP
FF00
3F80
1F80
0FC0
07C0
ENDCHAR
STARTCHAR acute.case
ENCODING -1
SWIDTH 457 0
DWIDTH 15 0
BBX 10 5 2 25
BITMAP
1FC0
3F80
7F00
7E00
F800
ENDCHAR
STARTCHAR hungarumlaut.case
ENCODING -1
SWIDTH 660 0
DWIDTH 21 0
BBX 17 5 2 25
BITMAP
3FBF80
3F3F00
7E7E00
7C7C00
F8F800
ENDCHAR
STARTCHAR circumflex.case
ENCODING -1
SWIDTH 639 0
DWIDTH 20 0
BBX 16 5 2 25
BITMAP
0FF0
1FF8
3FFC
7E7E
FC3F
ENDCHAR
STARTCHAR caron.case
ENCODING -1
SWIDTH 639 0
DWIDTH 20 0
BBX 16 5 2 25
BITMAP
FC3F
7E7E
3FFC
1FF8
0FF0
ENDCHAR
STARTCHAR breve.case
ENCODING -1
SWIDTH 568 0
DWIDTH 18 0
BBX 14 5 2 25
BITMAP
F87C
F87C
7FF8
3FF0
0FC0
ENDCHAR
STARTCHAR ring.case
ENCODING -1
SWIDTH 453 0
DWIDTH 15 0
BBX 10 8 2 24
BITMAP
1F00
7F80
FFC0
F1C0
F1C0
FFC0
7F80
1F00
ENDCHAR
STARTCHAR tilde.case
ENCODING -1
SWIDTH 611 0
DWIDTH 20 0
BBX 15 6 2 24
BITMAP
3E1E
7F9E
7FFE
FFFE
F1FC
F078
ENDCHAR
STARTCHAR macron.case
ENCODING -1
SWIDTH 562 0
DWIDTH 18 0
BBX 14 3 2 25
BITMAP
FFFC
FFFC
FFFC
ENDCHAR
STARTCHAR cedilla.case
ENCODING -1
SWIDTH 453 0
DWIDTH 15 0
BBX 10 9 2 -8
BITMAP
0E00
1C00
3F00
3FC0
43C0
03C0
C7C0
FFC0
FF00
ENDCHAR
STARTCHAR ogonek.case
ENCODING -1
SWIDTH 404 0
DWIDTH 13 0
BBX 9 8 2 -7
BITMAP
0F80
3E00
7C00
F800
F800
FF80
7F80
3F80
ENDCHAR
ENDFONT
